<svg xmlns="http://www.w3.org/2000/svg" xmlns:xlink="http://www.w3.org/1999/xlink" width="145px" height="130px" viewBox="0 0 145 130"> <defs> <style> .cls-1,.cls-3{fill:none;}.cls-15,.cls-2{fill:#b9f3ff;}.cls-2,.cls-3,.cls-4{clip-rule:evenodd;}.cls-12,.cls-31,.cls-4{fill:#6fda44;}.cls-5{fill:#e0e0e0;}.cls-6{clip-path:url(#clip-path);}.cls-7{fill:#d1d1d1;}.cls-8{fill:#73e6ff;}.cls-9{fill:#abf0ff;}.cls-10{fill:#7d7d7d;}.cls-11{fill:#b2b2b2;}.cls-13{fill:#f8f8f8;}.cls-14{fill:#b0e44f;}.cls-15,.cls-31{fill-rule:evenodd;}.cls-16{clip-path:url(#clip-path-2);}.cls-17{clip-path:url(#clip-path-3);}.cls-18{clip-path:url(#clip-path-4);}.cls-19{clip-path:url(#clip-path-5);}.cls-20{clip-path:url(#clip-path-6);}.cls-21{clip-path:url(#clip-path-7);}.cls-22{clip-path:url(#clip-path-8);}.cls-23{clip-path:url(#clip-path-9);}.cls-24{clip-path:url(#clip-path-10);}.cls-25{clip-path:url(#clip-path-11);}.cls-26{clip-path:url(#clip-path-12);}.cls-27{clip-path:url(#clip-path-13);}.cls-28{clip-path:url(#clip-path-14);}.cls-29{clip-path:url(#clip-path-15);}.cls-30{clip-path:url(#clip-path-16);}.cls-32{clip-path:url(#clip-path-17);}.cls-33{clip-path:url(#clip-path-18);}.cls-34{clip-path:url(#clip-path-19);}.cls-35{clip-path:url(#clip-path-20);}.cls-36{clip-path:url(#clip-path-21);}.cls-37{clip-path:url(#clip-path-22);}.cls-38{clip-path:url(#clip-path-23);}.cls-39{clip-path:url(#clip-path-24);}.cls-40{clip-path:url(#clip-path-25);}.cls-41{clip-path:url(#clip-path-26);}.cls-42{clip-path:url(#clip-path-27);}.cls-43{clip-path:url(#clip-path-28);}.cls-44{clip-path:url(#clip-path-29);}.cls-45{clip-path:url(#clip-path-30);}.cls-46{clip-path:url(#clip-path-31);}.cls-47{clip-path:url(#clip-path-32);}.cls-48{clip-path:url(#clip-path-33);} </style> <clipPath id="clip-path"> <circle class="cls-1" cx="72.66" cy="65" r="65"></circle> </clipPath> <clipPath id="clip-path-2"> <path class="cls-2" d="M285.2,474.25s6.9,9,36.51,10.52c48.73,2.5,52.73-13.18,52.73-13.18l10.24-95-21.36-9.9L284.89,471.59Z"></path> </clipPath> <clipPath id="clip-path-3"> <line class="cls-1" x1="357.02" y1="374.9" x2="284.89" y2="471.59"></line> </clipPath> <clipPath id="clip-path-4"> <line class="cls-1" x1="383.44" y1="390.11" x2="367.45" y2="481.38"></line> </clipPath> <clipPath id="clip-path-5"> <path class="cls-3" d="M388.08,425.16a1.25,1.25,0,0,0,1.19-2.2,1.25,1.25,0,0,0-1.19,2.2"></path> </clipPath> <clipPath id="clip-path-6"> <path class="cls-3" d="M316.82,400.52a1.88,1.88,0,0,0,1.78-3.3,1.88,1.88,0,0,0-1.78,3.3"></path> </clipPath> <clipPath id="clip-path-7"> <path class="cls-3" d="M412,397.57c-2.66,6.9-23.52,5.29-46.59-3.6s-39.62-21.69-37-28.59,23.52-5.29,46.59,3.6,39.62,21.69,37,28.59"></path> </clipPath> <clipPath id="clip-path-8"> <path class="cls-3" d="M392.18,384.42c-1.36,3.52-11.38,2.85-22.44-1.41s-19.13-10-17.58-14a21.44,21.44,0,1,1,40,15.42"></path> </clipPath> <clipPath id="clip-path-9"> <path class="cls-3" d="M375.53,378a5.4,5.4,0,1,1,2.92-7,5.4,5.4,0,0,1-2.92,7"></path> </clipPath> <clipPath id="clip-path-10"> <polyline class="cls-3" points="317.19 446.08 328.25 471.99 370.65 453.9 359.59 427.98"></polyline> </clipPath> <clipPath id="clip-path-11"> <path class="cls-3" d="M357.73,423.63a2.87,2.87,0,0,0-3.81-1.58L316.65,438a2.8,2.8,0,0,0-1.3,3.83l1.83,4.29,42.4-18.1Z"></path> </clipPath> <clipPath id="clip-path-12"> <path class="cls-3" d="M319.37,442.59a1.5,1.5,0,0,0,.06-3,1.5,1.5,0,0,0-.06,3"></path> </clipPath> <clipPath id="clip-path-13"> <path class="cls-3" d="M323.13,441a1.5,1.5,0,0,0,.06-3,1.5,1.5,0,0,0-.06,3"></path> </clipPath> <clipPath id="clip-path-14"> <path class="cls-3" d="M326.89,439.38a1.5,1.5,0,0,0,.06-3,1.5,1.5,0,0,0-.06,3"></path> </clipPath> <clipPath id="clip-path-15"> <line class="cls-1" x1="362.52" y1="396.77" x2="353.92" y2="412.67"></line> </clipPath> <clipPath id="clip-path-16"> <path class="cls-3" d="M366.42,390a.17.17,0,1,1-.07-.24.17.17,0,0,1,.07.24"></path> </clipPath> <clipPath id="clip-path-17"> <path class="cls-4" d="M327.08,391.16a1.25,1.25,0,0,0,1.19-2.2,1.25,1.25,0,0,0-1.19,2.2"></path> </clipPath> <clipPath id="clip-path-18"> <path class="cls-2" d="M406.68,104.5s5.88,7.67,31.1,9c41.5,2.13,44.91-11.23,44.91-11.23l8.72-80.94-18.19-8.43-66.8,89.37Z"></path> </clipPath> <clipPath id="clip-path-19"> <line class="cls-1" x1="467.86" y1="19.88" x2="406.42" y2="102.24"></line> </clipPath> <clipPath id="clip-path-20"> <line class="cls-1" x1="490.36" y1="32.83" x2="476.74" y2="110.58"></line> </clipPath> <clipPath id="clip-path-21"> <path class="cls-3" d="M494.31,62.69a1.07,1.07,0,0,0,1-1.87,1.07,1.07,0,0,0-1,1.87"></path> </clipPath> <clipPath id="clip-path-22"> <path class="cls-3" d="M433.62,41.7a1.6,1.6,0,0,0,1.52-2.81,1.6,1.6,0,0,0-1.52,2.81"></path> </clipPath> <clipPath id="clip-path-23"> <path class="cls-3" d="M514.72,39.19c-2.27,5.88-20,4.51-39.69-3.06s-33.75-18.48-31.49-24.36,20-4.51,39.69,3.06S517,33.31,514.72,39.19"></path> </clipPath> <clipPath id="clip-path-24"> <path class="cls-3" d="M497.81,28c-1.16,3-9.7,2.43-19.11-1.2s-16.29-8.52-15-11.93A18.27,18.27,0,1,1,497.81,28"></path> </clipPath> <clipPath id="clip-path-25"> <path class="cls-3" d="M483.62,22.49a4.6,4.6,0,1,1,2.49-6,4.6,4.6,0,0,1-2.49,6"></path> </clipPath> <clipPath id="clip-path-26"> <polyline class="cls-3" points="433.93 80.51 443.35 102.58 479.46 87.17 470.04 65.09"></polyline> </clipPath> <clipPath id="clip-path-27"> <path class="cls-3" d="M468.46,61.39A2.45,2.45,0,0,0,465.22,60L433.47,73.59a2.38,2.38,0,0,0-1.11,3.26l1.56,3.66L470,65.1Z"></path> </clipPath> <clipPath id="clip-path-28"> <path class="cls-3" d="M435.78,77.54a1.28,1.28,0,0,0,.05-2.55,1.28,1.28,0,0,0-.05,2.55"></path> </clipPath> <clipPath id="clip-path-29"> <path class="cls-3" d="M439,76.17a1.28,1.28,0,0,0,.05-2.55,1.28,1.28,0,0,0-.05,2.55"></path> </clipPath> <clipPath id="clip-path-30"> <path class="cls-3" d="M442.19,74.8a1.28,1.28,0,0,0,.05-2.55,1.28,1.28,0,0,0-.05,2.55"></path> </clipPath> <clipPath id="clip-path-31"> <line class="cls-1" x1="472.55" y1="38.51" x2="465.21" y2="52.05"></line> </clipPath> <clipPath id="clip-path-32"> <path class="cls-3" d="M475.86,32.78a.15.15,0,1,1-.06-.2.15.15,0,0,1,.06.2"></path> </clipPath> <clipPath id="clip-path-33"> <path class="cls-4" d="M442.36,33.72a1.07,1.07,0,0,0,1-1.87,1.07,1.07,0,0,0-1,1.87"></path> </clipPath> </defs> <title>interstitial</title> <g id="Full_Illustrations" data-name="Full Illustrations"> <circle class="cls-5" cx="72.66" cy="65" r="65"></circle> <g class="cls-6"> <rect class="cls-7" x="-10.55" y="68.41" width="165.25" height="78.3"></rect> <path class="cls-5" d="M145.66,26.05H67.29a1.28,1.28,0,1,1,0-2.56h78.36a1.28,1.28,0,1,1,0,2.56Z"></path> <path class="cls-5" d="M161.84,12.43H97.11a1.28,1.28,0,0,1,0-2.56h64.74a1.28,1.28,0,1,1,0,2.56Z"></path> <path class="cls-5" d="M89.44,12.43H76.66a1.28,1.28,0,1,1,0-2.56H89.44a1.28,1.28,0,0,1,0,2.56Z"></path> <path class="cls-5" d="M136.29,19.24H117.55a1.28,1.28,0,1,1,0-2.56h18.74a1.28,1.28,0,0,1,0,2.56Z"></path> <path class="cls-5" d="M110.74,19.24H75a1.28,1.28,0,0,1,0-2.56h35.78a1.28,1.28,0,1,1,0,2.56Z"></path> </g> <path class="cls-8" d="M35.45,52.52v33.2A3.33,3.33,0,0,0,39,88.81h63.59a3.33,3.33,0,0,0,3.53-3.09V52.52"></path> <path class="cls-9" d="M38.81,41.11a3.36,3.36,0,0,0-3.36,3.36V55l35.33,13L106.1,55V44.47a3.36,3.36,0,0,0-3.36-3.36Z"></path> <path class="cls-10" d="M85.44,42.55a1.28,1.28,0,0,1-1.28-1.28V35.08H81.84a1.28,1.28,0,0,1,0-2.56h3.59a1.28,1.28,0,0,1,1.28,1.28v7.47A1.28,1.28,0,0,1,85.44,42.55Z"></path> <path class="cls-10" d="M56.11,42.55a1.28,1.28,0,0,1-1.28-1.28V33.8a1.28,1.28,0,0,1,1.28-1.28h4a1.28,1.28,0,0,1,0,2.56H57.39v6.19A1.28,1.28,0,0,1,56.11,42.55Z"></path> <rect class="cls-11" x="60.28" y="31.36" width="20.98" height="5.29"></rect> <path class="cls-10" d="M81.26,37.71h-21a1.06,1.06,0,0,1-1.06-1.06V31.36a1.06,1.06,0,0,1,1.06-1.06h21a1.06,1.06,0,0,1,1.06,1.06v5.29A1.06,1.06,0,0,1,81.26,37.71ZM61.35,35.58H80.2V32.43H61.35Z"></path> <path class="cls-10" d="M102.74,90.08H38.81a4.64,4.64,0,0,1-4.64-4.64V44.69a4.64,4.64,0,0,1,4.64-4.64h63.93a4.64,4.64,0,0,1,4.64,4.64V85.45A4.64,4.64,0,0,1,102.74,90.08ZM38.81,42.61a2.08,2.08,0,0,0-2.08,2.08V85.45a2.08,2.08,0,0,0,2.08,2.08h63.93a2.08,2.08,0,0,0,2.08-2.08V44.69a2.08,2.08,0,0,0-2.08-2.08Z"></path> <path class="cls-10" d="M75,67.68a1.07,1.07,0,0,1-.37-2.06L105.72,54a1.06,1.06,0,1,1,.75,2L75.41,67.62A1.06,1.06,0,0,1,75,67.68Z"></path> <path class="cls-10" d="M66.51,67.68a1.06,1.06,0,0,1-.37-.07L35.07,56a1.06,1.06,0,1,1,.75-2L66.88,65.62a1.07,1.07,0,0,1-.37,2.06Z"></path> <rect class="cls-5" x="66.51" y="63.49" width="8.53" height="8.9"></rect> <path class="cls-10" d="M75,73.45H66.51a1.06,1.06,0,0,1-1.06-1.06v-8.9a1.06,1.06,0,0,1,1.06-1.06H75a1.06,1.06,0,0,1,1.06,1.06v8.9A1.06,1.06,0,0,1,75,73.45Zm-7.46-2.13H74V64.56h-6.4Z"></path> <path class="cls-10" d="M70.77,69a1.06,1.06,0,0,1-1.06-1.06v-6.2a1.06,1.06,0,0,1,2.13,0v6.2A1.06,1.06,0,0,1,70.77,69Z"></path> <path class="cls-12" d="M124.33,103l-6-3.87a22.1,22.1,0,1,0-2.18,3.29l6,3.87"></path> <path class="cls-10" d="M98.94,112.05A23.41,23.41,0,1,1,120,98.69l5,3.25a1.28,1.28,0,0,1-1.39,2.15l-6-3.87a1.28,1.28,0,0,1-.43-1.68,20.82,20.82,0,1,0-2.06,3.11,1.28,1.28,0,0,1,1.69-.28l6,3.87a1.28,1.28,0,0,1-1.39,2.15l-5-3.26A23.22,23.22,0,0,1,98.94,112.05Z"></path> <circle class="cls-13" cx="98.9" cy="88.63" r="17.53" transform="translate(-29.61 122.13) rotate(-56.48)"></circle> <path class="cls-10" d="M98.87,107a18.38,18.38,0,1,1,15.36-8.23h0A18.39,18.39,0,0,1,98.87,107ZM98.92,72a16.68,16.68,0,1,0,13.88,25.89h0A16.68,16.68,0,0,0,98.92,72Zm14.59,26.36h0Z"></path> <path class="cls-9" d="M112.33,94.19a.65.65,0,0,1-.21,0,.64.64,0,0,1-.4-.81,13.11,13.11,0,0,0,.46-1.73.64.64,0,0,1,1.25.25,14.43,14.43,0,0,1-.51,1.9A.64.64,0,0,1,112.33,94.19Zm.74-4.82a.64.64,0,0,1-.64-.62A13,13,0,0,0,91.18,79a.64.64,0,1,1-.81-1,14.3,14.3,0,0,1,23.33,10.69.64.64,0,0,1-.62.66Z"></path> <path class="cls-14" d="M130.74,102.73h7.9a0,0,0,0,1,0,0v15.88a4,4,0,0,1-4,4h0a4,4,0,0,1-4-4V102.73a0,0,0,0,1,0,0Z" transform="translate(-33.61 162.72) rotate(-56.48)"></path> <path class="cls-10" d="M139.66,121.17a5.2,5.2,0,0,1-2.88-.87l-13.24-8.77a1.28,1.28,0,0,1-.36-1.77l4.36-6.59a1.28,1.28,0,0,1,1.77-.36l13.24,8.77a5.23,5.23,0,0,1,1.47,7.25h0A5.23,5.23,0,0,1,139.66,121.17ZM126,110.1l12.18,8.07a2.67,2.67,0,1,0,3-4.46L129,105.65Zm16.95,8h0Z"></path> <polyline class="cls-14" points="124.24 110.46 121.34 108.54 125.71 101.95 128.6 103.88"></polyline> <path class="cls-10" d="M124.24,111.74a1.27,1.27,0,0,1-.7-.21l-2.9-1.92a1.28,1.28,0,0,1-.36-1.77l4.36-6.59a1.28,1.28,0,0,1,1.77-.36l2.9,1.92a1.28,1.28,0,1,1-1.41,2.13l-1.83-1.21-3,4.46,1.83,1.21a1.28,1.28,0,0,1-.71,2.34Z"></path> <path class="cls-15" d="M285.2,474.25s6.9,9,36.51,10.52c48.73,2.5,52.73-13.18,52.73-13.18l10.24-95-21.36-9.9L284.89,471.59Z"></path> <path class="cls-31" d="M327.08,391.16a1.25,1.25,0,0,0,1.19-2.2,1.25,1.25,0,0,0-1.19,2.2"></path> <g class="cls-32"> <rect class="cls-12" x="-77.86" y="-211.78" width="706" height="1315" transform="translate(-247.81 475.54) rotate(-61.58)"></rect> </g> <path class="cls-15" d="M406.68,104.5s5.88,7.67,31.1,9c41.5,2.13,44.91-11.23,44.91-11.23l8.72-80.94-18.19-8.43-66.8,89.37Z"></path> <path class="cls-31" d="M442.36,33.72a1.07,1.07,0,0,0,1-1.87,1.07,1.07,0,0,0-1,1.87"></path> <g class="cls-48"> <rect class="cls-12" x="97.43" y="-479.85" width="601.37" height="1120.11" transform="translate(138.09 392.15) rotate(-61.58)"></rect> </g> </g>
</svg>