<svg xmlns="http://www.w3.org/2000/svg" viewBox="0 0 585.7 361.47"><defs><style>.cls-1,.cls-5{fill:#d4f09e}.cls-1,.cls-13,.cls-15,.cls-21,.cls-6{stroke:#7d7d7d}.cls-1,.cls-10,.cls-11,.cls-13,.cls-15,.cls-17,.cls-18,.cls-19,.cls-21,.cls-25,.cls-26,.cls-6{stroke-linecap:round}.cls-1,.cls-10,.cls-11,.cls-13,.cls-15,.cls-17,.cls-18,.cls-19,.cls-21,.cls-25,.cls-26,.cls-4,.cls-6{stroke-linejoin:round}.cls-1,.cls-15,.cls-19,.cls-21,.cls-6{stroke-width:2.33px}.cls-2{fill:#f2f2f2}.cls-21,.cls-3{fill:#b2b2b2}.cls-26,.cls-4{fill:#fff}.cls-4{stroke:#d8d8d8;stroke-linecap:square;stroke-width:4px}.cls-11,.cls-13,.cls-25,.cls-6{fill:none}.cls-7{fill:#b0eb98}.cls-15,.cls-8{fill:#f5f5f5}.cls-9{fill:#94ebfd}.cls-10{fill:#f9f9f9}.cls-10,.cls-11{stroke:#b2b2b2}.cls-10,.cls-11,.cls-13{stroke-width:3.5px}.cls-12{fill:#efefef}.cls-14{fill:#7d7d7d}.cls-16,.cls-17{fill:#b2f1ff}.cls-17,.cls-18{stroke:#b2f1ff;stroke-width:1.53px}.cls-18,.cls-30{fill:#b0e44f}.cls-19{fill:#c4ec7c;stroke:#b0e44f}.cls-20{fill:#6fda44}.cls-22{fill:#9dedff}.cls-23{fill:#79e6fd}.cls-24{fill:#73bb89}.cls-25,.cls-26{stroke:#f2f2f2;stroke-width:2.75px}.cls-27{fill:#008329}.cls-28{fill:#73e6ff}.cls-29{fill:#5bbc2e}</style></defs><title>16-0412_HIW</title><path class="cls-1" d="M91.94 220.8a21 21 0 1 0 18.21 31.4 6.39 6.39 0 0 1 5.52-3.31h6.25v-14.2h-6.26a6.2 6.2 0 0 1-5.43-3.14 21 21 0 0 0-18.29-10.75z"/><path class="cls-2" d="M334.06 215.77h106.35v141.32H334.06z"/><path class="cls-3" d="M349.63 241.39l1.32-1.46a2.34 2.34 0 0 0 1.74.95c.79 0 1.28-.47 1.28-1.57v-6.11h2.15v6.21a3.44 3.44 0 0 1-.9 2.53 3.4 3.4 0 0 1-2.47.88 3.89 3.89 0 0 1-3.12-1.43zm8.18-3.39a5.05 5.05 0 0 1 10.1 0 5.05 5.05 0 0 1-10.1 0zm7.92 0a2.88 2.88 0 0 0-2.88-3 2.84 2.84 0 0 0-2.85 3 2.88 2.88 0 0 0 2.88 3 2.84 2.84 0 0 0 2.85-3zm4.04-4.81h4.41a3.44 3.44 0 0 1 2.49.84 2.18 2.18 0 0 1 .65 1.61 2.21 2.21 0 0 1-1.25 2 2.32 2.32 0 0 1 1.78 2.33c0 1.73-1.41 2.6-3.56 2.6h-4.52v-9.48zm4 3.83c.92 0 1.51-.3 1.51-1 0-.62-.49-1-1.37-1h-2.06v2h1.93zm.56 3.82c.92 0 1.48-.33 1.48-1 0-.64-.48-1-1.55-1h-2.42v2.09h2.49zm9.32-7.65h3.88c2.27 0 3.64 1.34 3.64 3.28 0 2.2-1.71 3.33-3.84 3.33h-1.59v2.85h-2.09v-9.48zm3.75 4.81a1.47 1.47 0 0 0 1.66-1.44 1.44 1.44 0 0 0-1.7-1.44h-1.62V238h1.66zm4.9 0a5.05 5.05 0 0 1 10.1 0 5.05 5.05 0 0 1-10.1 0zm7.92 0a2.88 2.88 0 0 0-2.88-3 2.84 2.84 0 0 0-2.85 3 2.88 2.88 0 0 0 2.88 3 2.84 2.84 0 0 0 2.84-3zm3.32 3.29l1.24-1.48a4.37 4.37 0 0 0 2.84 1.15c.86 0 1.37-.34 1.37-.89 0-.53-.33-.8-1.92-1.21-1.92-.49-3.15-1-3.15-2.9 0-1.72 1.38-2.86 3.33-2.86a5.51 5.51 0 0 1 3.53 1.21l-1.09 1.57a4.46 4.46 0 0 0-2.47-.93 1 1 0 0 0-1.22.83c0 .62.41.83 2 1.25 1.93.5 3 1.19 3 2.85 0 1.88-1.44 2.94-3.49 2.94a6.06 6.06 0 0 1-3.97-1.53zm11.35-6.17H412v-1.92h7.88v1.92H417v7.56h-2.09v-7.56z"/><path class="cls-4" d="M351.19 280.17h43.8m-43.8 10.38h66.94m-66.94 10.38h66.94m-66.94 10.38h66.94m-66.94 10.38h66.94"/><path class="cls-2" d="M459.03 212.1h106.35v141.32H459.03z"/><path class="cls-3" d="M476.75 241.39l1.32-1.46a2.34 2.34 0 0 0 1.74.95c.79 0 1.28-.47 1.28-1.57v-6.11h2.15v6.21a3.44 3.44 0 0 1-.9 2.53 3.4 3.4 0 0 1-2.47.88 3.89 3.89 0 0 1-3.12-1.43zm8.19-3.39a5.05 5.05 0 0 1 10.1 0 5.05 5.05 0 0 1-10.1 0zm7.92 0a2.88 2.88 0 0 0-2.88-3 2.84 2.84 0 0 0-2.85 3 2.88 2.88 0 0 0 2.88 3 2.84 2.84 0 0 0 2.85-3zm4.04-4.81h4.41a3.44 3.44 0 0 1 2.49.84 2.18 2.18 0 0 1 .65 1.61 2.21 2.21 0 0 1-1.25 2A2.32 2.32 0 0 1 505 240c0 1.73-1.41 2.6-3.56 2.6h-4.54v-9.48zm4 3.83c.92 0 1.51-.3 1.51-1 0-.62-.49-1-1.37-1h-2.06v2h1.93zm.56 3.82c.92 0 1.48-.33 1.48-1 0-.64-.48-1-1.55-1h-2.42v2.09h2.49zm9.31-7.65h3.88c2.27 0 3.64 1.34 3.64 3.28 0 2.2-1.71 3.33-3.84 3.33h-1.59v2.85h-2.09v-9.48zm3.75 4.78a1.47 1.47 0 0 0 1.66-1.44 1.44 1.44 0 0 0-1.7-1.44h-1.62V238h1.66zm4.9.03a5.05 5.05 0 0 1 10.1 0 5.05 5.05 0 0 1-10.1 0zm7.92 0a2.88 2.88 0 0 0-2.88-3 2.84 2.84 0 0 0-2.85 3 2.88 2.88 0 0 0 2.88 3 2.84 2.84 0 0 0 2.85-3zm3.32 3.29l1.24-1.48a4.37 4.37 0 0 0 2.84 1.15c.86 0 1.37-.34 1.37-.89 0-.53-.33-.8-1.92-1.21-1.92-.49-3.15-1-3.15-2.9 0-1.72 1.38-2.86 3.33-2.86a5.51 5.51 0 0 1 3.53 1.21l-1.09 1.57a4.46 4.46 0 0 0-2.47-.93 1 1 0 0 0-1.22.83c0 .62.41.83 2 1.25 1.93.5 3 1.19 3 2.85 0 1.88-1.44 2.94-3.49 2.94a6.06 6.06 0 0 1-3.97-1.53zm11.34-6.17h-2.89v-1.92H547v1.92h-2.89v7.56H542v-7.56z"/><path class="cls-4" d="M478.31 280.17h43.8m-43.8 10.38h66.94m-66.94 10.38h66.94m-66.94 10.38h66.94m-66.94 10.38h66.94"/><path class="cls-5" d="M120.47 315.79h5.83v14.86h-5.83z"/><path class="cls-6" d="M120.47 315.79h5.83v14.86h-5.83z"/><path class="cls-7" d="M120.47 294.49h5.83v14.86h-5.83z"/><path class="cls-6" d="M120.47 294.49h5.83v14.86h-5.83z"/><path class="cls-8" d="M284.67 159.54h14.86v5.83h-14.86z"/><path class="cls-6" d="M284.67 159.54h14.86v5.83h-14.86z"/><path class="cls-9" d="M296.43 159.54h-8.65v-2a2.5 2.5 0 0 1 2.5-2.5h3.66a2.5 2.5 0 0 1 2.5 2.5v2z"/><path class="cls-6" d="M296.43 159.54h-8.65v-2a2.5 2.5 0 0 1 2.5-2.5h3.66a2.5 2.5 0 0 1 2.5 2.5v2z"/><path class="cls-10" d="M-323.81-199.85h-19.15v-154.48h19.15z"/><path class="cls-11" d="M162.94 205.85v53.97"/><path class="cls-12" d="M332.3 165.25l-.13 3.46.25 3.34-.25 3.35.25 3.35-.24 3.29-1.58.18-1.7-.25-1.69.25-1.7-.25-1.58.13-.24 34.44.24 34.44-.24 34.45.24 34.45-.2 34.36-38.72.21-38.8-.25-38.8.25-38.8-.25-38.88.22.2-34.54-.24-34.44.24-34.45-.24-34.45.24-34.45-1.77.13-1.64-.25-1.64.25-1.65-.25-1.76.18.23-3.4-.25-3.34.25-3.34-.25-3.35.14-3.23 42.13-.24 42.14.24 42.14-.24 42.15.24 42.15-.24zm-453.88-330.37h-210.46v-16.98h210.46z"/><path class="cls-13" d="M129.81 183.43v171.38h194V183.43m-148.74-1.34h19.78m14.65 0h122.79v-16.72H121.58v16.72h45.12"/><path class="cls-12" d="M129.09 256.43v-29.28h-4.66a2 2 0 0 0-2 2v25.37a2 2 0 0 0 2 2h4.66z"/><path class="cls-6" d="M129.09 256.43v-29.28h-4.66a2 2 0 0 0-2 2v25.37a2 2 0 0 0 2 2h4.66z"/><path class="cls-14" d="M153.77 207.38a1.54 1.54 0 0 0 0-3.07 1.54 1.54 0 0 0 0 3.07z"/><path class="cls-15" d="M-148.34-202.19h-80.24v-62.97h80.24z"/><path class="cls-14" d="M223.2 209.07a1.54 1.54 0 0 0 0-3.07 1.54 1.54 0 0 0 0 3.07zm0 52.29a1.54 1.54 0 0 0 0-3.07 1.54 1.54 0 0 0 0 3.07zm-69.43-1.69a1.54 1.54 0 0 0 0-3.07 1.54 1.54 0 0 0 0 3.07zm0-50.3a1.54 1.54 0 0 0 0-3.07 1.54 1.54 0 0 0 0 3.07zm92.35 50.3a1.54 1.54 0 0 0 0-3.07 1.54 1.54 0 0 0 0 3.07zm0-50.3a1.54 1.54 0 0 0 0-3.07 1.54 1.54 0 0 0 0 3.07zm53.42 50.3a1.54 1.54 0 0 0 0-3.07 1.54 1.54 0 0 0 0 3.07zm0-50.3a1.54 1.54 0 0 0 0-3.07 1.54 1.54 0 0 0 0 3.07z"/><path class="cls-16" d="M105.67 271.94a1.54 1.54 0 0 0 0-3.07 1.54 1.54 0 0 0 0 3.07z"/><path class="cls-17" d="M91.26 206.2s-4.87 0-4.87-4.87c0 4.87-4.87 4.87-4.87 4.87s4.87 0 4.87 4.87c.01-4.87 4.87-4.87 4.87-4.87z"/><path class="cls-18" d="M63.09 266.48l4.3-4.3m-4.3 0l4.3 4.3"/><path class="cls-10" d="M4.87 354.8h575.96"/><circle class="cls-19" cx="202.87" cy="245.84" r="12.01"/><rect class="cls-20" x="201.51" y="231.26" width="2.74" height="29.16" rx="1.37" ry="1.37" transform="rotate(-45 202.878 245.835)"/><rect class="cls-21" x="161.88" y="211.32" width="54.21" height="14.5" rx="7.25" ry="7.25"/><circle class="cls-22" cx="169.81" cy="218.57" r="4.26"/><path class="cls-23" d="M169.81 215.3a3.26 3.26 0 1 1-3.26 3.26 3.26 3.26 0 0 1 3.26-3.26m0-2a5.26 5.26 0 1 0 5.26 5.26 5.26 5.26 0 0 0-5.26-5.26z"/><path class="cls-7" d="M161.49 232.56h6.95v6.95h-6.95z"/><path class="cls-5" d="M171.21 232.56h6.95v6.95h-6.95z"/><path class="cls-16" d="M161.49 242.36h6.95v6.95h-6.95z"/><path class="cls-24" d="M171.21 242.36h6.95v6.95h-6.95z"/><path class="cls-5" d="M161.49 252.27h6.95v6.95h-6.95z"/><path class="cls-7" d="M171.21 252.27h6.95v6.95h-6.95z"/><path id="_Path_" class="cls-25" d="M90.45 59.04h53.31v25.52H90.45z"/><path id="_Path_2" class="cls-25" d="M115.95 110.62V85.1"/><path id="_Path_3" class="cls-25" d="M115.95 85.1H63.27v25.52H98.9"/><path id="_Path_4" class="cls-25" d="M63.27 32.99h52.68v25.52H63.27"/><path class="cls-6" d="M122.48 239.69H96.09v4.2h25.45"/><circle class="cls-6" cx="96.44" cy="248.89" r="5"/><circle class="cls-6" cx="96.44" cy="234.69" r="5"/><path class="cls-25" d="M374.59 46.34h127.33v86.77H374.59zm107.55-.59L438.56 7.44l-43.57 38.31"/><circle class="cls-26" cx="438.29" cy="10.17" r="4.41"/><rect class="cls-8" x="382.81" y="55.85" width="45.25" height="9.5" rx="1.29" ry="1.29"/><rect class="cls-8" x="382.81" y="75.1" width="11.75" height="11.75" rx="1.29" ry="1.29"/><rect class="cls-8" x="382.81" y="93.45" width="11.75" height="11.75" rx="1.29" ry="1.29"/><rect class="cls-8" x="382.81" y="111.8" width="11.75" height="11.75" rx="1.29" ry="1.29"/><rect class="cls-8" x="402.46" y="75.1" width="11.75" height="11.75" rx="1.29" ry="1.29"/><rect class="cls-8" x="402.46" y="93.45" width="11.75" height="11.75" rx="1.29" ry="1.29"/><rect class="cls-8" x="402.46" y="111.8" width="11.75" height="11.75" rx="1.29" ry="1.29"/><rect class="cls-8" x="422.11" y="75.1" width="11.75" height="11.75" rx="1.29" ry="1.29"/><rect class="cls-8" x="422.11" y="93.45" width="11.75" height="11.75" rx="1.29" ry="1.29"/><rect class="cls-8" x="422.11" y="111.8" width="11.75" height="11.75" rx="1.29" ry="1.29"/><rect class="cls-8" x="441.77" y="75.1" width="11.75" height="11.75" rx="1.29" ry="1.29"/><rect class="cls-8" x="441.77" y="93.45" width="11.75" height="11.75" rx="1.29" ry="1.29"/><rect class="cls-8" x="441.77" y="111.8" width="11.75" height="11.75" rx="1.29" ry="1.29"/><rect class="cls-8" x="461.42" y="75.1" width="11.75" height="11.75" rx="1.29" ry="1.29"/><rect class="cls-8" x="461.42" y="93.45" width="11.75" height="11.75" rx="1.29" ry="1.29"/><rect class="cls-8" x="461.42" y="111.8" width="11.75" height="11.75" rx="1.29" ry="1.29"/><rect class="cls-8" x="481.07" y="75.1" width="11.75" height="11.75" rx="1.29" ry="1.29"/><rect class="cls-8" x="481.07" y="93.45" width="11.75" height="11.75" rx="1.29" ry="1.29"/><rect class="cls-8" x="481.07" y="111.8" width="11.75" height="11.75" rx="1.29" ry="1.29"/><path class="cls-6" d="M240.38 202.1h64.05v62.75h-64.05zm53.23 11.99h-43.65m43.65 13.25h-43.65m43.65 13.24h-43.65m43.65 13.24h-43.65"/><circle class="cls-27" cx="283.22" cy="253.62" r="3.72"/><circle class="cls-28" cx="274.47" cy="240.58" r="3.72"/><circle class="cls-29" cx="260.81" cy="227.34" r="3.72"/><circle class="cls-30" cx="283.22" cy="214.09" r="3.72"/><path class="cls-3" d="M149.87 284.47h154.01v51.02H149.87z"/><path class="cls-2" d="M168.47 295.61h4.26c3.43 0 5.8 2.35 5.8 5.42a5.46 5.46 0 0 1-5.8 5.45h-4.26v-10.87zm4.26 8.73a3.11 3.11 0 0 0 3.29-3.25 3.13 3.13 0 0 0-3.29-3.28h-1.86v6.57h1.86zm10.89-8.81h2.21l4.68 11H188l-1-2.44h-4.62l-1 2.44h-2.45zm2.53 6.41l-1.45-3.53-1.45 3.53h2.9zm7.18-4.12H190v-2.21h9v2.21h-3.32v8.68h-2.4v-8.68zm9.9-2.29h2.21l4.68 11h-2.51l-1-2.44H202l-1 2.44h-2.45zm2.53 6.41l-1.45-3.53-1.45 3.53h2.9zm9.97 2.98l1.42-1.7a5 5 0 0 0 3.26 1.32c1 0 1.58-.39 1.58-1s-.37-.92-2.2-1.39c-2.2-.56-3.62-1.17-3.62-3.33 0-2 1.59-3.28 3.82-3.28a6.33 6.33 0 0 1 4.05 1.39l-1.25 1.81a5.13 5.13 0 0 0-2.84-1.07c-.92 0-1.4.42-1.4.95 0 .72.47.95 2.35 1.43 2.21.58 3.46 1.37 3.46 3.27 0 2.16-1.65 3.38-4 3.38a7 7 0 0 1-4.63-1.78zm10.27-3.83a5.54 5.54 0 0 1 5.69-5.63 5.64 5.64 0 0 1 4.3 1.68l-1.53 1.76a4 4 0 0 0-2.79-1.23 3.23 3.23 0 0 0-3.17 3.39 3.24 3.24 0 0 0 3.17 3.42 3.94 3.94 0 0 0 2.87-1.28l1.53 1.54a5.58 5.58 0 0 1-4.48 1.95 5.5 5.5 0 0 1-5.59-5.6zm12.06-5.48h2.4v10.89h-2.4v-10.89zm5.13 0h8.23v2.13h-5.85V300h5.15v2.13h-5.15v2.29h5.93v2.13h-8.31v-10.94zm10.44 0h2.21l5.11 6.71v-6.71h2.37v10.89h-2l-5.32-6.92v6.93h-2.37v-10.9zm11.83 5.48a5.54 5.54 0 0 1 5.69-5.63 5.64 5.64 0 0 1 4.3 1.68l-1.53 1.76a4 4 0 0 0-2.79-1.23A3.23 3.23 0 0 0 268 301a3.24 3.24 0 0 0 3.17 3.42 3.94 3.94 0 0 0 2.87-1.28l1.53 1.54a5.58 5.58 0 0 1-4.48 1.95 5.5 5.5 0 0 1-5.63-5.54zm11.99-5.48h8.23v2.13h-5.85V300H285v2.13h-5.15v2.29h5.93v2.13h-8.31v-10.94zm-78.66 17.9h2.59l2.87 4.61 2.87-4.61h2.59v10.89h-2.39v-7.11l-3.07 4.65h-.06l-3-4.61v7.07h-2.35v-10.89zm17.27-.08h2.21l4.68 11h-2.51l-1-2.44h-4.62l-1 2.44h-2.45zm2.53 6.41l-1.45-3.53-1.45 3.53h2.9zm4.86-.84a5.6 5.6 0 0 1 5.72-5.63 6 6 0 0 1 4.29 1.49l-1.46 1.78a4 4 0 0 0-2.85-1.1 3.27 3.27 0 0 0-3.13 3.39 3.27 3.27 0 0 0 3.31 3.46 3.84 3.84 0 0 0 2.26-.65v-1.54h-2.42v-2.07h4.74v4.73a7.09 7.09 0 0 1-4.66 1.73 5.46 5.46 0 0 1-5.8-5.59zm12.81-5.49h2.4v10.89h-2.4v-10.89zm4.65 5.49a5.54 5.54 0 0 1 5.69-5.63 5.64 5.64 0 0 1 4.3 1.68l-1.53 1.76a4 4 0 0 0-2.79-1.23 3.23 3.23 0 0 0-3.17 3.39 3.24 3.24 0 0 0 3.17 3.42 3.94 3.94 0 0 0 2.87-1.28l1.53 1.54a5.58 5.58 0 0 1-4.48 1.95 5.5 5.5 0 0 1-5.59-5.6z"/><path class="cls-14" d="M154.41 292a1.54 1.54 0 0 0 0-3.07 1.54 1.54 0 0 0 0 3.07zm0 39a1.54 1.54 0 0 0 0-3.07 1.54 1.54 0 0 0 0 3.07zm143.02-39a1.54 1.54 0 0 0 0-3.07 1.54 1.54 0 0 0 0 3.07zm0 39a1.54 1.54 0 0 0 0-3.07 1.54 1.54 0 0 0 0 3.07z"/><path class="cls-6" d="M148.34 284.47h156.01v51.02H148.34z"/></svg>