<svg xmlns="http://www.w3.org/2000/svg" viewBox="0 0 539.01 418"><defs><style>.cls-1{fill:#f2f2f2}.cls-2{fill:#fff}.cls-3{fill:#e0e0e0}.cls-4{fill:#7d7d7d}.cls-5,.cls-7{fill:#b0e44f}.cls-6{fill:#b2b2b2}.cls-7,.cls-8{stroke:#b2b2b2;stroke-width:3px;stroke-miterlimit:10}.cls-8{fill:none;stroke:#e0e0e0;stroke-width:2.87px}.cls-9{fill:#79e6fd}.cls-10{fill:#b5f1fe}</style></defs><title>16-0412_HIW</title><path class="cls-1" d="M3.44 53.02h532.78v362.94H3.44z"/><rect class="cls-2" x="41.28" y="76.21" width="458.04" height="306.64" rx="2.15" ry="2.15"/><path class="cls-1" d="M386.94 304.46h23.51v23.51h-23.51z"/><circle class="cls-1" cx="399.09" cy="257.06" r="11.09"/><path class="cls-3" d="M204.73 191.64a.38.38 0 0 0 0-.76.38.38 0 0 0 0 .76zm3.96 0a.38.38 0 0 0 0-.76.38.38 0 0 0 0 .76zm.57 0a.38.38 0 0 0 0-.76.38.38 0 0 0 0 .76z"/><path class="cls-4" d="M92.26 248.17h2l1.74 5.72 1.89-5.75h1.59l1.89 5.75 1.75-5.72h1.94l-2.88 8.51h-1.62l-1.91-5.53-1.91 5.53h-1.59zm14.2 0h6.37v1.65h-4.53v1.71h4v1.65h-4V255h4.59v1.65h-6.43v-8.45zm8.09 0h3.92a3.05 3.05 0 0 1 2.21.75 1.94 1.94 0 0 1 .58 1.44 2 2 0 0 1-1.11 1.82 2.06 2.06 0 0 1 1.58 2.08c0 1.54-1.26 2.32-3.16 2.32h-4v-8.45zm3.52 3.42c.82 0 1.34-.27 1.34-.89a1 1 0 0 0-1.22-.87h-1.83v1.79h1.71zm.49 3.4c.82 0 1.32-.29 1.32-.92 0-.57-.42-.92-1.38-.92h-2.15V255h2.21zm8.33-6.82h3.3a4.21 4.21 0 0 1 4.49 4.2 4.23 4.23 0 0 1-4.49 4.22h-3.3v-8.45zm3.3 6.77a2.41 2.41 0 0 0 2.55-2.52 2.43 2.43 0 0 0-2.55-2.55h-1.44v5.09h1.44zm6.14-6.77h6.37v1.65h-4.53v1.71h4v1.65h-4V255h4.59v1.65h-6.43v-8.45zm7.37 0h2.05l2.21 6 2.21-6h2l-3.42 8.51h-1.64zm9.78 0h6.37v1.65h-4.53v1.71h4v1.65h-4V255h4.59v1.65h-6.43v-8.45zm8.08 0h1.86v6.76h4.21v1.69h-6.07v-8.45zm6.62 4.25a4.49 4.49 0 0 1 9 0 4.49 4.49 0 0 1-9 0zm7 0a2.57 2.57 0 0 0-2.56-2.66 2.53 2.53 0 0 0-2.53 2.63 2.57 2.57 0 0 0 2.56 2.66 2.53 2.53 0 0 0 2.57-2.63zm3.64-4.25h3.45c2 0 3.23 1.19 3.23 2.92 0 2-1.52 3-3.42 3h-1.41v2.53h-1.86v-8.45zm3.33 4.26a1.31 1.31 0 0 0 1.47-1.28 1.28 1.28 0 0 0-1.51-1.28h-1.44v2.58h1.47zm4.73-4.26h6.37v1.65h-4.53v1.71h4v1.65h-4V255h4.59v1.65h-6.43v-8.45zm8.12 0h3.86a3.37 3.37 0 0 1 2.46.86A2.65 2.65 0 0 1 202 251a2.62 2.62 0 0 1-1.81 2.62l2.06 3h-2.15l-1.81-2.7h-1.46v2.7H195v-8.45zm3.74 4.1a1.23 1.23 0 0 0 1.42-1.19 1.22 1.22 0 0 0-1.46-1.21h-1.85v2.43h1.88z"/><path class="cls-5" d="M129.59 277.84a5.61 5.61 0 0 1-2.85-1.19l.77-1.1a4.38 4.38 0 0 0 2.12 1v-2.37c-1.76-.46-2.58-1.12-2.58-2.47 0-1.3 1-2.18 2.53-2.31v-.7h1.05v.72a4.62 4.62 0 0 1 2.27.92l-.68 1.13a4.16 4.16 0 0 0-1.64-.77v2.3c1.83.46 2.62 1.19 2.62 2.49 0 1.32-1 2.2-2.57 2.33V279h-1.05v-1.21zm0-7.21a1.07 1.07 0 0 0-1.16 1c0 .49.23.82 1.16 1.1v-2.12zm2.15 5c0-.53-.25-.86-1.19-1.13v2.18a1.09 1.09 0 0 0 1.23-1.07zm2.68.89l1-1a2.76 2.76 0 0 0 2.22 1.11 1.32 1.32 0 0 0 1.46-1.28c0-.83-.76-1.3-1.94-1.3h-.66l-.24-.93 2.28-2.43h-3.66v-1.29h5.59v1.11l-2.35 2.41c1.28.17 2.49.81 2.49 2.38a2.7 2.7 0 0 1-3 2.67 4 4 0 0 1-3.19-1.45zm7.58-2.86c0-2.41 1.47-4.37 3.69-4.37s3.67 1.93 3.67 4.35c0 2.41-1.47 4.37-3.69 4.37s-3.67-1.93-3.67-4.35zm5.83 0c0-1.67-.86-3-2.16-3s-2.14 1.33-2.14 3 .84 3 2.16 3 2.19-1.33 2.19-3zm7-5.43h1.27l-5.46 11.18h-1.27zm2.06.82h1.46v3.43a2.29 2.29 0 0 1 2-1.12 2.19 2.19 0 0 1 2.27 2.45v4.06h-1.46v-3.62a1.34 1.34 0 0 0-1.36-1.56 1.42 1.42 0 0 0-1.44 1.58v3.6h-1.46v-8.81zm7.48 2.44h1.46v1.44a2.26 2.26 0 0 1 2.26-1.56v1.54H168c-1.28 0-2.17.83-2.17 2.52v2.43h-1.46v-6.37z"/><path class="cls-3" d="M153.71 191.64a.38.38 0 0 0 0-.76.38.38 0 0 0 0 .76zm0 0a.38.38 0 0 0 0-.76.38.38 0 0 0 0 .76zm0 33.73a.28.28 0 0 0 0-.55.28.28 0 0 0 0 .55z"/><path class="cls-6" d="M281.57 115.63h1.49l1.88 5.82 1.93-5.84H288l1.93 5.84 1.88-5.82h1.45l-2.74 7.91h-1.19l-1.93-5.64-1.93 5.64h-1.19zm12.36 3.95a4.11 4.11 0 0 1 8.22 0 4.11 4.11 0 0 1-8.22 0zm6.77 0a2.69 2.69 0 0 0-2.67-2.79 2.65 2.65 0 0 0-2.65 2.77 2.69 2.69 0 0 0 2.67 2.79 2.65 2.65 0 0 0 2.65-2.77zm3.12-3.95h3.5a3.17 3.17 0 0 1 2.27.79 2.37 2.37 0 0 1 .65 1.69 2.36 2.36 0 0 1-1.88 2.38l2.12 3h-1.63l-1.93-2.74h-1.72v2.74h-1.38v-7.85zm3.4 3.89a1.39 1.39 0 0 0 1.62-1.31c0-.84-.61-1.3-1.63-1.3h-2v2.64h2zm4.72-3.89h1.38v3.95l3.74-3.95h1.7l-3.27 3.37 3.41 4.47h-1.67l-2.69-3.47-1.22 1.26v2.28h-1.38v-7.85zm11.5 0h1.38v3.26h3.75v-3.26H330v7.85h-1.38v-3.31h-3.75v3.31h-1.38v-7.85zm8.62 0h1.38v7.85h-1.38v-7.85zm2.94 6.71l.83-1a3.62 3.62 0 0 0 2.48 1 1.16 1.16 0 0 0 1.39-1c0-.56-.31-.86-1.77-1.2-1.67-.4-2.62-.9-2.62-2.34a2.4 2.4 0 0 1 2.68-2.28 4.36 4.36 0 0 1 2.85 1l-.74 1a3.57 3.57 0 0 0-2.13-.81 1.09 1.09 0 0 0-1.28.93c0 .61.36.87 1.86 1.23 1.66.4 2.53 1 2.53 2.3 0 1.47-1.16 2.34-2.81 2.34a4.85 4.85 0 0 1-3.27-1.17zm9.49-5.43H342v-1.28h6.38v1.28h-2.49v6.57h-1.39v-6.57zm4.56 2.67a4.11 4.11 0 0 1 8.22 0 4.11 4.11 0 0 1-8.22 0zm6.77 0a2.69 2.69 0 0 0-2.67-2.79 2.65 2.65 0 0 0-2.65 2.77 2.69 2.69 0 0 0 2.67 2.79 2.65 2.65 0 0 0 2.65-2.77zm3.12-3.95h3.5a3.17 3.17 0 0 1 2.27.79 2.37 2.37 0 0 1 .65 1.69 2.36 2.36 0 0 1-1.88 2.38l2.12 3H364l-1.93-2.74h-1.73v2.74h-1.38v-7.85zm3.4 3.89a1.39 1.39 0 0 0 1.62-1.31c0-.84-.61-1.3-1.63-1.3h-2v2.64h2zm6.75.87l-3.09-4.76h1.63l2.2 3.48 2.22-3.48h1.58l-3.12 4.72v3.13h-1.39v-3.1zm-85.57 86.26h3.1c1.83 0 3 1 3 2.62 0 1.76-1.42 2.68-3.14 2.68h-1.58v2.52h-1.38v-7.85zm3 4.08a1.48 1.48 0 0 0 1.7-1.4 1.43 1.43 0 0 0-1.7-1.4h-1.62v2.83h1.61zm4.15-.13a4.11 4.11 0 0 1 8.22 0 4.11 4.11 0 0 1-8.22 0zm6.77 0a2.69 2.69 0 0 0-2.67-2.79 2.65 2.65 0 0 0-2.65 2.77 2.69 2.69 0 0 0 2.67 2.79 2.65 2.65 0 0 0 2.65-2.77zm3.12-3.95h3.5a3.17 3.17 0 0 1 2.27.78 2.37 2.37 0 0 1 .65 1.69 2.36 2.36 0 0 1-1.88 2.38l2.12 3h-1.62l-1.93-2.74h-1.73v2.74h-1.38v-7.85zm3.4 3.89a1.39 1.39 0 0 0 1.62-1.31c0-.84-.61-1.3-1.63-1.3h-2v2.64h2zm6.62-2.61h-2.49v-1.28h6.38v1.28H312v6.57h-1.39v-6.57zm5.34-1.28h5.85v1.26h-4.47v2.14h4v1.26h-4v3.2h-1.38v-7.85zm6.95 3.95a4.11 4.11 0 0 1 8.22 0 4.11 4.11 0 0 1-8.22 0zm6.77 0a2.69 2.69 0 0 0-2.67-2.79 2.65 2.65 0 0 0-2.65 2.77 2.69 2.69 0 0 0 2.67 2.79 2.65 2.65 0 0 0 2.65-2.77zm3.12-3.95h1.38v6.59h4.13v1.26h-5.51v-7.85zm7.03 0h1.38v7.85h-1.38v-7.85zm3.13 3.95a4.11 4.11 0 0 1 8.22 0 4.11 4.11 0 0 1-8.22 0zm6.77 0a2.69 2.69 0 0 0-2.67-2.79 2.65 2.65 0 0 0-2.65 2.77 2.69 2.69 0 0 0 2.67 2.79 2.65 2.65 0 0 0 2.65-2.77z"/><path class="cls-5" d="M287.78 138.48l1.56 4.81h5.05l-4.08 3.35 1.56 5-4.09-2.87-4.09 3.02 1.56-5.17-4.09-3.33h5.06l1.56-4.81zm16.43 0l1.56 4.81h5.06l-4.09 3.35 1.56 5-4.09-2.87-4.09 3.02 1.56-5.17-4.08-3.33h5.05l1.56-4.81zm16.43 0l1.57 4.81h5.05l-4.09 3.35 1.56 5-4.09-2.87-4.08 3.02 1.56-5.17-4.09-3.33h5.05l1.56-4.81zm16.44 0l1.56 4.81h5.05l-4.09 3.35 1.57 5-4.09-2.87-4.09 3.02 1.56-5.17-4.09-3.33h5.05l1.57-4.81zm16.43 0l1.56 4.81h5.06l-4.09 3.35 1.56 5-4.09-2.87-4.09 3.02 1.56-5.17-4.09-3.33h5.06l1.56-4.81z"/><path class="cls-6" d="M282.05 170.29a4.51 4.51 0 0 1 4.46-4.42 3 3 0 0 1 2.74 1.32l-.62.49a2.42 2.42 0 0 0-2.19-1.07 3.66 3.66 0 0 0-3.52 3.64 2.23 2.23 0 0 0 2.4 2.36 3.5 3.5 0 0 0 1.88-.51l.57-2h-2.19l.2-.73h3l-.92 3.25a4.69 4.69 0 0 1-2.58.76 3 3 0 0 1-3.23-3.09zm8.95-2.4h.8l-.36 1.4a2.92 2.92 0 0 1 2.56-1.49l-.23.86h-.07a3 3 0 0 0-2.77 2.47l-.57 2.11h-.8zm3.73 3.17a1.51 1.51 0 0 0 1.62 1.61A2.43 2.43 0 0 0 298 172l.41.53a3.08 3.08 0 0 1-2.1.8 2.2 2.2 0 0 1-2.37-2.28 3.3 3.3 0 0 1 3.12-3.31 1.94 1.94 0 0 1 2.07 2 3 3 0 0 1-.2 1h-4.19a1.12 1.12 0 0 0-.01.32zm3.57-.83a1.93 1.93 0 0 0 0-.4 1.26 1.26 0 0 0-1.34-1.38 2.33 2.33 0 0 0-2.16 1.78h3.45zm1.54 1.64c0-1.2 1-1.93 2.38-1.93a7 7 0 0 1 1.9.29v-.13a2.6 2.6 0 0 0 .06-.49c0-.68-.48-1.08-1.44-1.08a4.19 4.19 0 0 0-1.51.28l-.15-.67a4.76 4.76 0 0 1 1.78-.33c1.35 0 2.1.63 2.1 1.67a3.21 3.21 0 0 1-.1.73l-.81 3h-.79l.22-.84a2.57 2.57 0 0 1-2 1 1.53 1.53 0 0 1-1.64-1.5zm4-.73l.1-.37a6.78 6.78 0 0 0-1.73-.24 1.39 1.39 0 0 0-1.6 1.25 1 1 0 0 0 1.13.94 2.23 2.23 0 0 0 2.14-1.58zm2.61 1.14a2.42 2.42 0 0 1 .07-.56l.84-3.12h-.74l.19-.7h.75l.44-1.61h.79l-.44 1.61H310l-.19.7h-1.69l-.83 3.08a2.67 2.67 0 0 0 0 .39.59.59 0 0 0 .74.55 2.1 2.1 0 0 0 .78-.17l-.2.72a2.14 2.14 0 0 1-.85.16 1.11 1.11 0 0 1-1.31-1.05zm5.45 2.55l.19-.67a1.68 1.68 0 0 0 .46.07.81.81 0 0 0 .77-.72l1.51-5.62h.8l-1.53 5.7a1.54 1.54 0 0 1-1.47 1.33 2.34 2.34 0 0 1-.73-.09zm3.42-9h.91l-.24.88h-.91zm1.15 5.17a3.25 3.25 0 0 1 3.15-3.19 2.31 2.31 0 0 1 2.45 2.39 3.26 3.26 0 0 1-3.16 3.2 2.31 2.31 0 0 1-2.44-2.4zm4.78-.77a1.58 1.58 0 0 0-1.68-1.72 2.48 2.48 0 0 0-2.29 2.46 1.57 1.57 0 0 0 1.68 1.71 2.47 2.47 0 0 0 2.29-2.48zM324 172l-.32 1.2h-.8l2-7.55h.8l-.85 3.12a2.7 2.7 0 0 1 2-1A2.11 2.11 0 0 1 329 170a3.2 3.2 0 0 1-3 3.32 2.06 2.06 0 0 1-2-1.32zm4.18-1.92a1.49 1.49 0 0 0-1.51-1.63 2.6 2.6 0 0 0-2.38 2.51 1.61 1.61 0 0 0 1.66 1.67 2.41 2.41 0 0 0 2.2-2.52zm1.93 2.07h1l-.29 1.09h-1zm1.5-5.57l.17-.59h.93l-.16.59-1.48 4.6h-.46zm5.55-.58h.84l.89 6.23 4.24-6.23h.93l-5.06 7.29h-.7zm6.68 5.06a1.51 1.51 0 0 0 1.62 1.61 2.43 2.43 0 0 0 1.65-.63l.41.53a3.08 3.08 0 0 1-2.1.8 2.2 2.2 0 0 1-2.37-2.28 3.3 3.3 0 0 1 3.12-3.31 1.94 1.94 0 0 1 2.07 2 3 3 0 0 1-.2 1h-4.19a1.12 1.12 0 0 0-.01.28zm3.57-.83a1.93 1.93 0 0 0 0-.4 1.26 1.26 0 0 0-1.34-1.38 2.33 2.33 0 0 0-2.16 1.78h3.45zm2.95-2.34h.8l-.36 1.4a2.92 2.92 0 0 1 2.55-1.49l-.23.86h-.05a3 3 0 0 0-2.77 2.47l-.57 2.11h-.8zm1.89 6.66l.44-.6a1.51 1.51 0 0 0 .82.27 1.76 1.76 0 0 0 1.4-1l-1-5.34h.83l.75 4.46 2.88-4.46h.9l-3.67 5.52c-.76 1.11-1.4 1.51-2.2 1.51a2 2 0 0 1-1.15-.36zm11.64-6.66h.8l-.25.92a2.7 2.7 0 0 1 2-1 2.11 2.11 0 0 1 2.16 2.19 3.2 3.2 0 0 1-3 3.32 2.06 2.06 0 0 1-2-1.32l-.77 2.86H362zm3.86 2.22a1.49 1.49 0 0 0-1.51-1.63 2.6 2.6 0 0 0-2.38 2.51 1.61 1.61 0 0 0 1.66 1.67 2.41 2.41 0 0 0 2.24-2.55zm3.08-2.22h.8l-.36 1.4a2.92 2.92 0 0 1 2.55-1.49l-.23.86h-.05a3 3 0 0 0-2.77 2.47l-.57 2.11h-.8zm2.94 3.11a3.25 3.25 0 0 1 3.15-3.19 2.31 2.31 0 0 1 2.45 2.39 3.26 3.26 0 0 1-3.16 3.2 2.31 2.31 0 0 1-2.44-2.4zm4.78-.77a1.58 1.58 0 0 0-1.68-1.72 2.48 2.48 0 0 0-2.29 2.46 1.57 1.57 0 0 0 1.68 1.71 2.47 2.47 0 0 0 2.29-2.48zm3.16-1.64H381l.19-.7h.74l.18-.64a1.81 1.81 0 0 1 1.83-1.58 2.36 2.36 0 0 1 1.07.23l-.19.68a2 2 0 0 0-.88-.22 1.12 1.12 0 0 0-1.08 1l-.13.52h1.75l-.2.7h-1.74l-1.25 4.65h-.8zm3.45 2.47a1.51 1.51 0 0 0 1.62 1.61 2.43 2.43 0 0 0 1.65-.63l.41.53a3.08 3.08 0 0 1-2.1.8 2.2 2.2 0 0 1-2.37-2.28 3.3 3.3 0 0 1 3.12-3.31 1.94 1.94 0 0 1 2.07 2 3 3 0 0 1-.2 1h-4.19a1.12 1.12 0 0 0-.01.28zm3.57-.83a1.93 1.93 0 0 0 0-.4 1.26 1.26 0 0 0-1.34-1.38 2.33 2.33 0 0 0-2.16 1.78h3.45zm1.27 2.19l.52-.52a2.63 2.63 0 0 0 1.86.79 1.06 1.06 0 0 0 1.18-.89c0-.35-.24-.61-1-.91-1-.37-1.51-.72-1.51-1.47a1.79 1.79 0 0 1 2-1.64 3.19 3.19 0 0 1 2 .73l-.47.55a2.57 2.57 0 0 0-1.59-.62 1 1 0 0 0-1.16.85c0 .35.22.58 1.07.91s1.46.78 1.46 1.47a1.85 1.85 0 0 1-2.05 1.69 3.29 3.29 0 0 1-2.31-.94zm5.15 0l.52-.52a2.63 2.63 0 0 0 1.86.79 1.06 1.06 0 0 0 1.18-.89c0-.35-.24-.61-1-.91-1-.37-1.51-.72-1.51-1.47a1.79 1.79 0 0 1 2-1.64 3.19 3.19 0 0 1 2 .73l-.47.55a2.57 2.57 0 0 0-1.59-.62 1 1 0 0 0-1.16.85c0 .35.22.58 1.07.91s1.46.78 1.46 1.47a1.85 1.85 0 0 1-2.05 1.69 3.29 3.29 0 0 1-2.31-.94zm6.99-4.53h.8l-1.44 5.35h-.8zm.5-2h.91l-.24.88h-.91zm1.16 5.11a3.25 3.25 0 0 1 3.15-3.19 2.31 2.31 0 0 1 2.45 2.39 3.26 3.26 0 0 1-3.16 3.2 2.31 2.31 0 0 1-2.44-2.4zm4.78-.77a1.58 1.58 0 0 0-1.68-1.72 2.48 2.48 0 0 0-2.29 2.46 1.57 1.57 0 0 0 1.68 1.71 2.47 2.47 0 0 0 2.29-2.48zm3.04-2.34h.8l-.23.87a2.44 2.44 0 0 1 1.86-1 1.57 1.57 0 0 1 1.71 1.66 3.53 3.53 0 0 1-.13.83l-.79 3H414l.81-3a2.39 2.39 0 0 0 .08-.6 1.07 1.07 0 0 0-1.2-1.12 2.2 2.2 0 0 0-1.94 1.73l-.81 3h-.8zm5.04 3.98c0-1.2 1-1.93 2.38-1.93a7 7 0 0 1 1.9.29v-.13a2.61 2.61 0 0 0 .06-.49c0-.68-.48-1.08-1.44-1.08a4.19 4.19 0 0 0-1.51.28l-.15-.67a4.76 4.76 0 0 1 1.78-.33c1.35 0 2.1.63 2.1 1.67a3.21 3.21 0 0 1-.1.73l-.81 3h-.79l.22-.84a2.57 2.57 0 0 1-2 1 1.53 1.53 0 0 1-1.64-1.5zm4-.73l.1-.37a6.78 6.78 0 0 0-1.73-.24 1.39 1.39 0 0 0-1.6 1.25 1 1 0 0 0 1.13.94 2.23 2.23 0 0 0 2.14-1.58zm4.16-5.45h.8l-2 7.55h-.8zm.98 6.46h.94l-.29 1.09h-1z"/><path class="cls-3" d="M281.16 230.97h81.46v52.17h-81.46zm0 59.82h81.46v52.17h-81.46zm88.82-59.82h81.46v52.17h-81.46zm0 59.82h81.46v52.17h-81.46z"/><circle class="cls-1" cx="305.81" cy="257.06" r="11.09"/><path class="cls-1" d="M323.55 267.77l12.37-21.43 12.37 21.43h-24.74z"/><circle class="cls-1" cx="422.94" cy="257.06" r="11.09"/><path class="cls-1" d="M-380.05-245.3h-23.51v-23.51h23.51zm673.49 572.89l12.37-21.43 12.37 21.43h-24.74zm30.11 0l12.37-21.43 12.37 21.43h-24.74zm87.02 0l12.37-21.43 12.38 21.43h-24.75z"/><circle class="cls-1" cx="391.8" cy="316.88" r="11.09"/><rect class="cls-7" x="100.26" y="312.79" width="93" height="29" rx=".7" ry=".7"/><path class="cls-2" d="M135.75 330.95v-9h1.86v3.42h3.49V322h1.9v9h-1.86v-4h-3.49v4h-1.86zm10.77-7.42h-1.76v-1.6h1.76v1.6zm-1.76.79h1.76v6.63h-1.76v-6.63zm7.24-.16h.15v1.78h-.5a1.44 1.44 0 0 0-1.41.68 2.65 2.65 0 0 0-.2 1.18v3.17h-1.75v-6.63H150v1.16a3.67 3.67 0 0 1 .7-.91 1.9 1.9 0 0 1 1.27-.41h.03zm5.62.29a2.69 2.69 0 0 1 1.15 1 3.26 3.26 0 0 1 .53 1.37 8.48 8.48 0 0 1 .06 1.32h-4.83a1.59 1.59 0 0 0 .69 1.4 1.76 1.76 0 0 0 1 .25 1.35 1.35 0 0 0 1.32-.76h1.77a2.16 2.16 0 0 1-.64 1.2 3.22 3.22 0 0 1-2.49 1 3.61 3.61 0 0 1-2.34-.82 3.21 3.21 0 0 1-1-2.65 3.59 3.59 0 0 1 .91-2.64 3.2 3.2 0 0 1 2.37-.92 3.77 3.77 0 0 1 1.5.25zm-2.59 1.5a1.8 1.8 0 0 0-.46 1h3a1.45 1.45 0 0 0-.46-1 1.52 1.52 0 0 0-1-.36 1.37 1.37 0 0 0-1.11.36z"/><path class="cls-4" d="M153.68 345.13a2.62 2.62 0 0 1 3.16 2.49 31.89 31.89 0 0 1 0 12.55c-.27 1.17-.5 2.35-.75 3.53a13.18 13.18 0 0 1-5 .37c-1.25 0-2.5-.23-3.75-.3a2.8 2.8 0 0 1-2.62-2 13.34 13.34 0 0 0-1.68-2.8c-1.61-2.17-3.28-4.28-4.92-6.43a6.77 6.77 0 0 1-.69-1 2.37 2.37 0 0 1 .32-2.94 2.62 2.62 0 0 1 3.25-.41c.16.09.31.19.6.39a9.38 9.38 0 0 0 0-.95c-.42-2.9-.9-5.79-1.29-8.69a2.67 2.67 0 0 1 3.61-3 2.82 2.82 0 0 1 1.73 2.37c.22 1.08.31 2.19.45 3.27.07.44.15.89.21 1.31 2.15.31 2.15.31 3.1 1.26 1.37-.4 2.74-.42 3.68 1zm1.73 2.89c-.12-1-.69-1.45-1.87-1.49.08.68.16 1.35.23 2 .14 1.17.05 1.24-1.33 1.16-.06-.38-.13-.78-.2-1.19a18.36 18.36 0 0 0-.35-2 1.44 1.44 0 0 0-2-1c.12 1 .23 2 .35 3.11l-1.4.25c-.18-1.09-.32-2.07-.51-3s-.56-1.27-1.73-1.4c.16 1.43.33 2.84.52 4.35l-1.35.3c-.09-.5-.16-.8-.2-1.1-.46-3-.91-6-1.4-9a2.78 2.78 0 0 0-.6-1.43 1.56 1.56 0 0 0-1.29-.33 1.35 1.35 0 0 0-.45 1.1c.08 1.16.27 2.33.45 3.5.51 3.46 1.05 6.91 1.57 10.36.06.41.38.91-.38 1.15-.93-1.11-1.87-2.25-2.83-3.37a3 3 0 0 0-1-.77.69.69 0 0 0-1.05.79 4.52 4.52 0 0 0 .79 1.72c1 1.36 2.05 2.63 3 4 1.38 1.89 3.12 3.53 3.91 5.84a1.5 1.5 0 0 0 1.13.76c2.5.1 5 .1 7.66.13.21-1.36.33-2.67.62-4 .83-3.53.12-6.98-.29-10.46z"/><path class="cls-2" d="M153.54 346.52c1.18 0 1.75.45 1.87 1.49.41 3.46 1.12 6.91.35 10.42-.29 1.28-.41 2.59-.62 4-2.66 0-5.16 0-7.66-.13a1.5 1.5 0 0 1-1.13-.76c-.79-2.31-2.52-4-3.91-5.84-1-1.35-2.07-2.62-3-4a4.52 4.52 0 0 1-.79-1.72.69.69 0 0 1 1.05-.79 3 3 0 0 1 1 .77c1 1.12 1.89 2.26 2.83 3.37.75-.24.44-.75.38-1.15-.51-3.46-1.05-6.91-1.57-10.36-.18-1.16-.36-2.33-.45-3.5a1.35 1.35 0 0 1 .45-1.1 1.56 1.56 0 0 1 1.29.33 2.78 2.78 0 0 1 .6 1.43c.49 3 .93 6 1.4 9 0 .3.1.6.2 1.1l1.35-.3c-.19-1.51-.36-2.91-.52-4.35 1.17.13 1.53.41 1.73 1.4s.33 1.94.51 3l1.4-.25c-.12-1.11-.23-2.12-.35-3.11a1.44 1.44 0 0 1 2 1 18.36 18.36 0 0 1 .35 2c.07.4.14.8.2 1.19 1.39.08 1.47 0 1.33-1.16-.13-.63-.21-1.3-.29-1.98z"/><rect class="cls-8" x="3.44" y="3.44" width="532.78" height="412.52" rx="3.83" ry="3.83"/><circle class="cls-8" cx="35.34" cy="26.66" r="4.58"/><circle class="cls-8" cx="51.38" cy="26.66" r="4.58"/><circle class="cls-8" cx="67.43" cy="26.66" r="4.58"/><circle class="cls-9" cx="147.29" cy="162.82" r="52.7"/><rect class="cls-10" x="126.93" y="134.46" width="40.73" height="47.45" rx="20.37" ry="20.37"/><path class="cls-10" d="M140.1 178.55h12.81v12.81H140.1zm6.51 5.87a34.21 34.21 0 0 0-31.23 20.27 52.43 52.43 0 0 0 62.81.76 34.23 34.23 0 0 0-31.58-21.03z"/></svg>