<svg id="Layer_1" xmlns="http://www.w3.org/2000/svg" viewBox="7 -8 30 30"><style>.st0{fill:#b2b2b2}.st1{enable-background:new}.st2{fill:#7d7d7d}</style><circle class="st0" cx="22" cy="7" r="15"/><g class="st1"><path class="st2" d="M29.2 13.9c-.2.8-.8 1.4-1.6 1.5-1.8.2-3.7.2-5.6.2s-3.7 0-5.6-.2c-.8-.1-1.4-.7-1.6-1.5-.3-1.1-.3-2.4-.3-3.5 0-1.2 0-2.4.3-3.5.2-.8.8-1.4 1.6-1.5 1.8-.2 3.7-.2 5.6-.2s3.7 0 5.6.2c.8.1 1.4.7 1.6 1.5.3 1.1.3 2.3.3 3.5-.1 1.1-.1 2.4-.3 3.5zm-10.4-6v-1h-3.1v.9h1.1v5.7h1V7.9h1zm1.6-10.3l-1.2 4v2.7h-1V1.6c-.1-.5-.3-1.2-.6-2.1-.2-.6-.4-1.3-.7-1.9H18l.7 2.6.7-2.6h1zm1.1 16v-5h-.9v3.8c-.2.3-.4.4-.6.4-.1 0-.2-.1-.2-.2v-4h-.9v3.9c0 .4 0 .6.1.7.1.3.3.4.6.4s.7-.2 1-.6v.5h.9zm1.6-10.9c0 .5-.1.9-.3 1.2-.3.3-.6.5-1.1.5-.5 0-.8-.2-1.1-.5-.2-.3-.3-.7-.3-1.2V.9c0-.5.1-.9.3-1.2.3-.3.6-.5 1.1-.5.5 0 .8.2 1.1.5.2.3.3.7.3 1.2v1.8zm-.9-2c0-.5-.1-.7-.4-.7-.3 0-.4.2-.4.7v2.1c0 .5.1.7.4.7.3 0 .4-.2.4-.7V.7zm2.7 9.4c0-.5 0-.8-.1-1-.1-.4-.4-.6-.7-.6-.3 0-.6.2-.9.5V6.9h-.9v6.7h.9v-.5c.3.4.6.6.9.6.4 0 .6-.2.7-.6.1-.2.1-.5.1-1v-2zm-.9 2.1c0 .5-.1.7-.4.7-.2 0-.3-.1-.5-.2v-3c.2-.2.3-.2.5-.2.3 0 .4.2.4.7v2zm2.5-7.9h-.9v-.5c-.4.4-.7.6-1 .6-.3 0-.6-.1-.6-.4-.1-.2-.1-.4-.1-.8v-4h.9v4.2c0 .1.1.2.2.2.2 0 .4-.1.6-.4V-.6h.9v4.9zm1.8 7.6h-.9v.6c0 .2-.2.4-.4.4-.3 0-.5-.2-.5-.7v-.9h1.8v-1c0-.5-.1-.9-.3-1.2-.3-.3-.6-.5-1.1-.5-.5 0-.8.2-1.1.5-.2.3-.3.6-.3 1.2V12c0 .5.1.9.3 1.2.3.3.6.5 1.1.5.5 0 .8-.2 1.1-.5.1-.2.2-.3.2-.5v-.8zm-.9-1.4h-.9V10c0-.5.2-.7.5-.7s.5.2.5.7v.5z"/></g></svg>