<svg id="Layer_1" xmlns="http://www.w3.org/2000/svg" viewBox="7 -8 30 30"><style>.st0{fill:#b2b2b2}.st1{enable-background:new}.st2{fill:#7d7d7d}</style><circle class="st0" cx="22" cy="7" r="15"/><g class="st1"><path class="st2" d="M20.5 13.8c-3.4 0-6.1-2.7-6.1-6.1s2.7-6.1 6.1-6.1c1.7 0 3 .6 4.1 1.6l-1.7 1.6c-.5-.4-1.2-.9-2.4-.9-2.1 0-3.8 1.7-3.8 3.9s1.7 3.9 3.8 3.9c2.4 0 3.3-1.8 3.5-2.6h-3.5V6.8h5.8c.1.3.1.6.1 1 0 3.5-2.4 6-5.9 6zm13.2-5.3h-1.8v1.8h-1.8V8.5h-1.8V6.8h1.8V5h1.8v1.8h1.8v1.7z"/></g></svg>