<svg id="Layer_1" xmlns="http://www.w3.org/2000/svg" viewBox="7 -8 30 30"><style>.st0{fill:#b2b2b2}.st1{fill:#7d7d7d}</style><circle class="st0" cx="22" cy="7" r="15"/><path class="st1" d="M19.9 2.1c-.2 0-.4-.2-.4-.4s.2-.4.4-.4.4.2.4.4c0 .3-.2.4-.4.4zm4.2 0c-.2 0-.4-.2-.4-.4s.2-.4.4-.4.4.2.4.4c0 .3-.1.4-.4.4zM16 4c-.6 0-1 .5-1 1v4.3c0 .6.5 1 1 1 .6 0 1-.5 1-1V5c0-.5-.5-1-1-1zm10.6.2h-9.2v6.7c0 .6.5 1.1 1.1 1.1h.7v2.3c0 .6.5 1 1 1 .6 0 1-.5 1-1V12h1.4v2.3c0 .6.5 1 1 1 .6 0 1-.5 1-1V12h.8c.6 0 1.1-.5 1.1-1.1V4.2zM24.3.1l.7-1.3v-.2c-.1 0-.2 0-.2.1L24 0c-.6-.3-1.3-.4-2-.4s-1.4.1-2 .4l-.7-1.3c0-.1-.1-.1-.2-.1s-.1.1-.1.2l.7 1.3c-1.4.7-2.4 2.1-2.4 3.7h9.3c.1-1.6-.9-3-2.3-3.7zM29.1 5c0-.6-.5-1-1-1-.6 0-1 .5-1 1v4.3c0 .6.5 1 1 1 .6 0 1-.5 1-1V5z"/></svg>