<svg id="Layer_1" xmlns="http://www.w3.org/2000/svg" viewBox="7 -8 30 30"><style>.st0{fill:#b2b2b2}.st1{enable-background:new}.st2{fill:#7d7d7d}</style><circle class="st0" cx="22" cy="7" r="15"/><g class="st1"><path class="st2" d="M27.8 12.3c-.9 1.3-1.7 2-2.6 2-.3 0-.8-.1-1.4-.3-.6-.2-1.1-.3-1.5-.3-.4 0-.9.1-1.4.3-.6.2-1 .3-1.3.3-1 0-2-.9-3-2.6-1-1.7-1.5-3.4-1.5-5 0-1.5.4-2.8 1.1-3.8.8-1 1.7-1.4 2.9-1.4.5 0 1.1.1 1.8.3.6.1 1 .2 1.2.2.3 0 .8-.1 1.4-.3.7-.2 1.2-.3 1.7-.3.8 0 1.5.2 2.1.7.4.2.7.6 1 1-.5.4-.9.8-1.1 1.2-.4.6-.7 1.3-.7 2.1s.2 1.6.7 2.2c.5.7 1 1.1 1.6 1.3-.1.7-.5 1.5-1 2.4zM24.9-.6c-.2.5-.5 1-.9 1.4-.4.4-.7.6-1.1.7-.2.1-.6.1-1 .2 0-1 .3-1.9.8-2.6.5-.7 1.3-1.2 2.5-1.5 0 .1 0 .2.1.2v.2c-.1.4-.2.9-.4 1.4z"/></g></svg>