<svg id="_1_2_Illustrations" data-name="1/2 Illustrations" xmlns="http://www.w3.org/2000/svg" viewBox="0 0 493 405"><defs><style>.cls-1,.cls-22,.cls-24,.cls-4,.cls-5,.cls-8,.cls-9{fill:none}.cls-2{fill:#9dedff}.cls-3{fill:#00e6ff}.cls-24,.cls-4,.cls-5{stroke:#f2f2f2}.cls-10,.cls-11,.cls-14,.cls-15,.cls-16,.cls-19,.cls-21,.cls-22,.cls-24,.cls-4,.cls-5,.cls-7,.cls-8,.cls-9{stroke-linecap:round}.cls-10,.cls-11,.cls-14,.cls-15,.cls-16,.cls-19,.cls-21,.cls-22,.cls-4,.cls-5,.cls-7,.cls-8,.cls-9{stroke-linejoin:round}.cls-4{stroke-width:3px}.cls-5{stroke-width:3.25px}.cls-16,.cls-6{fill:#ccc}.cls-7{fill:#b0e650}.cls-10,.cls-16,.cls-19,.cls-7,.cls-8{stroke:#7d7d7d}.cls-10,.cls-16,.cls-19,.cls-21,.cls-22,.cls-24,.cls-7,.cls-8,.cls-9{stroke-width:3.5px}.cls-11,.cls-14,.cls-15,.cls-9{stroke:#909090}.cls-10,.cls-18,.cls-21{fill:#f2f2f2}.cls-11{fill:#c8ec84}.cls-11,.cls-14,.cls-15{stroke-width:3.75px}.cls-12{fill:#6fda44}.cls-13{fill:#9ae57c}.cls-14{fill:#b7eca1}.cls-15{fill:#93e373}.cls-17{fill:#bebebe}.cls-19{fill:url(#Plaid_3_Color_2)}.cls-20{fill:#7d7d7d}.cls-21,.cls-22{stroke:#b2b2b2}.cls-23{fill:#b0e44f}.cls-24{stroke-miterlimit:10}.cls-25{font-size:12px;fill:#b2b2b2;font-family:Gotham;font-weight:700}</style><pattern id="Plaid_3_Color_2" data-name="Plaid 3 Color 2" width="72" height="72" patternTransform="matrix(1 0 0 -1 504.82 914.62)" patternUnits="userSpaceOnUse" viewBox="0 0 72 72"><path class="cls-1" d="M0 0h72v72H0z"/><path class="cls-1" d="M0 0h72v72H0z"/><path class="cls-2" d="M69-4h78v8H69z"/><path class="cls-2" d="M68-75h8V3h-8z"/><path class="cls-3" d="M68-4h8v8h-8z"/><path class="cls-2" d="M-3-4h78v8H-3z"/><path class="cls-2" d="M32-75h8V3h-8zm18 0h8V3h-8zm18 0h8V3h-8zm-54 0h8V3h-8zm-18 0h8V3h-8z"/><path class="cls-3" d="M-4-4h8v8h-8zm18 0h8v8h-8zm18 0h8v8h-8zm18 0h8v8h-8zm18 0h8v8h-8z"/><path class="cls-2" d="M-75-4H3v8h-78z"/><path class="cls-2" d="M-4-75h8V3h-8z"/><path class="cls-3" d="M-4-4h8v8h-8z"/><path class="cls-2" d="M69 32h78v8H69zm0 18h78v8H69zm0 18h78v8H69zm0-54h78v8H69zm0-18h78v8H69z"/><path class="cls-2" d="M68-3h8v78h-8z"/><path class="cls-3" d="M68 68h8v8h-8zm0-18h8v8h-8zm0-18h8v8h-8zm0-18h8v8h-8zm0-18h8v8h-8z"/><path class="cls-2" d="M-3 32h78v8H-3zm0 18h78v8H-3zm0 18h78v8H-3zm0-54h78v8H-3zm0-18h78v8H-3z"/><path class="cls-2" d="M32-3h8v78h-8zm18 0h8v78h-8zm18 0h8v78h-8zM14-3h8v78h-8zM-4-3h8v78h-8z"/><path class="cls-3" d="M-4 68h8v8h-8zm18 0h8v8h-8zm18 0h8v8h-8zm18 0h8v8h-8zm18 0h8v8h-8zM-4 50h8v8h-8zm18 0h8v8h-8zm18 0h8v8h-8zm18 0h8v8h-8zm18 0h8v8h-8zM-4 32h8v8h-8zm18 0h8v8h-8zm18 0h8v8h-8zm18 0h8v8h-8zm18 0h8v8h-8zM-4 14h8v8h-8zm18 0h8v8h-8zm18 0h8v8h-8zm18 0h8v8h-8zm18 0h8v8h-8zM-4-4h8v8h-8zm18 0h8v8h-8zm18 0h8v8h-8zm18 0h8v8h-8zm18 0h8v8h-8z"/><path class="cls-2" d="M-75 32H3v8h-78zm0 18H3v8h-78zm0 18H3v8h-78zm0-54H3v8h-78zm0-18H3v8h-78z"/><path class="cls-2" d="M-4-3h8v78h-8z"/><path class="cls-3" d="M-4 68h8v8h-8zm0-18h8v8h-8zm0-18h8v8h-8zm0-18h8v8h-8zm0-18h8v8h-8z"/><path class="cls-2" d="M69 68h78v8H69z"/><path class="cls-2" d="M68 69h8v78h-8z"/><path class="cls-3" d="M68 68h8v8h-8z"/><path class="cls-2" d="M-3 68h78v8H-3z"/><path class="cls-2" d="M32 69h8v78h-8zm18 0h8v78h-8zm18 0h8v78h-8zm-54 0h8v78h-8zm-18 0h8v78h-8z"/><path class="cls-3" d="M-4 68h8v8h-8zm18 0h8v8h-8zm18 0h8v8h-8zm18 0h8v8h-8zm18 0h8v8h-8z"/><path class="cls-2" d="M-75 68H3v8h-78z"/><path class="cls-2" d="M-4 69h8v78h-8z"/><path class="cls-3" d="M-4 68h8v8h-8z"/></pattern></defs><title>0718_Illustration_Master</title><path class="cls-4" d="M247.5 398.86c-102.09.08-185-82.75-185-184.84"/><path class="cls-5" d="M295.56 34.82A185.33 185.33 0 0 1 431 240.17"/><path class="cls-6" d="M435.55 386.43l-.28-14.71c-.35-.93 2-48.72 1-48.72h-6.83a7.21 7.21 0 0 1-5.17-2.08l-17.79-17.69a14.41 14.41 0 0 0-10.15-4.23h-35.08a2.44 2.44 0 0 0-2 1.22c-.17.27-5.2 1.5 2.18 8.87 5.76 5.76 19.52 4.85 25.64 4.1l7 8.7-72 .33c-5.59 0-12.42 2.41-12.42 8 0 2 2.85 5.77 3.82 7.77h-2.11c-5.59 0-13.44 2.77-13.44 8.36 0 3.94 3.9 5.63 7.18 7.31-1.47 1.76-4 7.16-4 9.63 0 5.59 7.84 6.7 13.44 6.7h7.57c-1 2-3.24 6.94-3.24 8.94 0 5.59 4.55 7.06 10.15 7.06h8.54l98 .49"/><path class="cls-7" d="M484.15 387.2a3.88 3.88 0 0 0 3.85-4.09v-58.39a3.65 3.65 0 0 0-3.93-3.72H454v66.26z"/><path class="cls-8" d="M346 338h-40a8 8 0 0 0-8 8 8 8 0 0 0 8 8h59m-16 0h-39.75a8 8 0 0 0-8 8 8 8 0 0 0 8 8H368m-3-32h-48a8.06 8.06 0 0 1-8-8.07 8 8 0 0 1 8-8l74.41-.29M357 370h-29.68a8 8 0 0 0-8 8 8 8 0 0 0 8 8l107.61.34"/><path class="cls-9" d="M391.47 350.46a18 18 0 0 1 .07-25.4l2.62-2.62-7.13-8.88a1.66 1.66 0 0 0-1.4-.48c-3.73.48-19.36 2.16-24.94-3.42-6.35-6.35-3.12-11.62-3.12-11.62h36.32a12.42 12.42 0 0 1 8.77 3.57L421.11 320a10.15 10.15 0 0 0 7.1 3H435"/><path class="cls-10" d="M454 322v69h-19v-75h19v69"/><path class="cls-11" transform="rotate(-10.13 357.24 329.59)" d="M329.56 262.66h55.31v133.87h-55.31z"/><path class="cls-12" d="M380 325.67v-.08a22.9 22.9 0 0 0-45 8.41v.08a22.93 22.93 0 0 0 26.65 18.14A23.1 23.1 0 0 0 380 325.67z"/><path class="cls-13" d="M349.56 340.61l-1-5.54a1.2 1.2 0 0 1 1-1.39l2.44-.46c1.85 3.31 6.16 5.2 10.74 4.33 5.52-1 9.28-5.65 8.4-10.3s-6.06-7.56-11.58-6.52c-4.55.86-7.86 4.15-8.4 7.88l-2.46.47a1.2 1.2 0 0 1-1.39-1l-1.1-5.83a5.76 5.76 0 0 0-6.73-4.59L338 318a22.57 22.57 0 0 0-3 16v.08a22.63 22.63 0 0 0 8.28 13.61l1.71-.32a5.76 5.76 0 0 0 4.57-6.74z"/><path class="cls-14" d="M372.64 258.82l-17.63 3.15 20.69 13.94-3.06-17.09z"/><path class="cls-15" d="M395.4 390.6l-19.1 3.56 16.58-22.05 2.52 18.49zm-53.46 9.88l17.64-3.15-20.69-13.94 3.05 17.09z"/><path class="cls-14" d="M319.19 268.7l19.1-3.56-16.58 22.05-2.52-18.49z"/><path class="cls-16" d="M391.47 350.46a18 18 0 0 1 .07-25.4l2.62-2.62-7.13-8.88a1.66 1.66 0 0 0-1.4-.48c-3.73.48-19.36 2.16-24.94-3.42-6.35-6.35-3.12-11.62-3.12-11.62h36.32a12.42 12.42 0 0 1 8.77 3.57L421.11 320a10.15 10.15 0 0 0 7.1 3H435"/><path class="cls-17" d="M445 329.64s3-5.25 0-5.25c-4 0-4 5.25 0 5.25z"/><path class="cls-18" d="M157 151h8.2c5.59 0 10.15-1 10.15-6.57 0-2-2.24-7.43-3.24-8.43h7.57c5.59 0 13.44-1.41 13.44-7 0-2.47-2.53-8.08-4-9.87 3.28-1.68 7.18-3.57 7.18-7.5 0-5.59-7.84-8.62-13.44-8.62h-2.11c1-1 3.82-5.58 3.82-7.54 0-5.59-6.83-7.83-12.42-7.83l-72-.3 7-8.68c6.12.75 19.88 1.7 25.64-4.07 7.37-7.37 2.34-8.36 2.18-8.63a2.19 2.19 0 0 0-2-.94H97.89a14.18 14.18 0 0 0-10.15 4L70 86.75A7.38 7.38 0 0 1 64.83 89H56c-1 0-.11 63-.11 63"/><path class="cls-19" d="M10.36 155.63a4.26 4.26 0 0 1-4.36-4V87.15A4.14 4.14 0 0 1 10.1 83H56v72.69z"/><path class="cls-8" d="M149 103h39.26a8 8 0 0 1 8 8 8 8 0 0 1-8 8H130m15 0h40a8 8 0 0 1 8 8 8 8 0 0 1-8 8h-59"/><path class="cls-8" d="M130 103h47.17a7.88 7.88 0 0 0 8-7.85 7.94 7.94 0 0 0-8-7.93l-74-.52M138 135h28.89a8.17 8.17 0 0 1 8 8.2 8.09 8.09 0 0 1-8 8.1l-110.22.19"/><path class="cls-9" d="M102.65 115.67a17.86 17.86 0 0 0 0-25.29L100 87.81l7.14-8.87a1.67 1.67 0 0 1 1.4-.48c3.73.48 19.36 1.95 24.94-3.63C139.83 68.48 136.6 63 136.6 63h-36.31a12.57 12.57 0 0 0-8.76 3.83L73.11 85.06A10.05 10.05 0 0 1 66 88h-7"/><circle class="cls-18" cx="43.47" cy="143.61" r="4"/><path class="cls-20" d="M43.47 141.11a2.5 2.5 0 1 1-2.5 2.5 2.5 2.5 0 0 1 2.5-2.5m0-3a5.5 5.5 0 1 0 5.5 5.5 5.5 5.5 0 0 0-5.5-5.5z"/><path class="cls-10" d="M102.65 115.67c4.41-4.41 4.39-20.88 0-25.29L100 87.8l7.14-8.86a1.66 1.66 0 0 1 1.4-.48c3.73.48 19.36 1.95 24.94-3.63C139.83 68.48 136.6 63 136.6 63h-36.31a12.57 12.57 0 0 0-8.76 3.83L73.11 85.06A10.05 10.05 0 0 1 66 88h-7"/><path class="cls-21" d="M107 7h136v165H107z"/><path class="cls-22" d="M128 70h93m-93 24h93m-93 24h93m-46 24h46m-46-71v46m23-46v46"/><path class="cls-23" d="M211.58 45a11.57 11.57 0 0 1-6.71-2.61l2.36-3.19a10.25 10.25 0 0 0 4.77 2.35V37c-4-1.11-6.06-2.67-6.06-6 0-3.15 2.06-5.2 6.06-5.57V24h3v1.43a10.77 10.77 0 0 1 5.08 2.1l-2.23 3.32a8.07 8.07 0 0 0-3.85-1.68v4.29c5 1.17 7 2.93 7 6.11v.06c0 3.15-3 5.2-6 5.6V48h-3v-3h-.42zm.42-16.06c-2 .17-2 .85-2 1.76v.06c0 .88 0 1.45 2 2v-3.83zm4 10.94v-.06c0-1 0-1.53-2-2.1v4c2-.23 2-.82 2-1.85z"/><path class="cls-10" d="M98.23 119.92c10.65-5.67 10.5-23.4 4.4-29.49L100 87.85l7.15-8.85a1.66 1.66 0 0 1 1.4-.48c3.73.48 19.36 1.92 24.94-3.66 6.35-6.35 3.12-11.86 3.12-11.86h-36.32a12.65 12.65 0 0 0-8.76 3.8L73.11 85A10.07 10.07 0 0 1 66 88h-9"/><path class="cls-24" d="M88.62 244.89l-24.7-36.27m-27.18 34.45l27.18-34.45m342.27-4.07l24.7 36.27m27.18-34.45l-27.18 34.45"/><text class="cls-25" transform="translate(129.73 39.72)">IN<tspan x="13.51" y="0">V</tspan><tspan x="21.97" y="0">OICE</tspan></text></svg>