<svg xmlns="http://www.w3.org/2000/svg" viewBox="202 -150 463 361"><style>.st0{fill:#e0e0e0}.st1{enable-background:new}.st2{fill:#7d7d7d}.st3{fill:#6fda44}.st4{fill:#fff}.st5{fill:#f2f2f2}.st6{fill:#37a000}.st7{fill:#008329}.st8{fill:none;stroke:#e0e0e0}</style><path class="st0" d="M635.8 193.1v-4H231.2v4h-1v-10h1v5h404.6v-5h1v10h-1z"/><path class="st1 st2" d="M299.8 199.2h1.7v8.2h5.2v1.6h-6.9v-9.8zm8.5-.3h1.8v1.6h-1.8v-1.6zm.1 2.7h1.7v7.4h-1.7v-7.4zm4.2 1.5h-.9v-1.4h.9v-.5c0-.8.2-1.4.6-1.8.4-.4.9-.6 1.7-.6.6 0 1 .1 1.4.2v1.4c-.3-.1-.6-.2-1-.2-.6 0-1 .4-1 1.1v.4h2v1.4h-1.9v5.9h-1.7v-5.9zm4.4 2.2c0-2.1 1.5-3.9 3.6-3.9 2.4 0 3.5 1.8 3.5 4v.5h-5.4c.2 1.2 1 1.9 2.1 1.9.8 0 1.4-.3 2-.9l1 .9c-.7.8-1.7 1.4-3 1.4-2.2 0-3.8-1.6-3.8-3.9zm5.5-.5c-.1-1.1-.8-1.9-1.9-1.9-1 0-1.8.8-1.9 1.9h3.8zm3.7 2.2v-3.9h-.9v-1.5h.9v-2h1.7v2h2v1.5h-2v3.6c0 .7.3.9.9.9.4 0 .7-.1 1.1-.3v1.4c-.4.2-.9.4-1.5.4-1.3 0-2.2-.5-2.2-2.1zm5.4-8.1h1.8v1.6h-1.8v-1.6zm.1 2.7h1.7v7.4h-1.7v-7.4zm3.9 0h1.7v1.1c.5-.7 1.1-1.3 2.3-1.3 1.1 0 1.8.5 2.2 1.3.6-.8 1.4-1.3 2.5-1.3 1.6 0 2.6 1 2.6 2.8v4.7h-1.7v-4.2c0-1.2-.5-1.8-1.5-1.8-.9 0-1.6.6-1.6 1.8v4.2h-1.7v-4.2c0-1.1-.6-1.8-1.5-1.8s-1.6.7-1.6 1.8v4.2h-1.7v-7.3zm12.9 3.7c0-2.1 1.5-3.9 3.6-3.9 2.4 0 3.5 1.8 3.5 4v.5h-5.4c.2 1.2 1 1.9 2.1 1.9.8 0 1.4-.3 2-.9l1 .9c-.7.8-1.7 1.4-3 1.4-2.2 0-3.8-1.6-3.8-3.9zm5.5-.5c-.1-1.1-.8-1.9-1.9-1.9-1 0-1.8.8-1.9 1.9h3.8zm9.2 3.1v1.1h-1.7v-10.2h1.7v4.1c.5-.8 1.3-1.4 2.5-1.4 1.7 0 3.4 1.4 3.4 3.8 0 2.5-1.7 3.8-3.4 3.8-1.2.1-1.9-.6-2.5-1.2zm4.3-2.6c0-1.5-1-2.4-2.1-2.4s-2.2 1-2.2 2.4 1 2.4 2.2 2.4c1.1 0 2.1-.9 2.1-2.4zm3.5-6.4h1.8v1.6H371v-1.6zm0 2.7h1.7v7.4H371v-7.4zm4-2.8h1.7V209H375v-10.2zm4.1 0h1.7V209h-1.7v-10.2zm3.9.1h1.8v1.6H383v-1.6zm.1 2.7h1.7v7.4h-1.7v-7.4zm3.9 0h1.7v1.1c.5-.7 1.2-1.3 2.3-1.3 1.7 0 2.6 1.1 2.6 2.8v4.7h-1.7v-4.2c0-1.1-.6-1.8-1.6-1.8s-1.7.7-1.7 1.8v4.2H387v-7.3zm8.6 8.8l.6-1.3c.8.5 1.6.8 2.6.8 1.5 0 2.3-.8 2.3-2.3v-.6c-.6.8-1.4 1.4-2.6 1.4-1.7 0-3.4-1.3-3.4-3.5s1.6-3.5 3.4-3.5c1.2 0 2 .6 2.6 1.3v-1.1h1.7v5.9c0 1.2-.3 2.2-.9 2.8-.7.7-1.7 1-3 1-1.2 0-2.3-.3-3.3-.9zm5.6-5.5c0-1.2-1-2.1-2.2-2.1s-2.1.8-2.1 2 .9 2 2.1 2c1.2.2 2.2-.7 2.2-1.9zm3.2 3.1l.8-1.1c.8.6 1.7.9 2.4.9s1.1-.3 1.1-.8c0-.6-.8-.8-1.7-1-1.1-.3-2.3-.8-2.3-2.2 0-1.4 1.2-2.3 2.6-2.3.9 0 1.9.3 2.7.8l-.7 1.2c-.7-.4-1.5-.7-2.1-.7-.7 0-1 .3-1 .7 0 .5.8.8 1.7 1.1 1.1.3 2.3.8 2.3 2.2 0 1.6-1.2 2.3-2.7 2.3-1 0-2.1-.3-3.1-1.1zm11.8-6.4h1.7v1.2c.5-.8 1.3-1.4 2.5-1.4 1.7 0 3.4 1.4 3.4 3.8 0 2.5-1.7 3.8-3.4 3.8-1.2 0-2-.6-2.5-1.3v3.4h-1.7v-9.5zm6 3.7c0-1.5-1-2.4-2.1-2.4s-2.2 1-2.2 2.4 1 2.4 2.2 2.4c1.1 0 2.1-.9 2.1-2.4zm3 0c0-2.1 1.5-3.9 3.6-3.9 2.4 0 3.5 1.8 3.5 4v.5h-5.4c.2 1.2 1 1.9 2.1 1.9.8 0 1.4-.3 2-.9l1 .9c-.7.8-1.7 1.4-3 1.4-2.1 0-3.8-1.6-3.8-3.9zm5.5-.5c-.1-1.1-.8-1.9-1.9-1.9-1 0-1.8.8-1.9 1.9h3.8zm3.4-3.2h1.7v1.7c.5-1.1 1.3-1.9 2.6-1.8v1.8h-.1c-1.5 0-2.5 1-2.5 2.9v2.8h-1.7v-7.4zm9.6 3.7c0-2.1 1.6-3.9 3.9-3.9 1.4 0 2.3.5 3 1.3l-1.1 1.1c-.5-.5-1.1-.9-1.9-.9-1.2 0-2.1 1.1-2.1 2.4 0 1.3.9 2.4 2.2 2.4.8 0 1.4-.4 1.9-.9l1 1c-.7.8-1.6 1.4-3 1.4-2.3 0-3.9-1.8-3.9-3.9zm8.5-6.5h1.7V209h-1.7v-10.2zm3.9.1h1.8v1.6h-1.8v-1.6zm.1 2.7h1.7v7.4h-1.7v-7.4zm3.5 3.7c0-2.1 1.5-3.9 3.6-3.9 2.4 0 3.5 1.8 3.5 4v.5h-5.4c.2 1.2 1 1.9 2.1 1.9.8 0 1.4-.3 2-.9l1 .9c-.7.8-1.7 1.4-3 1.4-2.2 0-3.8-1.6-3.8-3.9zm5.5-.5c-.1-1.1-.8-1.9-1.9-1.9-1 0-1.8.8-1.9 1.9h3.8zm3.3-3.2h1.7v1.1c.5-.7 1.2-1.3 2.3-1.3 1.7 0 2.6 1.1 2.6 2.8v4.7h-1.7v-4.2c0-1.1-.6-1.8-1.6-1.8s-1.7.7-1.7 1.8v4.2h-1.7v-7.3zm9.1 5.4v-3.9h-.9v-1.5h.9v-2h1.7v2h2v1.5h-2v3.6c0 .7.3.9.9.9.4 0 .7-.1 1-.3v1.4c-.4.2-.9.4-1.5.4-1.3 0-2.1-.5-2.1-2.1zm9.6-5.4h1.7v1.7c.5-1.1 1.3-1.9 2.6-1.8v1.8h-.1c-1.5 0-2.5 1-2.5 2.9v2.8h-1.7v-7.4zm5.1 3.7c0-2.1 1.5-3.9 3.6-3.9 2.4 0 3.5 1.8 3.5 4v.5H494c.2 1.2 1 1.9 2.1 1.9.8 0 1.4-.3 2-.9l1 .9c-.7.8-1.7 1.4-3 1.4-2.2 0-3.8-1.6-3.8-3.9zm5.5-.5c-.1-1.1-.8-1.9-1.9-1.9-1 0-1.8.8-1.9 1.9h3.8zm3.5-6h1.7V209h-1.7v-10.2zm3.4 8.1c0-1.6 1.2-2.4 3.1-2.4.8 0 1.4.1 2 .3v-.2c0-1.1-.6-1.6-1.8-1.6-.8 0-1.4.2-2.1.5l-.4-1.3c.8-.4 1.6-.6 2.8-.6 1.1 0 1.9.3 2.5.8.5.5.8 1.3.8 2.3v4.4h-1.7v-.9c-.5.6-1.3 1.1-2.4 1.1-1.6-.1-2.8-.9-2.8-2.4zm5-.6v-.5c-.4-.2-1-.3-1.7-.3-1.1 0-1.7.5-1.7 1.2s.6 1.1 1.4 1.1c1.2.1 2-.5 2-1.5zm4 .7v-3.9h-.9v-1.5h.9v-2h1.7v2h2v1.5h-2v3.6c0 .7.3.9.9.9.4 0 .7-.1 1-.3v1.4c-.4.2-.9.4-1.5.4-1.3 0-2.1-.5-2.1-2.1zm5.4-8.1h1.8v1.6h-1.8v-1.6zm.1 2.7h1.7v7.4h-1.7v-7.4zm3.5 3.7c0-2.1 1.7-3.9 4-3.9s3.9 1.7 3.9 3.8c0 2.1-1.7 3.9-4 3.9-2.3.1-3.9-1.7-3.9-3.8zm6.2 0c0-1.3-.9-2.4-2.3-2.4s-2.2 1.1-2.2 2.4c0 1.3.9 2.4 2.3 2.4 1.3 0 2.2-1.1 2.2-2.4zm3.4-3.7h1.7v1.1c.5-.7 1.2-1.3 2.3-1.3 1.7 0 2.6 1.1 2.6 2.8v4.7h-1.7v-4.2c0-1.1-.6-1.8-1.6-1.8s-1.7.7-1.7 1.8v4.2h-1.7v-7.3zm8 6.4l.8-1.1c.8.6 1.7.9 2.4.9s1.1-.3 1.1-.8c0-.6-.8-.8-1.7-1-1.1-.3-2.3-.8-2.3-2.2 0-1.4 1.2-2.3 2.6-2.3.9 0 1.9.3 2.7.8l-.7 1.2c-.7-.4-1.5-.7-2.1-.7-.7 0-1 .3-1 .7 0 .5.8.8 1.7 1.1 1.1.3 2.3.8 2.3 2.2 0 1.6-1.2 2.3-2.7 2.3-1 0-2.1-.3-3.1-1.1zm7.7-9.2h1.7v4c.5-.7 1.2-1.3 2.3-1.3 1.7 0 2.6 1.1 2.6 2.8v4.7h-1.7v-4.2c0-1.1-.6-1.8-1.6-1.8s-1.7.7-1.7 1.8v4.2H548v-10.2zm8.7.1h1.8v1.6h-1.8v-1.6zm0 2.7h1.7v7.4h-1.7v-7.4zm3.9 0h1.7v1.2c.5-.8 1.3-1.4 2.5-1.4 1.7 0 3.4 1.4 3.4 3.8 0 2.5-1.7 3.8-3.4 3.8-1.2 0-2-.6-2.5-1.3v3.4h-1.7v-9.5zm6 3.7c0-1.5-1-2.4-2.1-2.4s-2.2 1-2.2 2.4 1 2.4 2.2 2.4c1.1 0 2.1-.9 2.1-2.4zm87.6-96.8v-7.3h1.6v5.6h2.7v-4.9h1.6v4.9h4v1.7h-9.9zm2.4-8.9v-1.7h1.7c-1.1-.5-1.9-1.3-1.8-2.6h1.8v.1c0 1.5 1 2.5 2.9 2.5h2.8v1.7h-7.4zm3.7-5.2c-2.1 0-3.9-1.5-3.9-3.6 0-2.4 1.8-3.5 4-3.5h.5v5.4c1.2-.2 1.9-1 1.9-2.1 0-.8-.3-1.4-.9-2l.9-1c.8.7 1.4 1.7 1.4 3 0 2.2-1.6 3.8-3.9 3.8zm-.5-5.4c-1.1.1-1.9.8-1.9 1.9 0 1 .8 1.8 1.9 1.9V89zm.5-3c-2.1 0-3.9-1.5-3.9-3.6 0-2.4 1.8-3.5 4-3.5h.5v5.4c1.2-.2 1.9-1 1.9-2.1 0-.8-.3-1.4-.9-2l.9-1c.8.7 1.4 1.7 1.4 3 0 2.1-1.6 3.8-3.9 3.8zm-.5-5.5c-1.1.1-1.9.8-1.9 1.9 0 1 .8 1.8 1.9 1.9v-3.8zm-6-3.5v-1.7H664V77h-10.2zm8.1-3.4c-1.6 0-2.4-1.2-2.4-3.1 0-.8.1-1.4.3-2h-.2c-1.1 0-1.6.6-1.6 1.8 0 .8.2 1.4.5 2.1l-1.3.4c-.4-.8-.6-1.6-.6-2.8 0-1.1.3-1.9.8-2.5.5-.5 1.3-.8 2.3-.8h4.4v1.7h-.9c.6.5 1.1 1.3 1.1 2.4-.1 1.6-.9 2.8-2.4 2.8zm-.6-5.1h-.5c-.2.4-.3 1-.3 1.7 0 1.1.5 1.7 1.2 1.7s1.1-.6 1.1-1.4c.1-1.1-.5-2-1.5-2zm-4.7-3.6v-1.7h1.1c-.7-.5-1.3-1.2-1.3-2.3 0-1.7 1.1-2.6 2.8-2.6h4.7V60h-4.2c-1.1 0-1.8.6-1.8 1.6s.7 1.7 1.8 1.7h4.2V65h-7.3zm3.7-8.3c-2.1 0-3.9-1.6-3.9-3.9 0-1.4.5-2.3 1.3-3l1.1 1.1c-.5.5-.9 1.1-.9 1.9 0 1.2 1.1 2.1 2.4 2.1 1.3 0 2.4-.9 2.4-2.2 0-.8-.4-1.4-.9-1.9l1-1c.8.7 1.4 1.6 1.4 3 0 2.3-1.8 3.9-3.9 3.9zm0-7.8c-2.1 0-3.9-1.5-3.9-3.6 0-2.4 1.8-3.5 4-3.5h.5v5.4c1.2-.2 1.9-1 1.9-2.1 0-.8-.3-1.4-.9-2l.9-1c.8.7 1.4 1.7 1.4 3 0 2.2-1.6 3.8-3.9 3.8zm-.5-5.4c-1.1.1-1.9.8-1.9 1.9 0 1 .8 1.8 1.9 1.9v-3.8zm-3.2-3.4v-1.7h1.7c-1.1-.5-1.9-1.3-1.8-2.6h1.8v.1c0 1.5 1 2.5 2.9 2.5h2.8V40h-7.4zm6.4-9.4l-1.1-.8c.6-.8.9-1.7.9-2.4s-.3-1.1-.8-1.1c-.6 0-.8.8-1 1.7-.3 1.1-.8 2.3-2.2 2.3-1.4 0-2.3-1.2-2.3-2.6 0-.9.3-1.9.8-2.7l1.2.7c-.4.7-.7 1.5-.7 2.1 0 .7.3 1 .7 1 .5 0 .8-.8 1.1-1.7.3-1.1.8-2.3 2.2-2.3 1.6 0 2.3 1.2 2.3 2.7 0 1-.3 2.2-1.1 3.1zm-2.7-7.2c-2.1 0-3.9-1.5-3.9-3.6 0-2.4 1.8-3.5 4-3.5h.5v5.4c1.2-.2 1.9-1 1.9-2.1 0-.8-.3-1.4-.9-2l.9-1c.8.7 1.4 1.7 1.4 3 0 2.1-1.6 3.8-3.9 3.8zm-.5-5.5c-1.1.1-1.9.8-1.9 1.9 0 1 .8 1.8 1.9 1.9v-3.8zm-3.2-3.4v-1.7h1.7c-1.1-.5-1.9-1.3-1.8-2.6h1.8v.1c0 1.5 1 2.5 2.9 2.5h2.8v1.7h-7.4zm0-5.1V7.6l5.4-2-5.4-2V1.9l7.5 3v1.5l-7.5 3zm-2.7-9v-1.8h1.6V.4h-1.6zm2.7-.1v-1.7h7.4V.3h-7.4zm3.7-3.5c-2.1 0-3.9-1.6-3.9-3.9 0-1.4.5-2.3 1.3-3l1.1 1.1c-.5.5-.9 1.1-.9 1.9 0 1.2 1.1 2.1 2.4 2.1 1.3 0 2.4-.9 2.4-2.2 0-.8-.4-1.4-.9-1.9l1-1c.8.7 1.4 1.6 1.4 3 0 2.3-1.8 3.9-3.9 3.9zm0-7.8c-2.1 0-3.9-1.5-3.9-3.6 0-2.4 1.8-3.5 4-3.5h.5v5.4c1.2-.2 1.9-1 1.9-2.1 0-.8-.3-1.4-.9-2l.9-1c.8.7 1.4 1.7 1.4 3 0 2.2-1.6 3.8-3.9 3.8zm-.5-5.4c-1.1.1-1.9.8-1.9 1.9 0 1 .8 1.8 1.9 1.9v-3.8zm-1.7-8v.9h-1.4v-.9h-.5c-.8 0-1.4-.2-1.8-.6-.4-.4-.6-.9-.6-1.7 0-.6.1-1 .2-1.4h1.4c-.1.3-.2.6-.2 1 0 .6.4 1 1.1 1h.4v-2h1.4v1.9h5.9v1.7h-5.9zm2.2-4.3c-2.1 0-3.9-1.5-3.9-3.6 0-2.4 1.8-3.5 4-3.5h.5v5.4c1.2-.2 1.9-1 1.9-2.1 0-.8-.3-1.4-.9-2l.9-1c.8.7 1.4 1.7 1.4 3 0 2.1-1.6 3.8-3.9 3.8zm-.5-5.5c-1.1.1-1.9.8-1.9 1.9 0 1 .8 1.8 1.9 1.9v-3.8zm.5-3c-2.1 0-3.9-1.5-3.9-3.6 0-2.4 1.8-3.5 4-3.5h.5v5.4c1.2-.2 1.9-1 1.9-2.1 0-.8-.3-1.4-.9-2l.9-1c.8.7 1.4 1.7 1.4 3 0 2.1-1.6 3.8-3.9 3.8zm-.5-5.5c-1.1.1-1.9.8-1.9 1.9 0 1 .8 1.8 1.9 1.9v-3.8zM202.2 100.7v-7.3h1.6V99h2.7v-5h1.6v5h4v1.7h-9.9zm2.4-9V90h1.7c-1.1-.5-1.9-1.3-1.8-2.6h1.8v.1c0 1.5 1 2.5 2.9 2.5h2.8v1.7h-7.4zm3.7-5.1c-2.1 0-3.9-1.5-3.9-3.6 0-2.4 1.8-3.5 4-3.5h.5v5.4c1.2-.2 1.9-1 1.9-2.1 0-.8-.3-1.4-.9-2l.9-1c.8.7 1.4 1.7 1.4 3 0 2.2-1.6 3.8-3.9 3.8zm-.5-5.5c-1.1.1-1.9.8-1.9 1.9 0 1 .8 1.8 1.9 1.9v-3.8zm.5-3c-2.1 0-3.9-1.5-3.9-3.6 0-2.4 1.8-3.5 4-3.5h.5v5.4c1.2-.2 1.9-1 1.9-2.1 0-.8-.3-1.4-.9-2l.9-1c.8.7 1.4 1.7 1.4 3 0 2.2-1.6 3.8-3.9 3.8zm-.5-5.4c-1.1.1-1.9.8-1.9 1.9 0 1 .8 1.8 1.9 1.9v-3.8zm-6-3.5v-1.7H212v1.7h-10.2zm8.1-3.4c-1.6 0-2.4-1.2-2.4-3.1 0-.8.1-1.4.3-2h-.2c-1.1 0-1.6.6-1.6 1.8 0 .8.2 1.4.5 2.1l-1.3.4c-.4-.8-.6-1.6-.6-2.8 0-1.1.3-1.9.8-2.5.5-.5 1.3-.8 2.3-.8h4.4v1.7h-.9c.6.5 1.1 1.3 1.1 2.4-.1 1.5-.9 2.8-2.4 2.8zm-.6-5.1h-.5c-.2.4-.3 1-.3 1.7 0 1.1.5 1.7 1.2 1.7s1.1-.6 1.1-1.4c.1-1.1-.5-2-1.5-2zm-4.7-3.6v-1.7h1.1c-.7-.5-1.3-1.2-1.3-2.3 0-1.7 1.1-2.6 2.8-2.6h4.7v1.7h-4.2c-1.1 0-1.8.6-1.8 1.6s.7 1.7 1.8 1.7h4.2v1.7h-7.3zm3.7-8.3c-2.1 0-3.9-1.6-3.9-3.9 0-1.4.5-2.3 1.3-3l1.1 1.1c-.5.5-.9 1.1-.9 1.9 0 1.2 1.1 2.1 2.4 2.1 1.3 0 2.4-.9 2.4-2.2 0-.8-.4-1.4-.9-1.9l1-1c.8.7 1.4 1.6 1.4 3 0 2.3-1.8 3.9-3.9 3.9zm0-7.8c-2.1 0-3.9-1.5-3.9-3.6 0-2.4 1.8-3.5 4-3.5h.5v5.4c1.2-.2 1.9-1 1.9-2.1 0-.8-.3-1.4-.9-2l.9-1c.8.7 1.4 1.7 1.4 3 0 2.2-1.6 3.8-3.9 3.8zm-.5-5.5c-1.1.1-1.9.8-1.9 1.9 0 1 .8 1.8 1.9 1.9v-3.8zm-3.2-3.4v-1.7h1.7c-1.1-.5-1.9-1.3-1.8-2.6h1.8v.1c0 1.5 1 2.5 2.9 2.5h2.8v1.7h-7.4zm3.7-9.5c-2.1 0-3.9-1.5-3.9-3.6 0-2.4 1.8-3.5 4-3.5h.5v5.4c1.2-.2 1.9-1 1.9-2.1 0-.8-.3-1.4-.9-2l.9-1c.8.7 1.4 1.7 1.4 3 0 2.1-1.6 3.8-3.9 3.8zm-.5-5.5c-1.1.1-1.9.8-1.9 1.9 0 1 .8 1.8 1.9 1.9v-3.8zm2.1-2.9c-1.6 0-2.4-1.2-2.4-3.1 0-.8.1-1.4.3-2h-.2c-1.1 0-1.6.6-1.6 1.8 0 .8.2 1.4.5 2.1l-1.3.4c-.4-.8-.6-1.6-.6-2.8 0-1.1.3-1.9.8-2.5.5-.5 1.3-.8 2.3-.8h4.4V9h-.9c.6.5 1.1 1.3 1.1 2.4-.1 1.6-.9 2.8-2.4 2.8zm-.6-5.1h-.5c-.2.4-.3 1-.3 1.7 0 1.1.5 1.7 1.2 1.7s1.1-.6 1.1-1.4c.1-1.1-.5-2-1.5-2zm-4.7-3.6V3.8h1.7c-1.1-.5-1.9-1.3-1.8-2.6h1.8v.1c0 1.5 1 2.5 2.9 2.5h2.8v1.7h-7.4zm0-5.8V-2h1.1c-.7-.5-1.3-1.2-1.3-2.3 0-1.7 1.1-2.6 2.8-2.6h4.7v1.7h-4.2c-1.1 0-1.8.6-1.8 1.6s.7 1.7 1.8 1.7h4.2v1.7h-7.3zM201.9-9v-1.8h1.6V-9h-1.6zm2.7-.1v-1.7h7.4v1.7h-7.4zm0-3.9v-1.7h1.1c-.7-.5-1.3-1.2-1.3-2.3 0-1.7 1.1-2.6 2.8-2.6h4.7v1.7h-4.2c-1.1 0-1.8.6-1.8 1.6s.7 1.7 1.8 1.7h4.2v1.7h-7.3zm8.8-8.6l-1.3-.6c.5-.8.8-1.6.8-2.6 0-1.5-.8-2.3-2.3-2.3h-.6c.8.6 1.4 1.4 1.4 2.6 0 1.7-1.3 3.4-3.5 3.4s-3.5-1.6-3.5-3.4c0-1.2.6-2 1.3-2.6h-1.1v-1.7h5.9c1.2 0 2.2.3 2.8.9.7.7 1 1.7 1 3 0 1.2-.3 2.3-.9 3.3zm-5.5-5.7c-1.2 0-2.1 1-2.1 2.2s.8 2.1 2 2.1 2-.9 2-2.1c.2-1.2-.7-2.2-1.9-2.2zm3.1-3.1l-1.1-.8c.6-.8.9-1.7.9-2.4s-.3-1.1-.8-1.1c-.6 0-.8.8-1 1.7-.3 1.1-.8 2.3-2.2 2.3-1.4 0-2.3-1.2-2.3-2.6 0-.9.3-1.9.8-2.7l1.2.7c-.4.7-.7 1.5-.7 2.1 0 .7.3 1 .7 1 .5 0 .8-.8 1.1-1.7.3-1.1.8-2.3 2.2-2.3 1.6 0 2.3 1.2 2.3 2.7 0 1-.3 2.1-1.1 3.1z"/><path class="st3" d="M231.2-37h93.9v205.1h-93.9z"/><path class="st1 st4" d="M284.4 3.4c-1.8-1.6-3.5-2.3-5.5-2.6v9.6c5.2 1.1 7.3 3 7.3 6.4 0 3.6-3 6.2-7.3 6.3v3.3h-1.6V23c-3.1-.3-5.6-1.5-8.1-3.6l1.1-1.3c2.1 2 4.2 3.2 7 3.4v-9.7c-5.1-1.1-7.2-3-7.2-6.4 0-3.4 3-6.1 7.1-6.2v-2h1.6v2c2.6.2 4.5 1.2 6.6 2.8l-1 1.4zm-7 6.6V.7c-3.3.1-5.5 2-5.5 4.5 0 2.3 1.1 3.7 5.5 4.8zm1.5 2.1v9.4c3.4-.1 5.6-2 5.6-4.6 0-2.4-1.1-3.8-5.6-4.8z"/><path class="st5" d="M231.2-149h93.9v103h-93.9z"/><path class="st1 st4" d="M244.9 142.5h6.8v1.5h-5.2v2.6h4.6v1.5h-4.6v3.9h-1.6v-9.5zm8.4-.3h1.7v1.6h-1.7v-1.6zm.1 2.7h1.6v7.1h-1.6v-7.1zm3.6 0h1.6v1.6c.4-1.1 1.2-1.8 2.4-1.7v1.7h-.1c-1.4 0-2.3.9-2.3 2.8v2.7H257v-7.1zm4.8 6.2l.7-1.1c.8.6 1.5.9 2.2.9.7 0 1.1-.3 1.1-.8 0-.6-.7-.7-1.5-1-1-.3-2.1-.7-2.1-2.1 0-1.4 1.1-2.2 2.4-2.2.9 0 1.8.3 2.5.8l-.6 1.2c-.7-.4-1.4-.7-1.9-.7-.6 0-1 .3-1 .7 0 .5.7.7 1.5 1 1 .3 2.1.8 2.1 2.1 0 1.5-1.1 2.2-2.5 2.2-1 0-2.1-.3-2.9-1zm7.3-1.1v-3.8h-.9v-1.4h.9v-2h1.6v2h1.8v1.4h-1.8v3.5c0 .6.3.9.8.9.4 0 .7-.1 1-.2v1.3c-.4.2-.8.4-1.4.4-1.2 0-2-.5-2-2.1zm14.4-5.1c-.6-.4-1.2-.7-1.8-.9v2.6c2 .5 2.8 1.3 2.8 2.8 0 1.5-1.1 2.5-2.8 2.6v1.3h-1.1V152c-1.1-.1-2.2-.6-3.1-1.3l.8-1.2c.7.6 1.4 1 2.3 1.2V148c-1.9-.5-2.8-1.2-2.8-2.8 0-1.4 1.1-2.4 2.7-2.6v-.8h1.1v.8c.9.1 1.7.5 2.4 1l-.5 1.3zm-2.8 1.4v-2.4c-.8.1-1.2.5-1.2 1.1 0 .6.2 1 1.2 1.3zm1.1 1.9v2.5c.8-.1 1.3-.5 1.3-1.2s-.3-1-1.3-1.3zm4.1 2.5l1-1.2c.7.7 1.5 1.1 2.3 1.1 1.1 0 1.8-.6 1.8-1.6s-.8-1.6-1.9-1.6c-.7 0-1.2.2-1.7.4l-1-.7.3-4.6h5.4v1.5H288l-.1 2.2c.4-.2.8-.3 1.4-.3 1.8 0 3.2 1 3.2 3 0 1.9-1.4 3.2-3.4 3.2-1.2.1-2.3-.5-3.2-1.4zm8.3-3.4c0-2.7 1.6-4.9 4-4.9s4 2.2 4 4.9-1.6 4.9-4 4.9c-2.5 0-4-2.2-4-4.9zm6.3 0c0-1.9-.9-3.4-2.3-3.4s-2.3 1.5-2.3 3.4.9 3.4 2.3 3.4 2.3-1.6 2.3-3.4zm3.1 0c0-2.7 1.6-4.9 4-4.9s4 2.2 4 4.9-1.6 4.9-4 4.9c-2.5 0-4-2.2-4-4.9zm6.3 0c0-1.9-.9-3.4-2.3-3.4s-2.3 1.5-2.3 3.4.9 3.4 2.3 3.4 2.3-1.6 2.3-3.4z"/><path class="st1 st3" d="M253.3-89.6l6.4-5.8c2.7-2.5 3.7-3.9 3.7-5.7 0-2.1-1.6-3.5-3.5-3.5-2 0-3.3 1.1-4.7 3.1l-1.5-1.1c1.6-2.4 3.2-3.9 6.3-3.9 3.2 0 5.4 2.2 5.4 5.1v.1c0 2.7-1.4 4.3-4.4 7.1l-4.7 4.3h9.3v1.9h-12.2v-1.6zm15.4-7.4c0-5.1 2.9-9.5 7.4-9.5s7.4 4.3 7.4 9.4v.1c0 5.1-2.9 9.4-7.4 9.4-4.6-.1-7.4-4.4-7.4-9.4zm12.7 0c0-4-2.1-7.6-5.4-7.6-3.3 0-5.3 3.5-5.3 7.5v.1c0 4 2.1 7.5 5.4 7.5s5.3-3.6 5.3-7.5zm4.9-4.7c0-2.5 1.6-4.7 4-4.7s3.9 2.2 3.9 4.6v.1c0 2.5-1.6 4.7-4 4.7s-3.9-2.3-3.9-4.7zm1.7-.1c0 1.9 1 3.2 2.3 3.2 1.4 0 2.3-1.4 2.3-3.1v-.1c0-1.8-1.1-3.2-2.3-3.2-1.4 0-2.3 1.5-2.3 3.2zm13-4.4h1.8l-6.8 9.5-6.1 8.7h-1.8l6.8-9.5 6.1-8.7zm-4.4 13.8c0-2.5 1.6-4.7 4-4.7s3.9 2.2 3.9 4.6v.1c0 2.5-1.6 4.7-4 4.7-2.3-.1-3.9-2.3-3.9-4.7zm6.3 0c0-1.9-1-3.2-2.3-3.2-1.4 0-2.3 1.4-2.3 3.1v.1c0 1.8 1 3.2 2.3 3.2 1.4 0 2.3-1.5 2.3-3.2z"/><path class="st6" d="M340.1-78h172.8v246.1H340.1z"/><path class="st5" d="M340.1-150h172.8v62H340.1z"/><path class="st1 st4" d="M372.6 144.9c-.6-.4-1.2-.7-1.8-.9v2.6c2 .5 2.8 1.3 2.8 2.8 0 1.5-1.1 2.5-2.8 2.6v1.3h-1.1V152c-1.1-.1-2.2-.6-3.1-1.3l.8-1.2c.7.6 1.4 1 2.3 1.2V148c-1.9-.5-2.8-1.2-2.8-2.8 0-1.4 1.1-2.4 2.7-2.6v-.8h1.1v.8c.9.1 1.7.5 2.4 1l-.5 1.3zm-2.8 1.4v-2.4c-.8.1-1.2.5-1.2 1.1-.1.6.2 1 1.2 1.3zm1 1.9v2.5c.8-.1 1.3-.5 1.3-1.2s-.3-1-1.3-1.3zm4.2 2.5l1-1.2c.7.7 1.5 1.1 2.3 1.1 1.1 0 1.8-.6 1.8-1.6s-.8-1.6-1.9-1.6c-.7 0-1.2.2-1.7.4l-1-.7.3-4.6h5.4v1.5h-4.1l-.1 2.2c.4-.2.8-.3 1.4-.3 1.8 0 3.2 1 3.2 3 0 1.9-1.4 3.2-3.4 3.2-1.3.1-2.4-.5-3.2-1.4zm8.2-3.4c0-2.7 1.6-4.9 4-4.9s4 2.2 4 4.9-1.6 4.9-4 4.9-4-2.2-4-4.9zm6.3 0c0-1.9-.9-3.4-2.3-3.4s-2.3 1.5-2.3 3.4.9 3.4 2.3 3.4 2.3-1.6 2.3-3.4zm3.1 0c0-2.7 1.6-4.9 4-4.9s4 2.2 4 4.9-1.6 4.9-4 4.9-4-2.2-4-4.9zm6.3 0c0-1.9-.9-3.4-2.3-3.4s-2.3 1.5-2.3 3.4.9 3.4 2.3 3.4 2.3-1.6 2.3-3.4zm3 2.8h1.7v1.9h-1.7v-1.9zm3.1-2.8c0-2.7 1.6-4.9 4-4.9s4 2.2 4 4.9-1.6 4.9-4 4.9-4-2.2-4-4.9zm6.3 0c0-1.9-.9-3.4-2.3-3.4s-2.3 1.5-2.3 3.4.9 3.4 2.3 3.4 2.3-1.6 2.3-3.4zm4.6-3.1l-1.6.5-.3-1.4 2.5-.8h1.1v9.5H416v-7.8zm7.5 2.9h3.8v1.6h-3.8v-1.6zm15-2.2c-.6-.4-1.2-.7-1.8-.9v2.6c2 .5 2.8 1.3 2.8 2.8 0 1.5-1.1 2.5-2.8 2.6v1.3h-1.1V152c-1.1-.1-2.2-.6-3.1-1.3l.8-1.2c.7.6 1.4 1 2.3 1.2V148c-1.9-.5-2.8-1.2-2.8-2.8 0-1.4 1.1-2.4 2.7-2.6v-.8h1.1v.8c.9.1 1.7.5 2.4 1l-.5 1.3zm-2.8 1.4v-2.4c-.8.1-1.2.5-1.2 1.1 0 .6.2 1 1.2 1.3zm1 1.9v2.5c.8-.1 1.3-.5 1.3-1.2s-.3-1-1.3-1.3zm5.9-4l-1.6.5-.3-1.4 2.5-.8h1.1v9.5h-1.6v-7.8zm3.6 3.1c0-2.7 1.6-4.9 4-4.9s4 2.2 4 4.9-1.6 4.9-4 4.9-4-2.2-4-4.9zm6.3 0c0-1.9-.9-3.4-2.3-3.4s-2.3 1.5-2.3 3.4.9 3.4 2.3 3.4 2.3-1.6 2.3-3.4zm2.6 6c.8-.2 1.2-.6 1.1-1.3h-.7v-1.9h1.7v1.6c0 1.5-.7 2.1-2 2.3l-.1-.7zm3.5-6c0-2.7 1.6-4.9 4-4.9s4 2.2 4 4.9-1.6 4.9-4 4.9c-2.5 0-4-2.2-4-4.9zm6.3 0c0-1.9-.9-3.4-2.3-3.4s-2.3 1.5-2.3 3.4.9 3.4 2.3 3.4 2.3-1.6 2.3-3.4zm3.1 0c0-2.7 1.6-4.9 4-4.9s4 2.2 4 4.9-1.6 4.9-4 4.9-4-2.2-4-4.9zm6.3 0c0-1.9-.9-3.4-2.3-3.4s-2.3 1.5-2.3 3.4.9 3.4 2.3 3.4 2.3-1.6 2.3-3.4zm3.1 0c0-2.7 1.6-4.9 4-4.9s4 2.2 4 4.9-1.6 4.9-4 4.9-4-2.2-4-4.9zm6.3 0c0-1.9-.9-3.4-2.3-3.4s-2.3 1.5-2.3 3.4.9 3.4 2.3 3.4 2.3-1.6 2.3-3.4z"/><path class="st1 st6" d="M408.6-126.2l-3.3 1.1-.5-1.7 4.3-1.5h1.5v18.3h-2v-16.2zm6.1 7.2c0-5.1 2.9-9.5 7.4-9.5s7.4 4.3 7.4 9.4v.1c0 5.1-2.9 9.4-7.4 9.4-4.6-.1-7.4-4.4-7.4-9.4zm12.7 0c0-4-2.1-7.6-5.4-7.6-3.3 0-5.3 3.5-5.3 7.5v.1c0 4 2.1 7.5 5.4 7.5s5.3-3.6 5.3-7.5zm4.9-4.7c0-2.5 1.6-4.7 4-4.7s3.9 2.2 3.9 4.6v.1c0 2.5-1.6 4.7-4 4.7s-3.9-2.3-3.9-4.7zm1.7-.1c0 1.9 1 3.2 2.3 3.2 1.4 0 2.3-1.4 2.3-3.1v-.1c0-1.8-1.1-3.2-2.3-3.2-1.4 0-2.3 1.5-2.3 3.2zm12.9-4.4h1.8l-6.8 9.5-6.1 8.7H434l6.8-9.5 6.1-8.7zm-4.3 13.8c0-2.5 1.6-4.7 4-4.7s3.9 2.2 3.9 4.6v.1c0 2.5-1.6 4.7-4 4.7-2.3-.1-3.9-2.3-3.9-4.7zm6.3 0c0-1.9-1-3.2-2.3-3.2-1.4 0-2.3 1.4-2.3 3.1v.1c0 1.8 1 3.2 2.3 3.2 1.4 0 2.3-1.5 2.3-3.2z"/><path class="st1 st4" d="M433.4-40.6c-1.8-1.6-3.5-2.3-5.5-2.6v9.6c5.2 1.1 7.3 3 7.3 6.4 0 3.6-3 6.2-7.3 6.3v3.3h-1.6V-21c-3.1-.3-5.6-1.5-8.1-3.6l1.1-1.3c2.1 2 4.2 3.2 7 3.4v-9.7c-5.1-1.1-7.2-3-7.2-6.4 0-3.4 3-6.1 7.1-6.2v-2h1.6v2c2.6.2 4.5 1.2 6.6 2.8l-1 1.4zm-7 6.6v-9.3c-3.3.1-5.5 2-5.5 4.5 0 2.3 1.1 3.7 5.5 4.8zm1.5 2.1v9.4c3.4-.1 5.6-2 5.6-4.6 0-2.4-1.1-3.8-5.6-4.8z"/><path class="st7" d="M527.9-104h107.9v272.1H527.9z"/><path class="st5" d="M527.9-150h107.9v36H527.9z"/><path class="st1 st4" d="M588.4-66.6c-1.8-1.6-3.5-2.3-5.5-2.6v9.6c5.2 1.1 7.3 3 7.3 6.4 0 3.6-3 6.2-7.3 6.3v3.3h-1.6V-47c-3.1-.3-5.6-1.5-8.1-3.6l1.1-1.3c2.1 2 4.2 3.2 7 3.4v-9.7c-5.1-1.1-7.2-3-7.2-6.4 0-3.4 3-6.1 7.1-6.2v-2h1.6v2c2.6.2 4.5 1.2 6.6 2.8l-1 1.4zm-7 6.6v-9.3c-3.3.1-5.5 2-5.5 4.5 0 2.3 1.1 3.7 5.5 4.8zm1.5 2.1v9.4c3.4-.1 5.6-2 5.6-4.6 0-2.4-1.1-3.8-5.6-4.8zm-24.5 202.8c-.6-.4-1.2-.7-1.8-.9v2.6c2 .5 2.8 1.3 2.8 2.8 0 1.5-1.1 2.5-2.8 2.6v1.3h-1.1V152c-1.1-.1-2.2-.6-3.1-1.3l.8-1.2c.7.6 1.4 1 2.3 1.2V148c-1.9-.5-2.8-1.2-2.8-2.8 0-1.4 1.1-2.4 2.7-2.6v-.8h1.1v.8c.9.1 1.7.5 2.4 1l-.5 1.3zm-2.8 1.4v-2.4c-.8.1-1.2.5-1.2 1.1-.1.6.2 1 1.2 1.3zm1 1.9v2.5c.8-.1 1.3-.5 1.3-1.2s-.3-1-1.3-1.3zm5.9-4l-1.6.5-.3-1.4 2.5-.8h1.1v9.5h-1.6v-7.8zm3.6 3.1c0-2.7 1.6-4.9 4-4.9s4 2.2 4 4.9-1.6 4.9-4 4.9c-2.5 0-4-2.2-4-4.9zm6.2 0c0-1.9-.9-3.4-2.3-3.4s-2.3 1.5-2.3 3.4.9 3.4 2.3 3.4 2.3-1.6 2.3-3.4zm2.6 6c.8-.2 1.2-.6 1.1-1.3h-.7v-1.9h1.7v1.6c0 1.5-.7 2.1-2 2.3l-.1-.7zm3.5-6c0-2.7 1.6-4.9 4-4.9s4 2.2 4 4.9-1.6 4.9-4 4.9-4-2.2-4-4.9zm6.3 0c0-1.9-.9-3.4-2.3-3.4s-2.3 1.5-2.3 3.4.9 3.4 2.3 3.4 2.3-1.6 2.3-3.4zm3.2 0c0-2.7 1.6-4.9 4-4.9s4 2.2 4 4.9-1.6 4.9-4 4.9c-2.5 0-4-2.2-4-4.9zm6.2 0c0-1.9-.9-3.4-2.3-3.4s-2.3 1.5-2.3 3.4.9 3.4 2.3 3.4 2.3-1.6 2.3-3.4zm3.2 0c0-2.7 1.6-4.9 4-4.9s4 2.2 4 4.9-1.6 4.9-4 4.9c-2.5 0-4-2.2-4-4.9zm6.2 0c0-1.9-.9-3.4-2.3-3.4s-2.3 1.5-2.3 3.4.9 3.4 2.3 3.4 2.3-1.6 2.3-3.4zm5.8.7h-2.5v-1.5h2.5v-2.6h1.5v2.6h2.5v1.5h-2.5v2.6h-1.5V148z"/><path class="st1 st7" d="M565.2-125.6l1.3-1.5c1.5 1.5 3.2 2.5 5 2.5 2.5 0 4.2-1.7 4.2-4v-.1c0-2.3-1.8-3.8-4.4-3.8-1.5 0-2.7.5-3.7 1l-1.3-.9.5-8.9H577v1.9h-8.4l-.4 5.8c1-.5 2-.8 3.5-.8 3.4 0 6.1 2.1 6.1 5.6v.1c0 3.6-2.6 6-6.3 6-2.5 0-4.7-1.2-6.3-2.9zm15.3-11.1c0-2.5 1.6-4.7 4-4.7s3.9 2.2 3.9 4.6v.1c0 2.5-1.6 4.7-4 4.7s-3.9-2.3-3.9-4.7zm1.7-.1c0 1.9 1 3.2 2.3 3.2 1.4 0 2.3-1.4 2.3-3.1v-.1c0-1.8-1.1-3.2-2.3-3.2-1.4 0-2.3 1.5-2.3 3.2zm13-4.4h1.8l-6.8 9.5-6.1 8.7h-1.8l6.8-9.5 6.1-8.7zm-4.3 13.8c0-2.5 1.6-4.7 4-4.7s3.9 2.2 3.9 4.6v.1c0 2.5-1.6 4.7-4 4.7-2.4-.1-3.9-2.3-3.9-4.7zm6.2 0c0-1.9-1-3.3-2.3-3.3-1.4 0-2.3 1.4-2.3 3.1v.1c0 1.8 1 3.2 2.3 3.2 1.4.1 2.3-1.4 2.3-3.1z"/><path class="st8" d="M660-56v-77h-21M207 111v22h21"/></svg>