<svg xmlns="http://www.w3.org/2000/svg" viewBox="0 0 1024 119" preserveAspectRatio="xMinYMax meet"><title>upwork_ent-logo-footer</title><path fill="none" d="M0 119V0h1024v119"/><path d="M257.29 28.19A31.82 31.82 0 1 0 289.11 60a31.82 31.82 0 0 0-31.82-31.81zm0 50.53A18.71 18.71 0 1 1 276 60a18.72 18.72 0 0 1-18.71 18.73zM298 77V31h13v8.25A23.43 23.43 0 0 1 329.09 31H334v13h-6.2c-9.08 0-16.45 6.57-16.45 15.65V89H298V77M189.68 31l10.3 41.57L211.33 31h13.52L207.4 89h-13.53l-10.68-41.8L172.5 89h-13.53l-17.45-58h13.53l11.35 41.57L176.7 31h12.98zm183.81 26.67C383.17 52.21 389.73 42 389.73 31H376.1c0 9-8.14 17-18.16 17H357V1h-14v88h14V62h.74c1.33 0 3.07.23 3.85 1.31L380.93 89h16.33z" fill="#fff"/><path d="M109.13 28.19c-14.84 0-26.36 9.5-31 25.38A116.38 116.38 0 0 1 62.39 19H45v41.85a14.5 14.5 0 1 1-29 0V19H1v41.85a31 31 0 0 0 62 0v-7a89.84 89.84 0 0 0 11.23 18.5L64.15 118h16.34l7.09-33a39.53 39.53 0 0 0 21.54 6.67 31.73 31.73 0 1 0 .01-63.48zm0 47.57c-6.45 0-12.49-2.73-18-7.17l1.34-6.29v-.24c1.2-6.68 5-17.88 16.6-17.88a15.79 15.79 0 1 1 .06 31.59z" fill="#6fda44"/><path d="M491.87 79.05a29.87 29.87 0 0 1-11.57 9.5 36.69 36.69 0 0 1-14.59 2.71 30.43 30.43 0 0 1-12.45-2.45 28.05 28.05 0 0 1-9.37-6.6 28.94 28.94 0 0 1-5.89-9.83 34.8 34.8 0 0 1-2.08-12.08 33.74 33.74 0 0 1 2.26-12.52 29 29 0 0 1 6.26-9.78 28.28 28.28 0 0 1 9.56-6.37 31.59 31.59 0 0 1 12.08-2.26 30.07 30.07 0 0 1 11.32 2.08 24.56 24.56 0 0 1 8.87 6 27.15 27.15 0 0 1 5.73 9.71 39.16 39.16 0 0 1 2 13v3.15h-47.55a20.6 20.6 0 0 0 1.82 7.23 20.93 20.93 0 0 0 4.09 6 18.86 18.86 0 0 0 5.91 4.09 18.06 18.06 0 0 0 7.42 1.51 23.46 23.46 0 0 0 10.82-2.26 24.57 24.57 0 0 0 7.93-6.67zm-8.43-24q-.25-7.55-4.91-12.08t-12.83-4.55q-8.18 0-13.21 4.53a19 19 0 0 0-6 12.08h37zm25.79-10.22q0-4-.25-7.55t-.25-6.42H518q0 2.39.13 4.78t.13 4.91h.25a17 17 0 0 1 2.83-4.15 20.43 20.43 0 0 1 4.34-3.59 23.2 23.2 0 0 1 5.66-2.52 23.53 23.53 0 0 1 6.79-.94 25.87 25.87 0 0 1 10 1.76 18.81 18.81 0 0 1 7 4.91 19.91 19.91 0 0 1 4.09 7.61 34.25 34.25 0 0 1 1.32 9.75v36.36h-9.81V54.4q0-7.42-3.27-11.7t-10.19-4.28a19.14 19.14 0 0 0-8.27 1.63 14.6 14.6 0 0 0-5.66 4.65 20.84 20.84 0 0 0-3.27 7.17 36.72 36.72 0 0 0-1.07 9.19v28.68h-9.81V44.83zm99.63-5.66H591.5v29.44q0 2.89.13 5.35a11 11 0 0 0 1 4.28 6.75 6.75 0 0 0 2.64 2.89 9.75 9.75 0 0 0 5 1.07 20.25 20.25 0 0 0 4.4-.5 18.39 18.39 0 0 0 4.33-1.52l.38 8.93a22.46 22.46 0 0 1-5.6 1.64 36.55 36.55 0 0 1-5.85.5 21.27 21.27 0 0 1-8.43-1.38 11.43 11.43 0 0 1-4.91-3.9 14.49 14.49 0 0 1-2.33-6.23 54.81 54.81 0 0 1-.57-8.24V39.17h-12.84v-8.3h12.83V14.14h9.81v16.73h17.36v8.3zm64.66 39.88a29.87 29.87 0 0 1-11.57 9.5 36.7 36.7 0 0 1-14.59 2.71 30.43 30.43 0 0 1-12.46-2.46 28.05 28.05 0 0 1-9.37-6.6 29 29 0 0 1-5.91-9.81 34.8 34.8 0 0 1-2.08-12.08 33.73 33.73 0 0 1 2.26-12.52 29 29 0 0 1 6.29-9.79 28.27 28.27 0 0 1 9.56-6.35 31.59 31.59 0 0 1 12.08-2.26A30.07 30.07 0 0 1 659 31.44a24.55 24.55 0 0 1 8.87 6 27.16 27.16 0 0 1 5.72 9.69 39.18 39.18 0 0 1 2 13v3.15H628.1a20.6 20.6 0 0 0 1.82 7.23 20.94 20.94 0 0 0 4.09 6 18.86 18.86 0 0 0 5.91 4.09 18.05 18.05 0 0 0 7.42 1.51 23.46 23.46 0 0 0 10.82-2.26 24.59 24.59 0 0 0 7.93-6.67zm-8.43-24q-.25-7.55-4.91-12.08t-12.83-4.53q-8.18 0-13.21 4.53a19 19 0 0 0-6 12.08h37zm25.79-10.22q0-4-.25-7.55t-.25-6.42h9.31q0 2.39.13 4.78t.13 4.91h.25a17 17 0 0 1 2.8-4.14 20.43 20.43 0 0 1 4.34-3.59A23.21 23.21 0 0 1 713 30.3a23.53 23.53 0 0 1 6.79-.94 16.49 16.49 0 0 1 2 .13 8.9 8.9 0 0 1 2 .5l-.63 9.94a18.31 18.31 0 0 0-5.28-.75q-9.06 0-13.15 5.85t-4.09 16v28.71h-9.81V44.83zm46.29-13.96H747v8.55h.25A28.93 28.93 0 0 1 756.6 32a26.19 26.19 0 0 1 11.76-2.64A33.29 33.29 0 0 1 781 31.69a28.2 28.2 0 0 1 9.75 6.48A29.87 29.87 0 0 1 797 48a32.89 32.89 0 0 1 2.26 12.33A32.89 32.89 0 0 1 797 72.64a30.38 30.38 0 0 1-6.23 9.81 28.23 28.23 0 0 1-9.37 6.48 29 29 0 0 1-11.57 2.33A27.25 27.25 0 0 1 756 87.79a22.43 22.43 0 0 1-8.74-8.49H747v39.12h-9.81V30.87zM747 60.31a24.93 24.93 0 0 0 1.45 8.62 19.89 19.89 0 0 0 10.79 11.57 22.71 22.71 0 0 0 17.23 0 19.88 19.88 0 0 0 10.83-11.58 26.39 26.39 0 0 0 0-17.23 19.88 19.88 0 0 0-10.82-11.57 22.71 22.71 0 0 0-17.23 0 19.89 19.89 0 0 0-10.82 11.57 24.94 24.94 0 0 0-1.43 8.62zm62.5-15.48q0-4-.25-7.55t-.25-6.41h9.31q0 2.39.13 4.78t.13 4.91h.25a17 17 0 0 1 2.83-4.15 20.43 20.43 0 0 1 4.35-3.59 23.21 23.21 0 0 1 5.66-2.52 23.53 23.53 0 0 1 6.79-.94 16.49 16.49 0 0 1 2 .13 8.9 8.9 0 0 1 2 .5l-.63 9.94a18.31 18.31 0 0 0-5.28-.75q-9.06 0-13.15 5.85t-4.09 16v28.71h-9.8V44.83zm45.41-36.98a7 7 0 0 1 2.08-5 7.14 7.14 0 0 1 10.19 0 7 7 0 0 1 2.08 5 7.17 7.17 0 1 1-14.35 0zm2.26 23H867v58.89h-9.81V30.87zm33.09 43.42a24.75 24.75 0 0 0 6.35 5.79 16.36 16.36 0 0 0 8.74 2.14 21.66 21.66 0 0 0 4.59-.5 13.76 13.76 0 0 0 4.21-1.64 9.33 9.33 0 0 0 3-2.83 7.2 7.2 0 0 0 1.13-4.09 6.61 6.61 0 0 0-1.07-3.9 9.38 9.38 0 0 0-2.83-2.58 16.07 16.07 0 0 0-4-1.7q-2.26-.63-4.65-1.13-4.15-.88-7.92-2a25.78 25.78 0 0 1-6.6-3 13.9 13.9 0 0 1-4.53-4.72 14.51 14.51 0 0 1-1.7-7.42 14.83 14.83 0 0 1 1.89-7.55 16.36 16.36 0 0 1 5-5.41 24.66 24.66 0 0 1 7-3.27 28.72 28.72 0 0 1 8.13-1.1 27 27 0 0 1 11.64 2.52 18.14 18.14 0 0 1 8.36 8.17l-8.18 5.41a15.23 15.23 0 0 0-5-5.09 13.73 13.73 0 0 0-7.49-1.95 17.38 17.38 0 0 0-4.09.5 12.81 12.81 0 0 0-3.71 1.51 8.83 8.83 0 0 0-2.7 2.58 6.22 6.22 0 0 0-1.07 3.59 4.6 4.6 0 0 0 1.24 3.2 10.53 10.53 0 0 0 3.27 2.33 28.48 28.48 0 0 0 4.73 1.76 57 57 0 0 0 5.6 1.26 56.69 56.69 0 0 1 7.42 1.95 21.55 21.55 0 0 1 6.16 3.21 14.25 14.25 0 0 1 4.15 5 16.48 16.48 0 0 1 1.51 7.42 17 17 0 0 1-2 8.55 16.65 16.65 0 0 1-5.32 5.72 23.43 23.43 0 0 1-7.52 3.25 37 37 0 0 1-8.62 1 33.15 33.15 0 0 1-13-2.33q-5.47-2.33-9.87-8.62zm104.91 4.78a29.87 29.87 0 0 1-11.57 9.5 36.7 36.7 0 0 1-14.6 2.7 30.43 30.43 0 0 1-12.45-2.45 28.05 28.05 0 0 1-9.37-6.6 29 29 0 0 1-5.91-9.81 34.8 34.8 0 0 1-2.08-12.08 33.73 33.73 0 0 1 2.26-12.52 29 29 0 0 1 6.3-9.79 28.27 28.27 0 0 1 9.56-6.35 31.59 31.59 0 0 1 12.08-2.26 30.07 30.07 0 0 1 11.32 2.08 24.55 24.55 0 0 1 8.87 6 27.16 27.16 0 0 1 5.72 9.69 39.18 39.18 0 0 1 2 13v3.15h-47.54a20.6 20.6 0 0 0 1.82 7.23 20.94 20.94 0 0 0 4.09 6 18.86 18.86 0 0 0 5.91 4.09A18.05 18.05 0 0 0 969 82.2a23.46 23.46 0 0 0 10.82-2.26 24.59 24.59 0 0 0 7.93-6.67zm-8.43-24q-.25-7.55-4.91-12.08T969 38.42q-8.18 0-13.21 4.53a19 19 0 0 0-6 12.08h37zm15.55-22.61H998v-1.35h10v1.35h-4.29V44h-1.46V32.44zm8.47-1.35h1.46l4.66 7 4.66-7h1.46V44h-1.44V33.54l-4.66 6.92h-.07l-4.66-6.9V44h-1.41V31.09z" fill="#b2b2b2"/></svg>