<svg id="Layer_1" xmlns="http://www.w3.org/2000/svg" viewBox="0 0 200 50"><style>.st0{fill:#fff}</style><path class="st0" d="M54.7 40c-3.5 0-6.3-1.1-8.4-3.2-2.1-2.1-3.1-5.1-3.1-8.9 0-3.7 1-6.6 3.1-8.8 2.1-2.2 4.9-3.3 8.4-3.3.9 0 1.8.1 2.5.2s1.5.2 2.1.4c.5.2 1.1.4 1.7.6.6.3 1.1.5 1.5.7v5.5H62c-.3-.3-.6-.5-1.1-.9-.4-.3-.9-.7-1.5-1-.5-.3-1.1-.6-1.8-.8-.7-.2-1.3-.3-2.1-.3-.9 0-1.6.1-2.3.4-.7.3-1.4.7-2 1.4-.6.6-1.1 1.4-1.4 2.4-.4 1-.6 2.2-.6 3.6s.2 2.7.6 3.6c.4 1 .9 1.8 1.5 2.4.6.6 1.3 1 2 1.3.8.3 1.5.4 2.2.4.8 0 1.5-.1 2.2-.4.7-.2 1.3-.5 1.8-.8.5-.3 1-.6 1.4-1 .4-.3.7-.6 1-.9h.5V38c-.4.2-.9.4-1.5.7-.6.3-1.2.5-1.7.6-.7.2-1.4.4-2.1.5-.4.1-1.3.2-2.4.2m27.4-.5h-5.5v-8.7c0-.7 0-1.4-.1-2.1-.1-.7-.2-1.2-.3-1.5-.2-.4-.5-.7-.8-.8-.4-.2-.8-.3-1.4-.3-.5 0-.9.1-1.4.2-.5.2-1 .4-1.5.8v12.4h-5.5V15.3h5.5V24c.9-.8 1.8-1.3 2.6-1.8.9-.4 1.8-.6 2.8-.6 1.8 0 3.2.6 4.1 1.7 1 1.1 1.4 2.8 1.4 4.9v11.3zM95 40c-3.3 0-5.9-.8-7.7-2.4-1.8-1.6-2.7-3.8-2.7-6.7 0-2.9.8-5.1 2.5-6.8 1.7-1.7 4-2.6 7-2.6 2.7 0 4.8.7 6.1 2.2 1.4 1.4 2 3.5 2 6.2v2h-12c.1.8.2 1.5.5 2.1.3.6.7 1 1.2 1.3.5.3 1 .6 1.7.7.6.1 1.3.2 2.1.2.6 0 1.3-.1 1.9-.2.6-.1 1.2-.3 1.7-.6.5-.2.9-.4 1.3-.7.4-.2.7-.4.9-.6h.6v4.5c-.4.2-.9.3-1.2.5-.4.1-.9.3-1.5.5s-1.2.3-1.9.4c-.8-.1-1.6 0-2.5 0m1.9-11.5c0-1.2-.3-2-.8-2.7-.5-.6-1.3-.9-2.4-.9-1.1 0-1.9.3-2.5 1-.6.6-.9 1.5-1 2.6h6.7zm14 11.5c-1.3 0-2.5-.1-3.7-.4-1.2-.3-2.1-.6-2.9-1V34h.5c.3.2.6.4.9.7.3.2.8.5 1.4.7.5.2 1.1.4 1.7.6.6.2 1.3.3 2.1.3s1.5-.1 2-.4c.6-.2.9-.6.9-1.1 0-.4-.1-.7-.4-.9-.3-.2-.8-.4-1.6-.6-.4-.1-.9-.2-1.6-.3-.6-.1-1.2-.3-1.7-.4-1.4-.4-2.4-1.1-3.1-1.9-.7-.8-1-1.9-1-3.3 0-.8.2-1.5.5-2.2.4-.7.9-1.3 1.6-1.8.7-.5 1.6-.9 2.6-1.3 1-.3 2.2-.5 3.5-.5 1.2 0 2.4.1 3.4.4 1 .2 1.9.5 2.6.9v4.4h-.4c-.2-.1-.5-.3-.9-.6-.4-.2-.8-.5-1.2-.6-.5-.2-1-.4-1.5-.5-.6-.1-1.2-.2-1.8-.2-.8 0-1.5.1-2 .4-.6.3-.8.6-.8 1.1 0 .4.1.7.4.9.3.2.9.5 1.8.7.5.1 1 .2 1.6.3.6.1 1.2.3 1.8.4 1.3.4 2.2 1 2.9 1.8.7.8 1 1.8 1 3.1 0 .8-.2 1.6-.6 2.3-.4.7-.9 1.4-1.7 1.9-.8.6-1.6 1-2.7 1.3-.9.2-2.2.4-3.6.4m17 0c-1.3 0-2.5-.1-3.7-.4-1.2-.3-2.1-.6-2.9-1V34h.5c.3.2.6.4.9.7.3.2.8.5 1.4.7.5.2 1.1.4 1.7.6.6.2 1.3.3 2.1.3s1.5-.1 2-.4c.6-.2.9-.6.9-1.1 0-.4-.1-.7-.4-.9-.3-.2-.8-.4-1.6-.6-.4-.1-1-.2-1.6-.3-.6-.1-1.2-.3-1.7-.4-1.4-.4-2.4-1.1-3.1-1.9-.7-.8-1-1.9-1-3.3 0-.8.2-1.5.5-2.2.4-.7.9-1.3 1.6-1.8.7-.5 1.6-.9 2.6-1.3 1-.3 2.2-.5 3.5-.5 1.2 0 2.4.1 3.4.4 1 .2 1.9.5 2.6.9v4.4h-.4c-.2-.1-.5-.3-.9-.6-.4-.2-.8-.5-1.2-.6-.5-.2-1-.4-1.6-.5-.6-.1-1.2-.2-1.8-.2-.8 0-1.5.1-2 .4-.5.3-.8.6-.8 1.1 0 .4.1.7.4.9.3.2.9.5 1.8.7.5.1 1 .2 1.6.3.6.1 1.2.3 1.8.4 1.3.4 2.2 1 2.9 1.8.7.8 1 1.8 1 3.1 0 .8-.2 1.6-.6 2.3-.4.7-.9 1.4-1.7 1.9-.8.6-1.6 1-2.7 1.3-.9.2-2.1.4-3.5.4m11.9-.5h-2.4v-2.8h2.4v2.8zm6.1.2c-.8 0-1.5-.1-2.1-.4-.6-.2-1.2-.6-1.7-1.1-.5-.5-.8-1.1-1.1-1.8-.3-.7-.4-1.6-.4-2.5 0-1 .1-1.8.4-2.5.3-.7.6-1.3 1.1-1.8.4-.5 1-.9 1.6-1.1.7-.3 1.4-.4 2.1-.4.6 0 1.2.1 1.8.3.6.2 1.1.4 1.5.6v2.1h-.1c-.1-.1-.3-.2-.5-.4-.2-.1-.5-.3-.8-.4l-.9-.3c-.4-.1-.7-.1-1-.1-1 0-1.8.4-2.4 1.1-.6.7-.9 1.8-.9 3.1s.3 2.3.9 3c.6.7 1.4 1.1 2.4 1.1.6 0 1.2-.1 1.8-.4.6-.2 1-.6 1.5-1h.1v2.1c-.2.1-.4.2-.7.3-.3.1-.5.2-.8.3-.3.1-.6.2-.9.2h-.9m14.6-5.7c0 1.8-.5 3.3-1.4 4.3-.9 1-2.1 1.5-3.6 1.5-1.6 0-2.8-.5-3.7-1.6-.9-1-1.3-2.5-1.3-4.2 0-1.8.5-3.3 1.4-4.3.9-1 2.1-1.5 3.6-1.5s2.7.5 3.6 1.5c.9 1 1.4 2.5 1.4 4.3m-2 0c0-1.4-.3-2.5-.8-3.2-.5-.7-1.3-1-2.3-1-1 0-1.7.3-2.3 1-.5.7-.8 1.7-.8 3.2 0 1.4.3 2.4.8 3.1.5.7 1.3 1.1 2.3 1.1 1 0 1.7-.3 2.2-1 .6-.8.9-1.8.9-3.2m16 5.5v-6.4c0-.5 0-1-.1-1.4 0-.4-.1-.8-.2-1-.1-.3-.3-.5-.6-.6-.2-.1-.6-.2-1-.2s-.8.1-1.2.3c-.4.2-.9.6-1.4 1v8.1h-1.9v-6.4c0-.5 0-1-.1-1.4 0-.4-.1-.8-.2-1-.1-.3-.3-.5-.6-.6-.3-.1-.6-.2-1-.2s-.8.1-1.3.4c-.4.2-.9.6-1.3 1v8.2h-1.9v-11h1.9v1.2c.5-.5 1-.9 1.5-1.1.5-.3 1-.4 1.6-.4.7 0 1.2.1 1.8.4.5.3.9.8 1.2 1.5.6-.6 1.1-1.1 1.7-1.4.5-.3 1.1-.5 1.8-.5.5 0 .9.1 1.3.2s.7.4 1 .7c.3.3.5.8.7 1.3.2.5.2 1.1.2 1.9v7.2h-1.9z"/><path class="st0" d="M48.7 14.6c-1.6.7-3 1.6-4.2 2.9-2.5 2.6-3.8 6.1-3.8 10.4 0 4.4 1.3 8 3.8 10.5s5.8 3.8 9.8 3.9c1.3.7 2 1.6 2 2.5 0 .6-.4 1.3-1.1 1.8-1 .9-2.8 1.6-5 2.2-.1 0-.2.1-.3.1-2.6.7-6.1 1.1-9.9 1.1-3.8 0-7.3-.4-10.1-1.1-.1 0-.2-.1-.3-.1-2.2-.6-3.9-1.3-5-2.2-.7-.6-1.1-1.2-1.1-1.8 0-1.3 1.4-2.4 3.8-3.3-1.2-.7-1.9-1.6-1.9-2.5-.1-.5 0-1 .2-1.4 1.2-2.6 7.1-2.8 8.4-4.9 1.6-3.3 2-11.9 2.1-14.5-4.5-.4-5.8-.9-5.8-2.2 0-1.1.4-1.7 3.8-2.2 0 0 .3-.1.8-.2-1.6-1.4-2.7-3.5-2.7-5.9 0-3.3 2-6 4.7-7.2C38 .2 39 0 40 0s2 .2 2.9.6c2.8 1.2 4.7 3.9 4.7 7.2 0 2.4-1 4.5-2.7 5.9.3 0 .6.1.9.2 1.5.2 2.4.4 2.9.7"/></svg>