<svg id="Layer_1" xmlns="http://www.w3.org/2000/svg" viewBox="0 0 101.8 137.8"><style>.st0{fill:#e0e0e0}.st1{fill:#fff;stroke:#ccc;stroke-width:2;stroke-linecap:round;stroke-linejoin:round}.st2{opacity:.5}.st3{fill:#cbcbcb}.st4{fill:#5bbc2e}.st5{fill:#b0e44f}.st6{fill:none;stroke:#7d7d7d;stroke-width:2.5;stroke-linecap:round;stroke-linejoin:round}.st7{fill:#d3f7fe}.st8{fill:#ccc}.st9{fill:#fff}.st10{fill:#b2b2b2}.st11{fill:none;stroke:#ccc;stroke-width:2;stroke-linecap:square}.st11,.st12,.st13,.st14{stroke-linejoin:round}.st12{fill:#c8ec84}.st12,.st13,.st14{stroke:#7d7d7d;stroke-width:2.5;stroke-linecap:round}.st13{fill:#a1edfe}.st14{fill:#9ae57c}</style><title>1-</title><path class="st0" d="M7.6 9.3h86.5c3.4 0 6.2 2.8 6.2 6.2v113.6c0 3.4-2.8 6.2-6.2 6.2H7.6c-3.4 0-6.2-2.8-6.2-6.2V15.5c0-3.4 2.8-6.2 6.2-6.2z"/><path class="st1" d="M9.5 95.6h82.7v30.6H9.5z"/><g class="st2"><path class="st3" d="M16 102.2h6c.5 0 .9.4.9.9v6.1c0 .5-.4.9-.9.9h-6c-.5 0-.9-.4-.9-.9v-6.1c0-.5.4-.9.9-.9z"/><path class="st4" d="M16 113.8h6c.5 0 .9.4.9.9v6.1c0 .5-.4.9-.9.9h-6c-.5 0-.9-.4-.9-.9v-6.1c0-.5.4-.9.9-.9z"/><path class="st5" d="M28.8 102.2h6c.5 0 .9.4.9.9v6.1c0 .5-.4.9-.9.9h-6c-.5 0-.9-.4-.9-.9v-6.1c0-.5.4-.9.9-.9z"/><path class="st3" d="M28.8 113.8h6c.5 0 .9.4.9.9v6.1c0 .5-.4.9-.9.9h-6c-.5 0-.9-.4-.9-.9v-6.1c0-.5.4-.9.9-.9z"/><path class="st4" d="M41.5 102.2h6.1c.5 0 .9.4.9.9v6.1c0 .5-.4.9-.9.9h-6.1c-.5 0-.9-.4-.9-.9v-6.1c0-.5.4-.9.9-.9z"/><path class="st3" d="M41.5 113.8h6.1c.5 0 .9.4.9.9v6.1c0 .5-.4.9-.9.9h-6.1c-.5 0-.9-.4-.9-.9v-6.1c0-.5.4-.9.9-.9zm12.7-11.6h6.1c.5 0 .9.4.9.9v6.1c0 .5-.4.9-.9.9h-6.1c-.5 0-.9-.4-.9-.9v-6.1c0-.5.4-.9.9-.9z"/><path class="st5" d="M54.2 113.8h6.1c.5 0 .9.4.9.9v6.1c0 .5-.4.9-.9.9h-6.1c-.5 0-.9-.4-.9-.9v-6.1c0-.5.4-.9.9-.9z"/><path class="st3" d="M66.9 102.2H73c.5 0 .9.4.9.9v6.1c0 .5-.4.9-.9.9h-6.1c-.5 0-.9-.4-.9-.9v-6.1c.1-.5.5-.9.9-.9zm0 11.6H73c.5 0 .9.4.9.9v6.1c0 .5-.4.9-.9.9h-6.1c-.5 0-.9-.4-.9-.9v-6.1c.1-.5.5-.9.9-.9z"/><path class="st5" d="M79.7 102.2h6.1c.5 0 .9.4.9.9v6.1c0 .5-.4.9-.9.9h-6.1c-.5 0-.9-.4-.9-.9v-6.1c0-.5.4-.9.9-.9z"/><path class="st3" d="M79.7 113.8h6.1c.5 0 .9.4.9.9v6.1c0 .5-.4.9-.9.9h-6.1c-.5 0-.9-.4-.9-.9v-6.1c0-.5.4-.9.9-.9z"/></g><path class="st6" d="M7.6 10.6h86.5c3.4 0 6.2 2.8 6.2 6.2v113.6c0 3.4-2.8 6.2-6.2 6.2H7.6c-3.4 0-6.2-2.8-6.2-6.2V16.8c0-3.4 2.8-6.2 6.2-6.2z"/><path class="st7" d="M9.5 19.4h82.7v66H9.5z"/><path class="st8" d="M16 100.3h6c.5 0 .9.4.9.9v6.1c0 .5-.4.9-.9.9h-6c-.5 0-.9-.4-.9-.9v-6.1c0-.5.4-.9.9-.9z"/><path class="st4" d="M16 111.9h6c.5 0 .9.4.9.9v6.1c0 .5-.4.9-.9.9h-6c-.5 0-.9-.4-.9-.9v-6.1c0-.5.4-.9.9-.9z"/><path class="st5" d="M28.8 100.3h6c.5 0 .9.4.9.9v6.1c0 .5-.4.9-.9.9h-6c-.5 0-.9-.4-.9-.9v-6.1c0-.5.4-.9.9-.9z"/><path class="st8" d="M28.8 111.9h6c.5 0 .9.4.9.9v6.1c0 .5-.4.9-.9.9h-6c-.5 0-.9-.4-.9-.9v-6.1c0-.5.4-.9.9-.9z"/><path class="st4" d="M41.5 100.3h6.1c.5 0 .9.4.9.9v6.1c0 .5-.4.9-.9.9h-6.1c-.5 0-.9-.4-.9-.9v-6.1c0-.5.4-.9.9-.9z"/><path class="st8" d="M41.5 111.9h6.1c.5 0 .9.4.9.9v6.1c0 .5-.4.9-.9.9h-6.1c-.5 0-.9-.4-.9-.9v-6.1c0-.5.4-.9.9-.9zm12.7-11.6h6.1c.5 0 .9.4.9.9v6.1c0 .5-.4.9-.9.9h-6.1c-.5 0-.9-.4-.9-.9v-6.1c0-.5.4-.9.9-.9z"/><path class="st5" d="M54.2 111.9h6.1c.5 0 .9.4.9.9v6.1c0 .5-.4.9-.9.9h-6.1c-.5 0-.9-.4-.9-.9v-6.1c0-.5.4-.9.9-.9z"/><path class="st8" d="M66.9 100.3H73c.5 0 .9.4.9.9v6.1c0 .5-.4.9-.9.9h-6.1c-.5 0-.9-.4-.9-.9v-6.1c.1-.5.5-.9.9-.9zm0 11.6H73c.5 0 .9.4.9.9v6.1c0 .5-.4.9-.9.9h-6.1c-.5 0-.9-.4-.9-.9v-6.1c.1-.5.5-.9.9-.9z"/><path class="st5" d="M79.7 100.3h6.1c.5 0 .9.4.9.9v6.1c0 .5-.4.9-.9.9h-6.1c-.5 0-.9-.4-.9-.9v-6.1c0-.5.4-.9.9-.9z"/><path class="st8" d="M79.7 111.9h6.1c.5 0 .9.4.9.9v6.1c0 .5-.4.9-.9.9h-6.1c-.5 0-.9-.4-.9-.9v-6.1c0-.5.4-.9.9-.9z"/><path class="st6" d="M9.5 19.4h82.7v66H9.5z"/><path class="st9" d="M20.2 83.9V29.6h61.4v54.3"/><path class="st10" d="M26.6 43.6l.8-.9c.3.3.7.6 1.1.6.4 0 .8-.3.8-.8v-4h1.3v3.9c.1.6-.1 1.2-.6 1.6-.4.4-1 .6-1.5.5-.7.1-1.4-.3-1.9-.9zm5.1-2.1c0-1.7 1.4-3.1 3.1-3.1s3.1 1.4 3.1 3.1c0 1.7-1.4 3.1-3.1 3.1s-3.1-1.4-3.1-3.1zm4.9 0c0-1-.7-1.8-1.7-1.8h-.1c-1 0-1.8.8-1.8 1.8v.1c0 1 .8 1.8 1.7 1.8h.1c1.1-.1 1.8-.9 1.8-1.9zm2.5-3h2.8c.6 0 1.1.1 1.6.5.3.3.4.6.4 1 0 .5-.3 1-.8 1.3.7.2 1.1.8 1.1 1.5 0 1.1-.9 1.6-2.2 1.6h-2.8v-5.9h-.1zm2.5 2.4c.6 0 .9-.2.9-.6 0-.4-.3-.6-.8-.6h-1.3v1.2h1.2zm.3 2.4c.6 0 .9-.2.9-.6 0-.4-.3-.6-1-.6h-1.5v1.3l1.6-.1zm5.9-4.8h2.4c1.1-.1 2.1.6 2.2 1.7v.3c0 1.2-1 2.1-2.1 2.1H49v1.8h-1.3l.1-5.9zm2.3 3c.5 0 1-.3 1-.8v-.1c0-.5-.4-.9-.9-.9H49v1.8h1.1zm3 0c0-1.7 1.4-3.1 3.1-3.1 1.7 0 3.1 1.4 3.1 3.1 0 1.7-1.4 3.1-3.1 3.1-1.7 0-3.1-1.4-3.1-3.1zm5 0c0-1-.7-1.8-1.7-1.8h-.1c-1 0-1.8.8-1.8 1.8v.1c0 1 .7 1.8 1.7 1.8h.1c1-.1 1.8-.9 1.8-1.9zm2 2.1l.8-.9c.5.4 1.1.7 1.8.7.5 0 .8-.2.8-.6 0-.3-.2-.5-1.2-.8-1.2-.3-2-.6-2-1.8 0-1 .9-1.8 1.9-1.8h.2c.8 0 1.6.3 2.2.8l-.7 1c-.4-.3-1-.5-1.5-.6-.3-.1-.7.1-.7.5v.1c0 .4.2.5 1.3.8 1.2.3 1.9.7 1.9 1.8 0 1-.9 1.9-1.9 1.9h-.3c-1-.2-1.9-.5-2.6-1.1zm7.1-3.9h-1.8v-1.2h4.9v1.2h-1.8v4.7h-1.3v-4.7z"/><path class="st11" d="M27.3 55h20.2m-20.2 5.6h47.2m-47.2 5.6h47.2m-47.2 5.5h47.2m-47.2 5.6h47.2"/><path class="st12" d="M60 5.5V4.4c0-1.7 1.4-3.1 3.1-3.1 1.7 0 3.1 1.4 3.1 3.1v1.1"/><path class="st13" d="M69.5 5.5V4.4c0-1.7 1.4-3.1 3.1-3.1 1.7 0 3.1 1.4 3.1 3.1v1.1"/><path class="st14" d="M79.4 5.5V4.4c0-1.7 1.4-3.1 3.1-3.1 1.7 0 3.1 1.4 3.1 3.1v1.1"/><path class="st6" d="M56.4 9.5V6.2h31.9v3.3"/></svg>