<svg id="Layer_1" xmlns="http://www.w3.org/2000/svg" viewBox="0 0 200 50"><style>.st0{fill:#fff}</style><path class="st0" d="M58.6 7c-.7 4.9-5.7 8.7-11.7 8.7H26.1c-1.8 0-3.5.3-5.2 1-1.3.5-2.6 1.2-3.7 2.2C21.4 11.6 29.3 7 37.8 7h20.8zM26.1 18C20 18 15 22.6 15 28.3c0 5.5 3 9.3 9.6 10-1.9-1-2.8-2.9-2.8-5.2 0-3.5 3-6.3 6.8-6.3h5.6c6 0 11-3.8 11.7-8.7H26.1V18zm53.3 0h3.5v19.7h-3.5V18zm25.5 6.7c-1.1-1.3-2.8-2.2-5.3-2.2-3.5 0-6.9 2.7-6.9 7.2v.1c0 4.5 3.3 7.2 6.9 7.2 2 .1 4-.8 5.3-2.3v1c0 3-1.7 4.6-4.8 4.6-1.9 0-3.8-.6-5.4-1.6l-1.3 2.6c2 1.2 4.4 1.8 6.7 1.8 2.7 0 4.8-.7 6.2-2 1.3-1.2 1.9-3.1 1.9-5.6V22.8h-3.5l.2 1.9zm.1 5.1c0 2.3-1.9 4.2-4.3 4.2h-.1c-2.3.1-4.2-1.7-4.3-4v-.4c-.1-2.3 1.7-4.2 4-4.2h.3c2.4-.1 4.4 1.8 4.4 4.1v.3zm15-7.3c-2.3 0-3.7.8-4.7 2.2V18h-3.5v19.7h3.5v-8.4c0-2.3 1.4-3.7 3.4-3.7s3.2 1.3 3.2 3.6v8.5h3.5v-9.5c0-3.4-2-5.7-5.4-5.7zm46.1.2c-2 0-3.9.4-5.7 1.2l.9 2.7c1.4-.6 2.8-.9 4.3-.9 2.4 0 3.7 1.1 3.7 3.2v.1c-1.3-.2-2.7-.4-4.1-.4-3.7 0-6.2 1.6-6.2 4.8 0 3 2.5 4.6 5.3 4.6 1.9.1 3.7-.7 4.9-2.2v1.9h3.4v-8.8c0-1.9-.5-3.5-1.6-4.6-1-1.1-2.7-1.6-4.9-1.6zm3.3 9.7c0 1.9-1.7 3.2-4 3.2-1.7 0-2.9-.8-2.9-2.3v-.1c0-1.6 1.3-2.5 3.5-2.5 1.2 0 2.3.1 3.4.3v1.4zm10.3-6.6v-2.9h-3.5v14.9h3.5v-5.7c0-3.9 2.1-6 5.1-6h.2v-3.4c-2.6 0-4.4 1-5.3 3.1zm-93.4-2.9h3.5v14.9h-3.5V22.9zm-9-4.9H62.4c-.8 0-1.5.7-1.5 1.5v18.2h3.5v-7.2h6.5c2.2 0 4-1.4 4.2-3.2H64.4v-6.2h8.7c2.2.1 3.9-1.3 4.2-3.1m9 0v3.1c2-.2 3.5-1.5 3.8-3.1h-3.8zm71 16.6c-1.1-1.2-2.9-1.5-4.4-.6-1.1.6-2.4 1-3.6.9-3.8 0-6.6-3.1-6.6-7v-.1c0-3.9 2.8-7 6.6-7 1.3 0 2.5.3 3.6.9 1.4.7 3.2.2 4.3-1.1-2.1-2.1-4.9-3.2-7.8-3.1-6.1 0-10.3 4.6-10.3 10.2v.1c0 5.7 4.3 10.1 10.2 10.1 3.7.2 6-1.2 8-3.3zm-23.4-8.8c2-.1 3.6-1.3 3.8-2.9h-4.5V18h-3.5v4.8h-2.4v2.9h2.4v7.8c0 3.3 1.8 4.4 4.3 4.4 1.1 0 2.2-.2 3.1-.8v-2.8c-.7.3-1.4.5-2.1.5-1.2 0-1.9-.5-1.9-1.9v-7.3h.8v.2z"/></svg>