<svg id="Layer_1" xmlns="http://www.w3.org/2000/svg" viewBox="0 0 128 127.4"><style>.st0,.st1{fill:#fff;stroke:#7d7d7d;stroke-width:2.5;stroke-linecap:round;stroke-linejoin:round}.st1{fill:#b2b2b2}.st2{fill:#a7eefe}.st3{fill:#a0e784}.st4{fill:#cbed8b}.st5{fill:#f2f2f2}.st6{fill:#d0f096}.st7{fill:#d0ef95}.st8,.st9{fill:#a9e98f;stroke:#a9e98f;stroke-width:2;stroke-linecap:round;stroke-linejoin:round}.st9{fill:none}.st10{fill:#b0e44f}.st11{fill:#79e6fd}.st12{fill:#b5f1fe}.st13{fill:#e0e0e0}.st14{fill:#fff;stroke:#b2b2b2;stroke-width:2.5;stroke-linecap:round;stroke-linejoin:round}</style><title>1-</title><path class="st0" d="M1.5 38.4v81.4h125V38.4"/><path class="st1" d="M126.5 33.3c0-3-2.4-5.5-5.5-5.5H7c-3 0-5.5 2.4-5.5 5.5v5.1h125v-5.1z"/><path class="st2" d="M10.4 35.5c1-.1 1.8-1 1.7-2-.1-.9-.8-1.7-1.7-1.7-1 .1-1.8 1-1.7 2 .1.9.8 1.7 1.7 1.7z"/><path class="st3" d="M17.5 35.5c1-.1 1.8-1 1.7-2-.1-.9-.8-1.7-1.7-1.7-1 .1-1.8 1-1.7 2 .1.9.8 1.7 1.7 1.7z"/><path class="st4" d="M24.6 35.5c1-.1 1.8-1 1.7-2-.1-.9-.8-1.7-1.7-1.7-1 .1-1.8 1-1.7 2 .1.9.8 1.7 1.7 1.7z"/><path class="st5" d="M43.1 49.8h41.8v59.7H43.1z"/><path class="st6" d="M50.9 18.3c.7 0 1.2-.6 1.2-1.2s-.6-1.2-1.2-1.2-1.2.6-1.2 1.2.5 1.2 1.2 1.2z"/><path class="st7" d="M71.2 4.1c1-.1 1.8-1 1.7-2-.1-.9-.8-1.7-1.7-1.7-1 .1-1.8 1-1.7 2 0 .9.7 1.6 1.7 1.7z"/><path class="st8" d="M69.6 19.5s2.6-2.5 5.1 0c-2.6-2.5 0-5.1 0-5.1s-2.6 2.6-5.1 0c2.6 2.6 0 5.1 0 5.1z"/><path class="st9" d="M56.6 1.1v7m3.5-3.5h-7"/><path class="st10" d="M50.2 93.5h26.6c.1 0 .2.1.2.2v7.6c0 .1-.1.2-.2.2H50.2c-.1 0-.2-.1-.2-.2v-7.6c0-.1.1-.2.2-.2z"/><circle class="st11" cx="64" cy="72.4" r="15.5"/><path class="st12" d="M64 64.1c3.3 0 6 2.7 6 6v2c0 3.3-2.7 6-6 6s-6-2.7-6-6v-2c0-3.3 2.7-6 6-6z"/><path class="st12" d="M61.9 77h3.8v3.8h-3.8z"/><path class="st12" d="M63.9 78.8c-4 0-7.6 2.3-9.2 5.9 5.4 4.2 12.9 4.2 18.4.2-1.5-3.7-5.2-6.2-9.2-6.1z"/><circle class="st13" cx="22.5" cy="72.4" r="15.5"/><path class="st5" d="M22.5 64.1c3.3 0 6 2.7 6 6v2c0 3.3-2.7 6-6 6s-6-2.7-6-6v-2c0-3.3 2.7-6 6-6z"/><path class="st5" d="M20.3 77h3.8v3.8h-3.8z"/><path class="st5" d="M22.3 78.8c-4 0-7.6 2.3-9.2 5.9 5.4 4.2 12.9 4.2 18.4.2-1.4-3.7-5.1-6.2-9.2-6.1z"/><circle class="st13" cx="105.6" cy="72.4" r="15.5"/><path class="st5" d="M105.5 64.1c3.3 0 6 2.7 6 6v2c0 3.3-2.7 6-6 6s-6-2.7-6-6v-2c.1-3.3 2.7-6 6-6z"/><path class="st5" d="M103.4 77h3.8v3.8h-3.8z"/><path class="st5" d="M105.4 78.8c-4 0-7.6 2.3-9.2 5.9 5.4 4.2 12.9 4.2 18.4.2-1.4-3.7-5.1-6.2-9.2-6.1z"/><path class="st14" d="M60.3 115.6v-12.2c0-1 .8-1.8 1.8-1.8s1.8.8 1.8 1.8v5.2h3.7c2.1 0 3.7 1.7 3.7 3.7v6.3c0 4.1-3.3 7.4-7.3 7.4-4.1 0-7.3-3.3-7.3-7.4v-3.7c0-2 1.6-3.7 3.6-3.9"/></svg>