<svg id="Layer_1" xmlns="http://www.w3.org/2000/svg" width="30" height="30" viewBox="-2 4 30 30"><style>.st0{fill:#b2b2b2}.st1{fill:#7d7d7d}</style><circle class="st0" cx="13" cy="19" r="15"/><path class="st1" d="M20.9 22.3c-.1 1.3-.4 2.4-1.3 3.4-.9.9-2.1 1.2-3.4 1.3-1.1.1-2.2.1-3.3.1s-2.2 0-3.3-.1c-1.3-.1-2.4-.4-3.4-1.3-.9-.9-1.2-2.1-1.3-3.4-.1-1.1-.1-2.2-.1-3.3 0-1.1 0-2.2.1-3.3.1-1.3.4-2.4 1.3-3.4.9-.9 2.1-1.2 3.4-1.3 1.1-.1 2.2-.1 3.3-.1s2.2 0 3.3.1c1.3.1 2.4.4 3.4 1.3.9.9 1.2 2.1 1.3 3.4.1 1.1.1 2.2.1 3.3 0 1.1 0 2.2-.1 3.3zM8.3 12.8c-.4.1-.6.3-.9.6-.3.3-.5.6-.6.9-.4 1.1-.3 3.6-.3 4.7 0 1.2-.1 3.7.3 4.7.1.4.3.6.6.9.3.3.6.5.9.6 1.1.4 3.6.3 4.7.3s3.7.1 4.7-.3c.4-.1.6-.3.9-.6.3-.3.5-.6.6-.9.4-1.1.3-3.6.3-4.7 0-1.2.1-3.7-.3-4.7-.1-.4-.3-.6-.6-.9-.3-.3-.6-.5-.9-.6-1.1-.4-3.6-.3-4.7-.3s-3.7-.2-4.7.3zM13 23.1c-2.3 0-4.1-1.8-4.1-4.1s1.8-4.1 4.1-4.1 4.1 1.8 4.1 4.1-1.8 4.1-4.1 4.1zm0-6.8c-1.5 0-2.7 1.2-2.7 2.7s1.2 2.7 2.7 2.7 2.7-1.2 2.7-2.7-1.2-2.7-2.7-2.7zm4.3-.6c-.5 0-1-.4-1-1 0-.5.4-1 1-1 .5 0 1 .4 1 1-.1.6-.5 1-1 1z"/></svg>