<svg xmlns="http://www.w3.org/2000/svg" preserveAspectRatio="xMidYMid" width="40" height="29" viewBox="0 0 40 29"><defs><style>.cls-1{fill:#e0e0e0;opacity:1;fill-rule:evenodd}</style></defs><path d="M16.61.005v4.873c-2.589 0-4.999.819-7.23 2.457-2.231 1.638-3.347 3.594-3.347 5.868 0 1.354.551 2.03 1.653 2.03.248 0 .743-.094 1.487-.284.772-.162 1.391-.243 1.86-.243 1.514 0 2.94.602 4.276 1.807 1.336 1.204 2.003 2.862 2.003 4.974 0 2.058-.688 3.824-2.065 5.3C13.87 28.262 11.983 29 9.586 29c-2.864 0-5.178-1.063-6.941-3.188C.883 23.687.001 20.729.001 16.939c0-5.225 1.618-9.32 4.854-12.284C8.092 1.69 12.01.141 16.61.005zm22.683 0v4.873c-2.451 0-4.827.806-7.127 2.417-2.3 1.61-3.45 3.58-3.45 5.908 0 1.354.551 2.03 1.653 2.03.248 0 .743-.094 1.487-.284.772-.162 1.391-.243 1.859-.243 1.598 0 3.044.622 4.338 1.868 1.295 1.245 1.942 2.883 1.942 4.913 0 2.058-.688 3.824-2.065 5.3C36.552 28.262 34.665 29 32.269 29c-2.865 0-5.178-1.063-6.941-3.188s-2.644-5.083-2.644-8.873c0-5.225 1.618-9.32 4.854-12.284C30.775 1.69 34.693.141 39.293.005z" class="cls-1"/></svg>