<svg id="Layer_1" xmlns="http://www.w3.org/2000/svg" viewBox="0 0 200 50"><style>.st0{fill:#fff}</style><path class="st0" d="M63.8 22.1c1.5-1.7 3.2-2.6 5.4-2.2 2.8.5 4.3 2.2 4.4 5.3.1 2.6 0 5.3 0 7.9 0 1.1-.5 1.9-1.7 1.9-1.3 0-1.7-.8-1.7-2v-6.4c0-2.3-1.1-3.6-3.1-3.6s-3.3 1.3-3.3 3.6v6.3c0 1.5-.6 2.2-1.7 2.2s-1.7-.7-1.7-2.2V22.7c0-1.1 0-2.3 1.4-2.5 1.2-.4 1.7.5 2 1.9zm18.3-2.2c1.5 0 3 .4 4.3 1.1.8.4 1.2 1 .8 1.9-.4.8-1.1 1-2 .6-1.1-.5-2.1-1-3.3-.9-.9 0-1.8.1-2.1 1.2-.2 1.1.7 1.4 1.4 1.7 1.2.5 2.4.8 3.6 1.3 2.2.9 3 2.2 2.9 4.2-.2 2-1.5 3.4-3.7 4-2.6.6-4.9-.1-7.1-1.3-.9-.5-1.2-1.2-.8-2.1.5-.9 1.3-.9 2.1-.4 1.1.6 2.2 1.1 3.4 1.3.7.1 1.3 0 1.9-.2.6-.2 1-.6 1-1.3 0-.6-.3-1-.8-1.3-.7-.3-1.4-.6-2.2-.8-.7-.2-1.4-.4-2.1-.7-2.2-.9-3.1-2.4-2.9-4.4.3-1.9 1.8-3.5 3.9-3.8.7-.1 1.2-.1 1.7-.1zm8.9 7.6V25c0-1 .3-2.1-1.3-2.2-.5-.1-.7-.7-.7-1.3 0-.6.3-1.1.9-1.2 1-.1 1.1-.7 1-1.5v-1.2c.1-1 .7-1.6 1.7-1.6 1.1 0 1.6.7 1.7 1.8v.4c-.3 1.5.3 2.2 1.9 1.9.4-.1.9 0 1.3.1.7.2 1 .7 1 1.4s-.4 1.2-1.2 1.3H97c-.9.1-2-.4-2.5.3-.4.7-.2 1.8-.2 2.7V30c0 1.5.5 2 2 2 1 0 1.9.1 2 1.3.1 1.1-.8 1.4-1.7 1.6-3.6.8-5.7-.8-5.8-4.4.2-.9.2-2 .2-3zM55.9 25v7.7c0 1.2-.2 2.2-1.6 2.3-1.4.1-1.8-.9-1.8-2.1V17.3c0-1.2.5-2 1.7-2.1 1.1-.1 1.7.7 1.7 2.2V25zm-32.7-.2v12c0 .5.4 1.3-.6 1.4-.8.1-1.3-.4-1.6-1.1-.1-.3-.1-.8-.1-1.2V13.7c0-.5 0-1 .3-1.4.4-.5.9-.9 1.6-.7.7.2.4.8.4 1.3v11.9zm-4.3.1v9.3c0 .5.3 1.2-.5 1.3-.8.1-1.3-.3-1.6-1-.2-.4-.2-.9-.2-1.3V16.3c0-.6 0-1.3.5-1.8.4-.4.9-.6 1.5-.5.6.2.3.7.3 1.1v9.8zm26.9-13.1C39.9 10.9 34.1 10 28.2 9c-2-.3-2.8.3-2.8 2.4v27.3c0 2 .9 2.6 2.8 2.3 5.9-1.1 11.8-2.1 17.7-3.1 1.9-.3 2.4-.8 2.4-2.8V14.6c-.1-2-.6-2.5-2.5-2.8zM43 35.2c-3.7.5-7.3 1.2-11 1.7-1.7.3-2.2-.2-2.2-1.9V15.2c0-1.8.6-2.2 2.4-1.9 3.5.5 7.1.9 10.6 1.3 1.8.1 2.2.4 2.2 2.4v15.8c0 1.5-.5 2.2-2 2.4zm123.2-12.9c0-1.1-.2-2.1-1.5-2.2-1.3-.1-1.8.7-1.9 2-3.7-2.9-7.3-3-10-.2-2.4 2.4-2.6 6.8-.5 9.4 1.1 1.4 2.6 2.2 4.3 2.5 2.4.4 4.5-.5 6.2-2.5.2 4-1.5 5.7-5.1 5.5-1.3 0-2.6-.4-3.8-1-.9-.4-1.8-.5-2.2.6-.5 1 .2 1.6 1.1 2 2 .9 4.1 1.2 6.3 1.1 4.8-.2 7.1-2.6 7.2-7.4-.1-3.3-.1-6.6-.1-9.8zm-7.7 8.5c-2.4 0-4.2-1.8-4.2-4.1s1.8-4.1 4.2-4.1c2.4 0 4.3 1.8 4.4 4 0 2.4-1.9 4.3-4.4 4.2zM130.8 22c-1.2-1.4-2.8-2.1-4.6-2.2-2.2-.2-3.8.8-5.3 2.6-.1-1.4-.5-2.5-2-2.4-1.5.1-1.6 1.3-1.6 2.5v14.9c0 1.2.5 2.1 1.7 2.1 1.3 0 1.7-.9 1.7-2.1v-4.6c3.4 3 7.1 3.1 9.8.4 2.8-2.8 3-8.1.3-11.2zM125 32.3c-2.5 0-4.3-2-4.3-4.8 0-2.7 1.8-4.8 4.3-4.8 2.3 0 4.2 2.1 4.2 4.7.1 2.8-1.8 4.9-4.2 4.9zm48.4-3.5h8.2c1.1 0 1.8-.6 1.8-1.8.1-3-2.1-6.1-5-6.9-3.5-1-6.9.6-8.5 3.7-1.7 3.5-.8 7.8 2.1 9.9 2.8 2.1 7.3 2 9.8-.2.6-.6 1-1.2.5-2-.6-.9-1.4-.7-2.2-.2-.5.3-1 .6-1.5.8-2.5.9-5-.2-5.8-2.4-.3-.7-.2-1 .6-.9zm-.8-3.2c.4-1.7 1.9-3 3.7-3 1.8 0 3.2 1.2 3.6 2.9.1.6.1 1-.7 1-1-.1-1.9 0-2.9 0h-2.9c-.7 0-.9-.2-.8-.9zm-58.8-.1c-.1-3-1.8-5-4.7-5.4-2-.3-4-.2-5.9.5-.9.3-1.8.8-1.5 1.9.3 1.1 1.3 1.2 2.3.8 1.2-.4 2.5-.5 3.7-.4 1.5.2 2.6 1.1 2.8 2.5.1.7 0 .9-.8.7-2-.5-3.9-.6-5.9 0-2.2.6-3.4 2.3-3.4 4.4 0 2.1 1.3 3.7 3.4 4.4 2.4.7 4.6.1 6.7-1.7.1 1.4.9 1.9 2 1.7 1.1-.1 1.4-.9 1.4-1.9-.1-2.5-.1-5-.1-7.5zm-3.7 5.6c-.8 1.2-2 1.6-4 1.7-1.1 0-2.3-.7-2.4-2-.2-1.4.7-2.3 2.5-2.7.9-.2 1.7-.1 2.6.1 1.8.3 2.3 1.4 1.3 2.9zm37.9-5.9c-.1-2.6-1.6-4.4-4.1-5-2.3-.5-4.5-.3-6.8.4-.9.3-1.5.8-1.2 1.8.3 1.1 1.1 1.2 2.1.9 1.3-.4 2.6-.6 3.9-.4 1.5.1 2.5 1 2.8 2.3.1.7.2 1.2-.9.9-1.9-.5-3.9-.5-5.8 0-2.2.6-3.5 2.3-3.4 4.5.1 2.1 1.3 3.7 3.5 4.3 2.4.6 4.5.1 6.5-1.7.4 1.4.9 1.9 2 1.7 1.2-.2 1.4-1 1.4-2 0-2.5.1-5.1 0-7.7zm-3.6 5.9c-.6 1-1.9 1.6-3.4 1.6-1.7 0-2.8-.7-3-2-.2-1.4.7-2.3 2.5-2.7.9-.2 1.7-.1 2.6.1 1.8.4 2.3 1.5 1.3 3z"/></svg>