<svg id="logobar-A-approved.svg" xmlns="http://www.w3.org/2000/svg" width="1278" height="46" viewBox="333 374 1278 46"><style>.st0,.st1{fill:#b2b2b2}.st1{fill-rule:evenodd;clip-rule:evenodd}</style><path id="logo-dropbox.svg" class="st0" d="M676.6 389.3h7.6c6.5 0 10.7 4.2 10.7 10.7 0 6.5-4.1 10.7-10.7 10.7h-7.6v-21.4zm7.4 17.4c4.1 0 6.4-2.6 6.4-6.8 0-4.2-2.3-6.8-6.4-6.8h-3v13.5h3zm22.4-7.4c-.7-.4-1.4-.5-2.2-.5-1.4-.1-2.7.8-3 2.2v9.6h-4.3V395h4.4v1.5c.8-1.2 2.1-1.9 3.5-1.9.6 0 1.1.1 1.6.3v4.4zm8.7 11.7c-4.6 0-7.7-3.3-7.7-8.1s3.1-8.1 7.7-8.1 7.7 3.3 7.7 8.1c0 4.7-3.1 8.1-7.7 8.1zm0-12.6c-2.2 0-3.4 1.9-3.4 4.5s1.2 4.5 3.4 4.5 3.4-1.9 3.4-4.5-1.2-4.5-3.4-4.5zm14 18h-4.4v-21.3h4.4v1.3c1-1.1 2.5-1.6 3.9-1.6 4.6 0 7.2 3.8 7.2 8.1 0 4.4-2.6 8.1-7.2 8.1-1.5 0-2.9-.6-3.9-1.6v7zm0-11c.6 1.1 1.7 1.8 3 1.8 2.4 0 3.8-1.9 3.8-4.4 0-2.5-1.4-4.4-3.8-4.4-1.2 0-2.4.7-3 1.8v5.2zm17.4 5.2h-4.4V388h4.4v8.4c1-1.1 2.5-1.6 3.9-1.6 4.6 0 7.1 3.7 7.1 8.1s-2.6 8.1-7.1 8.1c-1.5 0-2.9-.6-3.9-1.6v1.2zm0-5.2c.5 1.1 1.7 1.8 3 1.8 2.4 0 3.8-1.9 3.8-4.4 0-2.5-1.4-4.4-3.8-4.4-1.2 0-2.4.7-3 1.8v5.2zm20.4 5.6c-4.6 0-7.7-3.3-7.7-8.1s3.1-8.1 7.7-8.1 7.7 3.3 7.7 8.1c-.1 4.8-3.2 8.1-7.7 8.1zm0-12.6c-2.2 0-3.4 1.9-3.4 4.5s1.2 4.5 3.4 4.5 3.4-1.9 3.4-4.5c-.1-2.6-1.3-4.5-3.4-4.5zm17.5 4.2l5.7 8h-4.8l-3.4-4.9-3.4 4.9h-4.6l5.7-7.9-5.3-7.6h4.8l3 4.4 3.1-4.4h4.6l-5.4 7.5zm-140.7-20.7l-11.4 7.2 7.9 6.3 11.4-7-7.9-6.5zm-11.3 19.7l11.4 7.4 7.9-6.5-11.4-7-7.9 6.1zm19.3.8l7.9 6.5 11.3-7.3-7.8-6.2-11.4 7zm19.2-13.2l-11.3-7.3-7.9 6.5 11.4 7 7.8-6.2zm-19.2 14.6l-8 6.5-3.4-2.2v2.5l11.4 6.7 11.3-6.7v-2.5l-3.4 2.2-7.9-6.5z"/><path id="logo-airbnb.svg" class="st0" d="M973.2 390.8c0 1.4-1.1 2.6-2.5 2.6s-2.6-1.1-2.6-2.5 1.1-2.6 2.5-2.6c1.5 0 2.6 1.1 2.6 2.5zm-10.5 5.2v.6c-1-1.1-2.4-1.6-3.8-1.6-4.3 0-7.7 3.5-7.7 7.7 0 4.3 3.5 7.7 7.7 7.7 1.4.1 2.8-.5 3.8-1.6v.7c0 .3.2.5.5.5h3.2v-14.7h-3.2c-.3.1-.5.4-.5.7zm0 9.3c-.7 1-1.9 1.6-3.2 1.6-2.3.1-4.3-1.7-4.4-4-.1-2.3 1.7-4.3 4-4.4h.4c1.3 0 2.4.6 3.2 1.6v5.2zm6.1-9.9h3.8v14.7h-3.8v-14.7zm56.3-.4c-1.4-.1-2.8.5-3.8 1.6v-8.2h-3.8v21.7h3.2c.3 0 .5-.2.6-.5v-.7c1 1.1 2.4 1.7 3.8 1.6 4.3-.1 7.7-3.6 7.6-7.8 0-4.2-3.4-7.6-7.6-7.7zm-.6 11.9c-1.3 0-2.4-.6-3.2-1.6v-5.2c.8-1 1.9-1.6 3.2-1.6 2.3-.1 4.3 1.7 4.4 4 .1 2.3-1.7 4.3-4 4.4h-.4zm-8.9-5.5v8.7h-3.8v-8.3c0-2.4-.8-3.4-2.9-3.4-1.2 0-2.3.6-3.1 1.4V410h-3.8v-14.7h3c.3 0 .5.2.6.5v.6c1.1-1 2.5-1.6 4-1.6 1.5-.1 3 .4 4.1 1.4 1.4 1.3 1.9 2.7 1.9 5.2zm-22.7-6.4c-1.4-.1-2.8.5-3.8 1.6v-8.2h-3.8v21.7h3.2c.3 0 .5-.2.5-.5v-.7c1 1.1 2.4 1.7 3.8 1.6 4.3-.1 7.7-3.6 7.6-7.8 0-4.2-3.3-7.6-7.5-7.7zm-.6 11.9c-1.3 0-2.4-.6-3.2-1.6v-5.2c.8-1 1.9-1.6 3.2-1.6 2.3-.1 4.3 1.7 4.4 4 .1 2.3-1.7 4.3-4 4.4h-.4zM982.1 395c.6 0 1.2 0 1.7.2v3.5s-3.1-1.1-5.1 1.2v10.3h-3.8v-14.7h3.2c.3 0 .5.2.5.5v.6c.9-1 2.2-1.5 3.5-1.6zm-39.2 13.7c-.2-.5-.4-1-.6-1.4-.3-.7-.6-1.4-.9-2-2.8-5.9-5.6-11.8-8.7-17.6l-.1-.2-.9-1.8c-.4-.8-.9-1.5-1.4-2.1-1.2-1.5-3-2.4-5-2.4-1.9 0-3.8.9-5 2.3-.5.7-1 1.4-1.4 2.1l-.9 1.8-.1.2c-3 5.8-6 11.8-8.7 17.6v.1c-.3.6-.6 1.3-.9 2-.2.4-.4.9-.6 1.4-.5 1.3-.7 2.8-.5 4.2.4 2.9 2.4 5.4 5.1 6.5 1 .4 2.1.6 3.2.6.3 0 .7 0 1-.1 1.4-.2 2.7-.6 3.9-1.3 1.8-1.1 3.5-2.5 4.9-4.1 1.4 1.6 3 3 4.9 4.1 1.2.7 2.5 1.2 3.9 1.3.3 0 .7.1 1 .1 1.1 0 2.2-.2 3.2-.6 2.7-1.1 4.7-3.6 5.1-6.5.1-1.4 0-2.8-.5-4.2zm-17.8 2.1c-1.8-2.1-3.2-4.6-4-7.2-.2-.8-.2-1.6-.1-2.4.1-.6.3-1.1.6-1.6.8-1.1 2.1-1.7 3.5-1.7 1.4-.1 2.7.6 3.5 1.7.3.5.6 1 .6 1.6.1.8.1 1.6-.1 2.4-.8 2.6-2.1 5.1-4 7.2zm15.7 1.8c-.3 2-1.7 3.8-3.6 4.6-.9.4-2 .5-3 .4-1.1-.1-2.1-.5-3-1-1.7-1-3.2-2.3-4.5-3.8 2.2-2.5 3.8-5.4 4.8-8.6.3-1.1.3-2.2.2-3.3-.1-1-.5-1.9-1.1-2.6-1.3-1.8-3.4-2.8-5.5-2.8-2.2 0-4.3 1-5.5 2.8-.6.8-.9 1.7-1.1 2.6-.2 1.1-.1 2.2.2 3.3.9 3.2 2.6 6.2 4.8 8.7-1.3 1.5-2.8 2.8-4.5 3.8-.9.5-1.9.9-3 1-1 .1-2 0-3-.4-1.9-.8-3.3-2.5-3.6-4.6-.1-1 0-2.1.4-3 .1-.4.3-.8.5-1.2.3-.6.6-1.3.9-1.9v-.1c2.7-5.9 5.6-11.7 8.6-17.5l.1-.2.9-1.8c.3-.6.7-1.2 1.1-1.7 1.5-1.7 4.1-1.9 5.9-.4.2.1.3.3.4.4.4.5.8 1.1 1.1 1.7l.9 1.8.1.2c3 5.8 5.8 11.6 8.6 17.5.3.6.6 1.3.9 1.9.2.5.4.9.5 1.2.6 1 .7 2 .5 3z"/><path id="logo-zendesk.svg" class="st0" d="M1479.6 395.1c-1.6.9-3.3 1.3-5.1 1.3-1.1 0-2.2-.2-3.2-.6-1.4 1.2-2.9 2.3-4.6 3.1 1.4 2.2 3.6 3.7 6.2 4.4.8.2 1.7.3 2.5.3 1.7 0 3.5-.4 5-1.2.2-.8.3-1.7.3-2.6.1-1.6-.3-3.3-1.1-4.7zm-1.8-12.5c-.1 0-.2-.1-.3-.1.1 0 .2.1.3.1zm-.3 0c-.3 1.9-1.1 3.7-2.4 5.1.1.4.1.7.1 1.1-.1 2.3-1.1 4.4-2.7 6 .4 0 .9.1 1.4.1 2.3 0 4.5-.7 6.3-2.1 2-1.6 3.4-3.8 3.9-6.4-1.5-1.9-3.6-3.2-5.9-3.8-.5 0-.6-.1-.7 0zm-1.6-1.7c0-2.6-1-5.1-2.7-6.9h-.1c-2.4 0-4.7.9-6.5 2.6 1.7 1.9 2.6 4.3 2.5 6.8v.6c.4-.1.8-.1 1.2-.1h.1c1.7 0 3.2.8 4.1 2.2.9-1.6 1.4-3.4 1.4-5.2zm-18.3-6.7h-.3c-1.7 1.8-2.7 4.2-2.6 6.7v.1h.3c2.7 0 5.2 1 7.2 2.8 1.6.1 3.1 1 3.9 2.5.4-.8 1-1.4 1.8-1.8v-.3c0-2.9-1.2-5.6-3.4-7.5-2-1.6-4.4-2.5-6.9-2.5zm2.8 9.7c-1.6-.9-3.3-1.4-5.1-1.3-.6 0-1.2 0-1.8.1-2.6.4-4.9 1.8-6.4 3.9.4 2.5 1.8 4.7 3.8 6.2 1.4-2 3.5-3.3 5.9-3.7v-.3c-.2-2.3 1.4-4.3 3.6-4.9zm-8.9 11.2c-.8 1.4-1.2 3.1-1.1 4.7 0 .9.1 1.8.3 2.7 1.5.8 3.2 1.2 4.9 1.2.8 0 1.7-.1 2.5-.3-.2-.9-.3-1.8-.3-2.7 0-2.1.7-4.2 1.9-5.9-1.2-1.2-2.1-2.7-2.6-4.4-2.4.8-4.4 2.5-5.6 4.7zm8.6 9.2l-.1.1.1-.1zm5.4 5.2c2.3-1 4.2-2.8 5.2-5.1-2.5-.9-4.5-2.9-5.5-5.4-1.8-.9-3.4-2-4.9-3.3-.7 1.4-1.1 3-1.1 4.6 0 1.4.3 2.8.9 4 1.1 2.3 3 4.2 5.4 5.2zm32.8-12.1l-8.9 10.3h7.6c.8 0 1.5.6 1.5 1.4 0 .8-.6 1.5-1.4 1.5h-11.3c-.9-.1-1.5-.8-1.5-1.7 0-.4.2-.7.4-1l8.9-10.3h-7.8c-.8 0-1.5-.6-1.5-1.4 0-.8.6-1.5 1.4-1.5h11c.9 0 1.7.7 1.7 1.6v.1c.4.4.3.8-.1 1zm17.9 6.4h-11.6c.2 2.5 2.4 4.4 4.9 4.2 1.8 0 3.6-.7 4.9-2 .3-.2.6-.3.9-.3.4 0 .9.2 1.1.6.2.2.3.6.3.9 0 .5-.2.9-.6 1.2-1.8 1.8-4.3 2.8-6.8 2.8-4.7.1-8.5-3.7-8.5-8.4 0-4.6 3.7-8.4 8.3-8.4h.1c4.5-.1 8.1 3.5 8.2 8v.4c0 .6-.5 1-1.2 1zm-6.9-6.5c-2.4-.1-4.4 1.7-4.6 4h9.2c-.2-2.3-2.3-4.1-4.6-4zm45.1 13.6c-1 0-1.8-.8-1.8-1.7v-.9c-1.2 1.8-3.2 2.9-5.3 2.8-4.8 0-8.1-3.6-8.1-8.4 0-4.8 3.3-8.4 8.1-8.4 2.2-.1 4.2 1 5.3 2.8v-9.5c0-1 .8-1.8 1.8-1.8s1.8.8 1.8 1.8v21.5c0 1-.8 1.8-1.8 1.8zm-6.7-13.5c-3 0-4.9 2.3-4.9 5.2s1.9 5.2 4.9 5.2 4.9-2.2 4.9-5.2c0-2.9-2-5.2-4.9-5.2zm27.2 6.4h-11.6c.2 2.5 2.4 4.4 4.9 4.2 1.8 0 3.6-.7 4.9-2 .2-.2.6-.3.9-.3.5 0 .9.2 1.2.6.2.2.4.6.3.9 0 .5-.2.9-.6 1.2-1.8 1.8-4.3 2.8-6.8 2.8-4.7.1-8.5-3.7-8.5-8.4 0-4.6 3.7-8.4 8.3-8.4h.1c4.5-.1 8.1 3.5 8.2 8v.4c-.1.6-.7 1-1.3 1zm-7-6.5c-2.4-.1-4.4 1.7-4.6 4h9.2c-.2-2.3-2.2-4.1-4.6-4zm17.5 13.7c-2.1 0-4.2-.6-6-1.6-.5-.3-.8-.8-.9-1.3 0-.2.1-.3.1-.6.2-.5.6-.8 1.1-.9.3 0 .6.1.8.2 1.4.8 3 1.3 4.6 1.3 1.8 0 3.9-.6 3.9-1.9 0-1.1-1-1.5-4.8-2.8-3.2-1.1-4.8-2.5-4.8-4.7 0-2.7 2.7-4.5 6.4-4.5 1.9 0 3.8.4 5.6 1.2.6.2 1 .7 1 1.3 0 .2 0 .4-.1.6-.2.6-.8 1-1.4 1-.2 0-.4 0-.6-.1-1.3-.7-2.8-1-4.3-1-1.9 0-3.2.4-3.2 1.6 0 1.2 1 1.5 3.8 2.3 3.4 1.1 5.8 2.2 5.8 5 0 2.7-2.5 4.9-7 4.9zm23.8-.1c-.5 0-1-.2-1.4-.6l-6.2-6.9-1.8 1.5v4.2c0 1-.8 1.8-1.8 1.8s-1.8-.8-1.8-1.8v-21.4c0-1 .8-1.8 1.8-1.8s1.8.8 1.8 1.8v13.1l7.7-5.9c.3-.2.7-.3 1-.3.5 0 1 .2 1.4.7.2.3.4.6.5 1 0 .5-.2 1-.7 1.3l-5.2 4 6 6.8c.3.3.4.7.5 1.1-.3.8-1 1.3-1.8 1.4zm-80.8-16.7c-4.2-.1-7.7 3.3-7.7 7.5v7.6c0 1 .8 1.8 1.8 1.8s1.8-.8 1.8-1.8v-7.4c0-2.5 1.4-4.5 4.1-4.5 2.6 0 4.1 2 4.1 4.5v7.4c0 1 .8 1.8 1.8 1.8s1.8-.8 1.8-1.8v-7.5c0-4.2-3.4-7.6-7.6-7.6h-.1zm78.4-6.6c0-1 .8-1.8 1.8-1.9s1.8.8 1.9 1.8c0 1-.8 1.8-1.8 1.9-1.1 0-1.9-.8-1.9-1.8zm3.2 0c0-.8-.6-1.4-1.4-1.4-.7 0-1.4.6-1.4 1.4-.1.8.5 1.4 1.3 1.5.8.1 1.4-.5 1.5-1.3v-.2zm-2.2.8v-1.6c0-.1.1-.2.2-.2h.7c.3-.1.6.1.7.4v.1c0 .2-.1.5-.3.6l.2.6v.1c0 .1-.1.2-.2.2s-.2-.1-.2-.1l-.3-.6h-.3v.4c0 .1-.1.2-.2.2-.2 0-.3 0-.3-.1zm1.2-1.1c0-.2-.2-.3-.3-.2h-.3v.3h.3c.1.1.3 0 .3-.1z"/><path id="logo-juniper_networks.svg" class="st0" d="M1221.6 412.5h.8l3.9 5.4v-5.4h.7v6.5h-.6l-4-5.5v5.5h-.7v-6.5zm7 0h4.3v.7h-3.6v2.2h3.5v.6h-3.5v2.4h3.7v.6h-4.3l-.1-6.5zm7.8.7h-2.4v-.7h5.6v.7h-2.4v5.9h-.7l-.1-5.9zm3.9-.7h.7l1.7 5.4 1.8-5.4h.6l1.7 5.4 1.7-5.4h.7l-2.1 6.6h-.6l-1.8-5.4-1.8 5.4h-.6l-2-6.6zm9.6 3.2c0-2.3 1.2-3.4 3.3-3.4 2.1 0 3.3 1 3.3 3.4 0 2.3-1.2 3.4-3.3 3.4-2.1 0-3.3-1-3.3-3.4m5.9.1c0-1.8-.8-2.7-2.6-2.7s-2.6.9-2.6 2.7c0 1.8.8 2.7 2.6 2.7s2.6-1 2.6-2.7m4.7.6h-1.9v2.7h-.7v-6.5h2.8c1.5 0 2.2.6 2.2 1.9.1.9-.6 1.8-1.5 1.9h-.2l1.6 2.7h-.7l-1.6-2.7zm.2-.7c.9 0 1.5-.3 1.5-1.3s-.6-1.3-1.5-1.3h-2.1v2.6h2.1zm5.6-.1l-1.3 1.4v2h-.7v-6.5h.7v3.6l3.3-3.6h.8l-2.3 2.6 2.7 4h-.8l-2.4-3.5zm3.7 2.8l.3-.5c.7.4 1.5.7 2.3.7 1.3 0 1.9-.4 1.9-1.3s-.8-1.1-1.9-1.3c-1.4-.2-2.4-.5-2.4-1.8s.8-1.8 2.4-1.8c.8 0 1.6.2 2.3.6l-.4.6c-.6-.3-1.2-.5-1.9-.5-1.2 0-1.7.3-1.7 1.1s.7 1 1.8 1.2c1.4.3 2.4.5 2.4 1.9 0 1.3-.8 1.9-2.6 1.9-.7-.1-1.7-.3-2.5-.8m12.1-32.8c-9.2 0-9.6 4.1-9.6 9.9v14.2h2.2v-14.2c0-4.4-.2-7.9 7.4-7.9.7 0 1.5 0 2.2.1v-2.1h-2.2m-106.8 14.8V386h2.2v14.4c0 4.1 0 7.6 7.6 7.6s7.4-3.5 7.4-7.9V386h2.2v14.2c0 5.8-.4 9.9-9.6 9.9-9.3 0-9.8-4.1-9.8-9.7m42.3-5.1v14.4h-2.2v-14.4c0-4.1 0-7.6-7.6-7.6s-7.4 3.5-7.4 7.9v14.2h-2.2v-14.2c0-5.8.4-9.9 9.6-9.9 9.2-.1 9.8 4 9.8 9.6m4-9.2h2.1v23.6h-2.1v-23.6zm6.1 0h11.1c5.5 0 8 2.7 8 7.6 0 4.9-2.4 7.8-8 7.8h-8.9v8.2h-2.1v-23.6h-.1zm11 13.3c3.8 0 5.7-1.9 5.7-5.6s-2-5.5-5.8-5.5h-8.9v11.2l9-.1zm10.4-1.6c0-7 2-12.3 10.9-12.3 9.2 0 9.5 6.2 9.5 12.7h-18.2c.1 5.7 1.5 10 8.9 10 2.8.2 5.6-.7 7.7-2.5l1.2 1.6c-2.6 2-5.7 3-8.9 2.9-9.3 0-11.1-5.4-11.1-12.4m2.2-1.6h16.1c-.2-4.7-.5-8.7-7.4-8.7-6.6 0-8.4 3.6-8.7 8.7m-89.3 18.6c9.2 0 9.6-4.1 9.6-9.9V386h-2.2v18.9c0 4.4.2 7.9-7.4 7.9h-.8v2h.8m117.5-5c-.8 0-1.5-.7-1.5-1.5s.7-1.5 1.5-1.5 1.5.7 1.5 1.5-.7 1.5-1.5 1.5m0-2.8c-.7 0-1.3.6-1.3 1.3 0 .7.6 1.3 1.3 1.3.7 0 1.3-.6 1.3-1.3 0-.7-.6-1.3-1.3-1.3m.1 1.5h-.5v.7h-.2v-1.7h.8c.3-.1.5.1.6.4v.2c0 .3-.2.5-.4.5l.4.7h-.2l-.5-.8zm0-.2c.2 0 .3 0 .4-.2v-.1c0-.2-.1-.3-.4-.3h-.5v.6h.5z"/><path class="st0" d="M373.4 387.3l2.4.5c.3 0 .4.3.4.5v21.2c0 .3-.2.5-.5.5h-2.4c-.3 0-.5-.2-.5-.5v-21.7c0-.3.3-.6.6-.5zm20.3 13v9.3c0 .3-.2.5-.5.5h-2.3c-.3 0-.5-.2-.5-.5V400c0-2.2-1.4-3.6-3.3-3.6-2.2 0-3.6 1.6-3.6 3.8v9.3c0 .3-.2.5-.5.5h-2.3c-.3 0-.5-.2-.5-.5v-15.2c0-.3.2-.5.5-.5h2.3c.3 0 .5.2.5.5v1.6c.7-1.3 2.4-2.5 4.6-2.5 4.1 0 5.6 3.3 5.6 6.9zm3.9 5.6c.2-.2.6-.1.7.1.7.9 1.8 1.7 3.6 1.7 1.4 0 2.5-.7 2.5-2 0-3.1-7.9-2-7.9-7.6 0-2.9 2.4-4.6 5.6-4.6 2.7 0 4.3 1.4 5 2.6.2.2.1.6-.2.7l-1.5 1c-.2.2-.5.1-.7-.1-.5-.7-1.4-1.4-2.9-1.4-1.2 0-2.2.7-2.2 1.8 0 3.1 8 1.8 8 7.6 0 3-2.6 5-5.9 5-3 0-4.7-1.5-5.6-2.8-.2-.2-.1-.5.1-.7l1.4-1.3zm13.9-15.4l2.3.5c.2.1.4.3.4.5v2.3h2.8c.3 0 .5.2.5.5v1.7c0 .3-.2.5-.5.5h-2.8v7.6c0 2.5 1 3.1 2.8 3.1h.3c.3 0 .3.4.3.4v2c0 .3-.2.5-.5.5s-.7.1-1.2.1c-4 0-5.1-2.7-5.1-6.6v-7.1h-1.3c-.3 0-.5-.2-.5-.5v-1.7c0-.3.2-.5.5-.5h1.3V391c.1-.3.4-.6.7-.5zm14.4 9.2c1.9 0 3.3.6 3.9 1.2v-1.5c0-1.9-1.3-3-3.5-3-1.6 0-3 .5-4.1 1-.3.1-.6 0-.7-.2l-.8-1.5c-.1-.3-.1-.6.2-.7 1.3-.8 3.3-1.6 5.8-1.6 4.8 0 6.5 2.6 6.5 6.2v10c0 .3-.2.5-.5.5h-2c-.2 0-.5-.2-.5-.4l-.2-.8c-.8.9-2.2 1.6-4.2 1.6-3.4 0-6.1-2.2-6.1-5.4-.1-3.2 2.4-5.4 6.2-5.4zm.5 8c2 0 3.4-1.1 3.4-2.8 0-1.7-1.4-2.8-3.5-2.8s-3.4 1.2-3.4 2.8c.1 1.7 1.5 2.8 3.5 2.8zm10.7-13.8l2.1.5c.2.1.4.3.4.5v1c.4-.6 2.1-2.6 5.2-2.6 4.7 0 8 3.6 8 8.5 0 5.1-3.1 8.6-7.7 8.6-3.1 0-4.8-1.9-5.3-2.6v8.4c0 .3-.2.5-.5.5H437c-.3 0-.5-.2-.5-.5v-21.8c-.1-.3.2-.6.6-.5zm7.5 13.5c2.8 0 4.8-2.3 4.8-5.6s-2.1-5.5-4.9-5.5c-3 0-4.8 2.5-4.8 5.5 0 3.6 2.1 5.6 4.9 5.6zm16.6-7.7c1.9 0 3.3.6 3.9 1.2v-1.5c0-1.9-1.3-3-3.5-3-1.6 0-3 .5-4.1 1-.3.1-.6 0-.7-.2l-.8-1.5c-.1-.3-.1-.6.2-.7 1.3-.8 3.3-1.6 5.8-1.6 4.8 0 6.5 2.6 6.5 6.2v10c0 .3-.2.5-.5.5h-2c-.2 0-.5-.2-.5-.4l-.2-.8c-.8.9-2.2 1.6-4.2 1.6-3.4 0-6.1-2.2-6.1-5.4-.1-3.2 2.4-5.4 6.2-5.4zm.5 8c2 0 3.4-1.1 3.4-2.8 0-1.7-1.4-2.8-3.5-2.8s-3.4 1.2-3.4 2.8c.1 1.7 1.5 2.8 3.5 2.8zm12.5 5.5c.1-.3.4-.4.7-.3.9.4 2.5 1 4.3 1 2.7 0 5.1-1.8 5.1-4.9v-1.1c-.4.5-2 2.5-5.2 2.5-4.7 0-7.8-3.5-7.8-8.5s3.2-8.6 7.9-8.6c3.1 0 4.8 1.8 5.3 2.6v-1.5c0-.3.3-.6.6-.5l2.1.5c.2.1.4.3.4.5v13c0 6.1-3.7 8.9-8.5 8.9-2 0-4-.6-5.5-1.3-.3-.1-.4-.4-.3-.7l.9-1.6zm5.3-16.8c-2.8 0-4.8 2.2-4.8 5.5s2.1 5.5 4.9 5.5c2.9 0 4.8-2.3 4.8-5.5 0-3.3-2.1-5.5-4.9-5.5zm18.5-3c4.9 0 7.8 3.4 7.8 8.5v.3c0 .3-.2.5-.5.5h-11.8c.1 2.9 2.2 4.8 5.1 4.8 2.1 0 3.5-1 4.2-1.9.2-.2.5-.3.7-.1l1.4 1.1c.2.2.3.5.1.7-1 1.3-3 3.1-6.5 3.1-5.1 0-8.5-3.6-8.5-8.5 0-5 3.5-8.5 8-8.5zm4.3 7c-.1-2.7-2-4.2-4.3-4.2s-4.2 1.6-4.4 4.2h8.7zm-161.5 12.8v-28.7c0-.3-.2-.5-.5-.5l-1.7-.2c-.3 0-.6.2-.6.5v29.1c0 .3.3.6.6.5l1.7-.3c.3.1.5-.2.5-.4zm-5-2.7v-23.4c0-.3-.2-.5-.5-.5l-1.7-.2c-.3 0-.6.2-.6.5v23.8c0 .3.3.6.6.5l1.7-.2c.3 0 .5-.2.5-.5z"/><path class="st1" d="M365.7 384.7l-22.1-3.6c-.3-.1-.6.2-.6.5v34.7c0 .3.3.6.6.5l22.1-3.9c.3 0 .4-.3.4-.5v-27.2c.1-.2-.1-.4-.4-.5zm-2.3 25.3c0 .3-.2.5-.5.5l-15.6 2.2c-.3 0-.6-.2-.6-.5v-26c0-.3.3-.6.6-.5l15.6 2c.3 0 .5.3.5.5V410z"/></svg>