<svg id="Layer_1" xmlns="http://www.w3.org/2000/svg" viewBox="0 0 145.8 128.5"><style>.st0{fill:#d5f7ff;stroke:#909090;stroke-width:3;stroke-linecap:round;stroke-linejoin:round}.st1{fill:#a3eeff}.st2{fill:#73e6ff}.st3{fill:#f9f9f9;stroke:#7d7d7d;stroke-width:2.5;stroke-linecap:round;stroke-linejoin:round}.st4{fill:#b0e44f}.st5{fill:#b2b2b2}.st6,.st7{fill:none;stroke:#7d7d7d;stroke-width:2.5;stroke-linecap:round;stroke-linejoin:round}.st7{fill:#e0e0e0;stroke:#909090;stroke-width:3}.st8{fill:#909090}.st9{fill:none;stroke:#909090;stroke-width:3;stroke-linecap:round;stroke-linejoin:round}</style><title>1-</title><path class="st0" d="M26.9 84.7c-1.8 1.5-4.5 1.2-5.9-.6l-18.1-22c-1.5-1.8-1.2-4.4.6-5.9l37-30.6c1.8-1.5 4.5-1.2 5.9.6l18.1 22c1.5 1.8 1.2 4.5-.6 5.9l-7.4 6.1"/><path class="st1" d="M35.9 63.5l-7.8-10.7c-.4-.4-.4-1 0-1.4l.1-.1 4.1-4.1c1.2-1.2 2.5-2.5 4.3-2.6 1.2 0 2.4.5 3.2 1.5 2.9 3.4 2.7 7 .2 9.5l-2 2c-.3.3-.3.8.2 1.5l2.2 3"/><path class="st2" d="M30.7 64L23 53.3c-.4-.4-.4-1 0-1.4l.1-.1 4.1-4.1c1.2-1.2 2.5-2.5 4.3-2.6 1.2 0 2.4.5 3.2 1.5 2.9 3.4 2.7 7 .2 9.5l-2 2c-.3.3-.3.8.2 1.5l2.2 3"/><path class="st3" d="M49.6 106.8V127h94.5V1.5H49.6v67"/><path class="st4" d="M69.4 33c-1.9-.2-3.7-1-5.2-2.1l1.7-2.5c1 .9 2.3 1.5 3.6 1.8v-3.5c-3.2-.9-4.7-2.1-4.7-4.7 0-2.5 1.8-4 4.6-4.3v-1.4h2.3v1.3c1.5.2 2.9.8 4.1 1.6l-1.5 2.6c-.8-.6-1.8-1-2.7-1.3V24c3.3.9 4.8 2.3 4.8 4.7 0 2.5-1.9 4-4.7 4.3v2.2h-2.3V33zm.1-12.6c-.8 0-1.4.6-1.5 1.4 0 .7.3 1.1 1.5 1.6v-3zm3.6 8.5c0-.8-.4-1.2-1.6-1.6v3.1c1.1-.2 1.6-.7 1.6-1.5z"/><path class="st5" d="M87.6 22.6H89v6.5h-1.4v-6.5zm3 0H92l3.1 4v-4h1.4v6.5h-1.3L92 25v4.1h-1.4v-6.5zm6.8 0H99l1.7 4.6 1.7-4.6h1.6l-2.6 6.5h-1.3l-2.7-6.5zm6.9 3.2c0-1.9 1.6-3.5 3.5-3.5s3.5 1.5 3.5 3.5c0 1.9-1.6 3.5-3.5 3.5-2 0-3.5-1.6-3.5-3.5zm5.4 0c0-1.1-.9-2-2-2s-2 .8-2 1.9v.1c0 1.1.9 2 2 2s2-.8 2-1.9v-.1zm2.8-3.2h1.5v6.5h-1.4l-.1-6.5zm2.8 3.2c0-1.8 1.4-3.3 3.2-3.4h.1c1 0 1.9.3 2.6 1l-.9 1c-.4-.5-1-.7-1.7-.7-1.1 0-1.9.9-1.9 1.9v.1c0 1.1.8 2 1.9 2 .7 0 1.3-.3 1.7-.8l.9.9c-.7.8-1.6 1.2-2.7 1.2-1.7.1-3.2-1.3-3.2-3.2 0 .1 0 0 0 0zm7.1-3.2h4.9v1.3h-3.5v1.3h3.1v1.3h-3.1v1.4h3.5v1.3h-5l.1-6.6z"/><path class="st6" d="M60.1 47.8H132M60.1 66.6H132M60.1 85.3H132M60.1 57.2H132M60.1 94.7H132M60.1 76H132m-35.9 29.5H132m-18-55.7v34.9"/><path class="st7" d="M28.1 71.6l49.3-7.1c2.4-.3 4.6 1.3 5 3.7l4.2 29.3c.3 2.4-1.3 4.6-3.7 5l-49.3 7.1c-2.4.3-4.6-1.3-5-3.7l-4.2-29.3c-.3-2.4 1.3-4.6 3.7-5z"/><path transform="rotate(-8.19 54.406 79.29)" class="st8" d="M25.1 75.1h58.6v8.5H25.1z"/><path class="st9" d="M42.6 100.2l29-4.2m-2.4-6.9l8.3-1.2"/></svg>