<svg xmlns="http://www.w3.org/2000/svg" viewBox="0 0 418.45 117" preserveAspectRatio="xMinYMax meet"><path fill="#fff" d="M256.29 27.19A31.82 31.82 0 1 0 288.11 59a31.82 31.82 0 0 0-31.82-31.81zm0 50.53A18.71 18.71 0 1 1 275 59a18.72 18.72 0 0 1-18.71 18.73zM297 76V30h13v8.25A23.43 23.43 0 0 1 328.09 30H333v13h-6.2c-9.08 0-16.45 6.57-16.45 15.65V88H297V76M188.68 30l10.3 41.57L210.33 30h13.52L206.4 88h-13.53l-10.68-41.8L171.5 88h-13.53l-17.45-58h13.53l11.35 41.57L175.7 30h12.98m183.81 26.67C382.17 51.21 388.73 41 388.73 30H375.1c0 9-8.14 17-18.16 17H356V0h-14v88h14V61h.74c1.33 0 3.07.23 3.85 1.31L379.93 88h16.33z"/><path fill="#6fda44" d="M108.13 27.19c-14.84 0-26.36 9.5-31 25.38A116.38 116.38 0 0 1 61.39 18H44v41.85a14.5 14.5 0 1 1-29 0V18H0v41.85a31 31 0 0 0 62 0v-7a89.84 89.84 0 0 0 11.23 18.5L63.15 117h16.34l7.09-33a39.53 39.53 0 0 0 21.54 6.67 31.74 31.74 0 1 0 .01-63.48zm0 47.57c-6.45 0-12.49-2.73-18-7.17l1.34-6.29v-.24c1.2-6.68 5-17.88 16.6-17.88a15.795 15.795 0 1 1 .06 31.59z"/><path fill="#fff" d="M397.75 31.44h-4.29v-1.35h10v1.35h-4.29V43h-1.46V31.44zm8.46-1.35h1.46l4.66 7 4.66-7h1.46V43H417V32.54l-4.66 6.92h-.07l-4.66-6.9V43h-1.41V30.09z"/></svg>