<svg id="Layer_1" xmlns="http://www.w3.org/2000/svg" viewBox="0 0 146 116.5"><style>.st0{fill:#e6e6e6;stroke:#7d7d7d;stroke-width:2.5;stroke-linecap:round;stroke-linejoin:round}.st1{fill:#fff}.st2,.st3{stroke-linecap:round;stroke-linejoin:round}.st2{fill:none;stroke:#7d7d7d;stroke-width:2.5}.st3{stroke:#b0e44f;stroke-width:2}.st3,.st4{fill:#b0e44f}.st5{fill:#6fda44}.st6{fill:#a0e784}.st7{fill:none;stroke:#b2b2b2;stroke-width:2.44;stroke-linecap:round;stroke-linejoin:round}.st8{fill:#cbed8b}.st9{fill:#d5f7ff;stroke:#b2b2b2;stroke-width:2.5;stroke-linecap:round;stroke-linejoin:round}.st10{fill:#73e6ff}.st11{fill:#f2f2f2}.st12,.st13{fill:#fff;stroke:#7d7d7d;stroke-width:2.5;stroke-linecap:round;stroke-linejoin:round}.st13{fill:#cbed8b}.st14{fill:#e0e0e0}.st15{fill:#909090}</style><title>1-</title><path class="st0" d="M16.7 19.1h113.7c2.3 0 4.1 1.9 4.1 4.1v75.5c0 2.3-1.9 4.1-4.1 4.1H16.7c-2.3 0-4.1-1.9-4.1-4.1V23.2c-.1-2.2 1.8-4.1 4.1-4.1z"/><path class="st0" d="M17.4 102.9c-2.6 0-4.8-2.1-4.8-4.8V23.9c0-2.6 2.1-4.8 4.8-4.8h112.4c2.6 0 4.8 2.1 4.8 4.8v74.2c0 2.6-2.1 4.8-4.8 4.8"/><path class="st1" d="M128 96.6l-36.3-.1-36.2.2-36.1-.2-.2-23.6.3-23.8-.2-23.8 36.2.2 36.2-.2 36.2.2.1 23.6-.2 23.7z"/><path class="st2" d="M128 96.6l-36.3-.1-36.2.2-36.1-.2-.2-23.6.3-23.8-.2-23.8 36.2.2 36.2-.2 36.2.2.1 23.6-.2 23.7z"/><path class="st0" d="M1.5 102.9h143c0 2.8-2.3 5.2-5.2 5.2H6.7c-2.9 0-5.2-2.4-5.2-5.2z"/><path class="st3" d="M29.8 35.3h17.5v3.8H29.8z"/><path class="st4" d="M53.9 54.1H81v2.1H53.9zm-23.6 0h19.3v2.1H30.3zm-.5 19.3h32.7v2.1H29.8zm39.6 0h8.8v2.1h-8.8z"/><path class="st5" d="M38.6 60.4h60.8v2.1H38.6zm0 5.9H96v2.1H38.6zm0 13.9h60.8v2.1H38.6z"/><path class="st6" d="M40.4 21.4L26.2 36.9v2.5l36.6.1-.2-18.4-7.7-7.8-10 11.3z"/><path class="st1" d="M54.9 13.5l6.9 6.7.6-18-36.5.5-.6 34.7 15.1-15.8 4.3 3.8 10.2-11.9"/><path class="st7" d="M25.4 38.7l15-17.3 9.3 9.1m-5.1-5l10.3-12.2 7.7 7.8"/><ellipse transform="rotate(-.628 34.986 11.557) scale(.99996)" class="st8" cx="35" cy="11.6" rx="5" ry="5"/><path class="st7" d="M25.2 2.2h37.4v37.5H25.2z"/><path class="st9" d="M122.6 1.4v37.9h-5.4l-10.3 10.4V39.3H68.2V1.4z"/><circle class="st10" cx="84.9" cy="20.9" r="3.6"/><circle class="st10" cx="105.9" cy="20.9" r="3.6"/><circle class="st10" cx="95.4" cy="20.9" r="3.6"/><path transform="rotate(-89.86 55.332 108.947)" class="st11" d="M49.2 90.5h12.2v36.9H49.2z"/><path class="st1" d="M78.4 113.1c0-.8-.3-1.6-.9-2.2 1.2-1.2 1.2-3.1 0-4.3.6-.6.9-1.3.9-2.2 0-1.7-6.1-1.7-6.1 0 0 .7.3 1.4.7 2l.2.2c-1.2 1.1-1.2 3-.2 4.2l.2.2c-1.1 1.1-1.2 3-.2 4.2.6.6 5.4-1.2 5.4-2.1zm-3-10.2z"/><path class="st12" d="M73.8 115.1l12.4-6.1-12.4-6.1"/><path transform="rotate(-89.86 34.842 108.907)" class="st12" d="M28.7 106.9h12.2v4.1H28.7z"/><path class="st13" d="M21.8 111.2v-4.7c0-2.1 1.7-3.7 3.7-3.7h6.8V115h-6.8c-2 0-3.7-1.7-3.7-3.8z"/><path class="st2" d="M73.8 115.1l-36.9-.1v-12.2l36.9.1"/><path class="st14" d="M72.3 108.8c0-.7.3-1.4.8-2l.2-.2-29.7-.1c-1.2 0-2.2 1-2.2 2.2s1 2.2 2.2 2.2l29.7.1-.3-.2c-.5-.6-.7-1.3-.7-2z"/><path class="st15" d="M80.3 111.9V106l5.9 3z"/></svg>