<svg xmlns="http://www.w3.org/2000/svg" viewBox="0 0 570.84 361.61"><defs><style>.cls-1,.cls-16{fill:#f2f2f2}.cls-2,.cls-23{fill:#b0e44f}.cls-3{fill:#d4f09e}.cls-4{fill:#fff;stroke:#d8d8d8;stroke-linecap:square;stroke-width:4px}.cls-10,.cls-15,.cls-16,.cls-17,.cls-19,.cls-21,.cls-22,.cls-23,.cls-26,.cls-28,.cls-4,.cls-6,.cls-9{stroke-linejoin:round}.cls-5{fill:#e0e0e0}.cls-6{fill:#f9f9f9}.cls-17,.cls-6{stroke:#b2b2b2}.cls-10,.cls-15,.cls-16,.cls-17,.cls-19,.cls-21,.cls-22,.cls-23,.cls-26,.cls-28,.cls-6,.cls-9{stroke-linecap:round}.cls-6,.cls-9{stroke-width:3.5px}.cls-7{fill:#b2b2b2}.cls-8{fill:#d8d8d8}.cls-10,.cls-15,.cls-17,.cls-21,.cls-22,.cls-26,.cls-27,.cls-28,.cls-9{fill:none}.cls-10,.cls-16,.cls-19,.cls-9{stroke:#7d7d7d}.cls-10,.cls-15,.cls-16,.cls-17,.cls-19,.cls-21,.cls-22{stroke-width:2.33px}.cls-11{fill:#9dedff}.cls-12{fill:#6fda44}.cls-13,.cls-19{fill:#f5f5f5}.cls-14{fill:#c5c5c5}.cls-15{stroke:#6fda44}.cls-18{fill:#7d7d7d}.cls-20{fill:#37a000}.cls-21{stroke:#37a000}.cls-22,.cls-23{stroke:#b0e44f}.cls-23{stroke-width:1.53px}.cls-24{fill:#79e6fd}.cls-25{fill:#b5f1fe}.cls-26,.cls-27{stroke:#f0f0f0}.cls-26,.cls-28{stroke-width:2.75px}.cls-27{stroke-miterlimit:10;stroke-width:4.15px;stroke-dasharray:1.76 11.76}.cls-28{stroke:#f2f2f2}</style></defs><title>16-0412_HIW</title><path class="cls-1" d="M289.68 224.65h88.8v133h-88.8z"/><circle class="cls-2" cx="334.09" cy="265.57" r="29.6"/><rect class="cls-3" x="322.65" y="249.63" width="22.88" height="26.65" rx="11.44" ry="11.44"/><path class="cls-3" d="M330.05 274.4h7.19v7.19h-7.19zm3.65 3.05a19.21 19.21 0 0 0-17.54 11.39 29.45 29.45 0 0 0 35.28.43 19.22 19.22 0 0 0-17.74-11.82z"/><path class="cls-4" d="M319.68 309.65h24m-37 12h50m-43 9h38"/><path class="cls-5" d="M329 274.56a.19.19 0 0 0 0-.37.19.19 0 0 0 0 .37zm.77 0a.19.19 0 0 0 0-.37.19.19 0 0 0 0 .37zm1.08 0a.19.19 0 0 0 0-.37.19.19 0 0 0 0 .37zm-.48 0a.19.19 0 0 0 0-.37.19.19 0 0 0 0 .37z"/><path class="cls-6" d="M-293.03-211.2h-18.08v-145.85h18.08z"/><path class="cls-7" d="M153 314.33l1.42-1.45a3 3 0 0 0 2.47 1.43c1.15 0 1.94-.77 1.94-2.39v-8H161V312a4.43 4.43 0 0 1-1.14 3.25 4.09 4.09 0 0 1-3 1.08 4.61 4.61 0 0 1-3.86-2zm10.4-4.28a6.4 6.4 0 0 1 12.8 0 6.4 6.4 0 0 1-12.8 0zm10.54 0a4.19 4.19 0 0 0-4.16-4.35 4.13 4.13 0 0 0-4.13 4.31 4.19 4.19 0 0 0 4.16 4.35 4.13 4.13 0 0 0 4.14-4.31zm4.87-6.14h5.49a4.42 4.42 0 0 1 3.2 1.08 2.73 2.73 0 0 1 .82 2 2.91 2.91 0 0 1-1.75 2.72c1.43.49 2.43 1.31 2.43 3 0 2.18-1.8 3.35-4.53 3.35h-5.67v-12.15zm5.05 5.15c1.38 0 2.31-.54 2.31-1.66 0-1-.77-1.55-2.15-1.55h-3.1v3.25h2.94zm.63 5.17c1.47 0 2.36-.58 2.36-1.68 0-1-.82-1.64-2.52-1.64h-3.41v3.35h3.57zm12.18-10.32h4.83c2.85 0 4.65 1.62 4.65 4.08 0 2.74-2.2 4.17-4.9 4.17h-2.43v3.93h-2.15v-12.18zm4.65 6.35c1.63 0 2.64-.91 2.64-2.18 0-1.43-1-2.18-2.64-2.18h-2.5v4.4h2.5zm6.49-.21a6.4 6.4 0 0 1 12.8 0 6.4 6.4 0 0 1-12.8 0zm10.54 0a4.19 4.19 0 0 0-4.16-4.35 4.13 4.13 0 0 0-4.13 4.31 4.19 4.19 0 0 0 4.16 4.35 4.13 4.13 0 0 0 4.13-4.31zm3.95 4.29l1.29-1.54a5.64 5.64 0 0 0 3.86 1.59c1.33 0 2.17-.61 2.17-1.54 0-.87-.49-1.34-2.76-1.87-2.61-.63-4.07-1.4-4.07-3.65 0-2.09 1.75-3.54 4.18-3.54a6.79 6.79 0 0 1 4.44 1.54l-1.15 1.62a5.57 5.57 0 0 0-3.32-1.26c-1.26 0-2 .65-2 1.45 0 .94.56 1.36 2.9 1.92 2.59.63 3.93 1.55 3.93 3.58 0 2.29-1.8 3.65-4.37 3.65a7.55 7.55 0 0 1-5.1-1.95zm14.76-8.44h-3.88v-2h9.93v2h-3.88v10.23h-2.17V305.9z"/><path class="cls-8" d="M301.05 178.52l-.13 3.28.24 3.16-.24 3.15.24 3.16-.23 3.11-1.49.18-1.6-.25-1.6.25-1.6-.25-1.49.13-.24 32.52.24 32.52-.24 32.52.24 32.52-.2 32.44-36.55.21-36.63-.24-36.63.24-36.64-.24-36.72.21.21-32.61-.25-32.52.25-32.52-.25-32.53.25-32.53-1.68.13-1.55-.25-1.55.25-1.56-.25-1.66.18.23-3.21-.25-3.15.25-3.16-.25-3.16.14-3.04 39.77-.25 39.79.25 39.79-.25 39.79.25 39.8-.25zM-102.1-178.41h-198.71v-16.03h198.71z"/><path class="cls-9" d="M109.87 195.69v161.82h183.16V195.69m-140.43-1.25h18.67m13.83 0h115.94v-15.79H102.1v15.79h42.6"/><path class="cls-8" d="M193 178.64h27.64v-4.4a1.85 1.85 0 0 0-1.85-1.85h-24a1.85 1.85 0 0 0-1.85 1.85v4.4z"/><path class="cls-10" d="M193 178.64h27.64v-4.4a1.85 1.85 0 0 0-1.85-1.85h-24a1.85 1.85 0 0 0-1.85 1.85v4.4z"/><path class="cls-11" d="M204.46 126.68l-.47.11a15 15 0 0 0-9.94 7.66 15 15 0 0 0-1.37 10.14l5.08 23.4a3.82 3.82 0 0 0 .77 1.6l.54.66a3.82 3.82 0 0 0 3 1.41h8.18a3.82 3.82 0 0 0 3-1.41l.54-.66a3.82 3.82 0 0 0 .77-1.6l5.08-23.4a15 15 0 0 0-1.37-10.14 15 15 0 0 0-9.94-7.66l-.47-.11-1.65-3.21z"/><path class="cls-10" d="M204.46 126.68l-.47.11a15 15 0 0 0-9.94 7.66 15 15 0 0 0-1.37 10.14l5.08 23.4a3.82 3.82 0 0 0 .77 1.6l.54.66a3.82 3.82 0 0 0 3 1.41h8.18a3.82 3.82 0 0 0 3-1.41l.54-.66a3.82 3.82 0 0 0 .77-1.6l5.08-23.4a15 15 0 0 0-1.37-10.14 15 15 0 0 0-9.94-7.66l-.47-.11-1.65-3.21zm1.65 44.98v-34.3h2.81a1.16 1.16 0 0 1 1.16 1.16v22.06m-3.97 1.7v-24.92h-2.81a1.16 1.16 0 0 0-1.16 1.16v21.88"/><path class="cls-12" d="M276.05 173.14h14.03v5.5h-14.03z"/><path class="cls-10" d="M276.05 173.14h14.03v5.5h-14.03z"/><path class="cls-13" d="M254.26 173.14h14.03v5.5h-14.03z"/><path class="cls-10" d="M254.26 173.14h14.03v5.5h-14.03z"/><path class="cls-14" d="M266 236.36a21.76 21.76 0 0 1-43.53 0H266z"/><path class="cls-1" d="M222.46 235.88a21.76 21.76 0 0 1 43.53 0h-43.53z"/><circle class="cls-10" cx="244.23" cy="236.36" r="21.76"/><path class="cls-15" d="M258.71 235.52a14.48 14.48 0 1 0-29 0"/><path class="cls-16" d="M265.99 236.36h-43.53m21.77 0l8.19-11.36"/><path class="cls-7" d="M128.57 288.31h147.01v51.02H128.57z"/><path class="cls-17" d="M244.23 253.2c-8.56 0-15.51-6.14-15.51-13.71"/><path class="cls-18" d="M132.49 212.73a1.54 1.54 0 0 0 0-3.07 1.54 1.54 0 0 0 0 3.07z"/><path class="cls-19" d="M-127.36-207.75h-75.76v-59.45h75.76z"/><path class="cls-10" d="M186.37 215.71v44.01m-21.24-44.01v44.01m-20.43-44.01v44.01"/><path class="cls-12" d="M180.53 222.64h12.3v3.96h-12.3z"/><path class="cls-15" d="M180.53 222.64h12.3v3.96h-12.3z"/><path class="cls-20" d="M158.98 243.98h12.3v3.96h-12.3z"/><path class="cls-21" d="M158.98 243.98h12.3v3.96h-12.3z"/><path class="cls-2" d="M138.55 231.6h12.3v3.96h-12.3z"/><path class="cls-22" d="M138.55 231.6h12.3v3.96h-12.3z"/><path class="cls-18" d="M198 214.32a1.54 1.54 0 0 0 0-3.07 1.54 1.54 0 0 0 0 3.07zm0 49.37a1.54 1.54 0 0 0 0-3.07 1.54 1.54 0 0 0 0 3.07zm-65.51-1.59a1.54 1.54 0 0 0 0-3.07 1.54 1.54 0 0 0 0 3.07zm0-47.49a1.54 1.54 0 0 0 0-3.07 1.54 1.54 0 0 0 0 3.07z"/><path class="cls-2" d="M179.78 158.07a1.54 1.54 0 0 0 0-3.07 1.54 1.54 0 0 0 0 3.07z"/><path class="cls-23" d="M235.8 149.46s0-4.6 4.6-4.6c-4.6 0-4.6-4.6-4.6-4.6s0 4.6-4.6 4.6c4.6 0 4.6 4.6 4.6 4.6z"/><path class="cls-1" d="M143.34 299.45h4.26c3.43 0 5.8 2.35 5.8 5.42a5.46 5.46 0 0 1-5.8 5.45h-4.26v-10.87zm4.26 8.73a3.11 3.11 0 0 0 3.29-3.25 3.13 3.13 0 0 0-3.29-3.28h-1.86v6.57h1.86zm10.9-8.81h2.21l4.68 11h-2.51l-1-2.44h-4.62l-1 2.44h-2.45zm2.53 6.41l-1.45-3.53-1.45 3.53H161zm7.17-4.12h-3.32v-2.21h9v2.21h-3.32v8.68h-2.4v-8.68zm9.9-2.29h2.21l4.68 11h-2.51l-1-2.44h-4.62l-1 2.44h-2.45zm2.53 6.41l-1.45-3.53-1.45 3.53h2.9zm9.97 2.98l1.42-1.7a5 5 0 0 0 3.26 1.32c1 0 1.58-.39 1.58-1s-.37-.92-2.2-1.39c-2.2-.56-3.62-1.17-3.62-3.33 0-2 1.59-3.28 3.82-3.28a6.33 6.33 0 0 1 4.05 1.39l-1.25 1.81a5.13 5.13 0 0 0-2.84-1.07c-.92 0-1.4.42-1.4.95 0 .72.47.95 2.35 1.43 2.21.58 3.46 1.37 3.46 3.27 0 2.16-1.65 3.38-4 3.38a7 7 0 0 1-4.63-1.78zm10.24-3.83a5.54 5.54 0 0 1 5.69-5.63 5.64 5.64 0 0 1 4.3 1.68l-1.53 1.76a4 4 0 0 0-2.79-1.23 3.23 3.23 0 0 0-3.17 3.39 3.24 3.24 0 0 0 3.17 3.42 3.94 3.94 0 0 0 2.87-1.28l1.53 1.54a5.58 5.58 0 0 1-4.48 1.95 5.5 5.5 0 0 1-5.59-5.6zm12.1-5.48h2.4v10.89h-2.4v-10.89zm5.12 0h8.23v2.13h-5.85v2.21h5.15v2.13h-5.15v2.29h5.93v2.13h-8.31v-10.89zm10.45 0h2.21l5.11 6.71v-6.71h2.37v10.89h-2l-5.29-6.93v6.93h-2.37v-10.89zm11.83 5.48a5.54 5.54 0 0 1 5.69-5.63 5.64 5.64 0 0 1 4.3 1.68l-1.53 1.76a4 4 0 0 0-2.79-1.23 3.23 3.23 0 0 0-3.17 3.39 3.24 3.24 0 0 0 3.17 3.42 3.94 3.94 0 0 0 2.87-1.28l1.53 1.54a5.58 5.58 0 0 1-4.48 1.95 5.5 5.5 0 0 1-5.59-5.6zm11.99-5.48h8.23v2.13h-5.85v2.21h5.15v2.13h-5.15v2.29h5.93v2.13h-8.31v-10.89zm141.12-74.8h88.8v133h-88.8z"/><circle class="cls-24" cx="437.85" cy="265.57" r="29.6"/><rect class="cls-25" x="426.42" y="249.63" width="22.88" height="26.65" rx="11.44" ry="11.44"/><path class="cls-25" d="M433.82 274.4h7.19v7.19h-7.19zm3.65 3.05a19.21 19.21 0 0 0-17.54 11.39 29.45 29.45 0 0 0 35.28.43 19.22 19.22 0 0 0-17.74-11.82z"/><path class="cls-4" d="M423.68 309.65h25m-40 12h54m-45 9h38"/><path class="cls-1" d="M173.67 317.35h2.59l2.87 4.61 2.87-4.61h2.59v10.89h-2.39v-7.11l-3.07 4.65h-.06l-3-4.61v7.07h-2.35v-10.89zm17.27-.08h2.21l4.68 11h-2.51l-1-2.44h-4.62l-1 2.44h-2.45zm2.53 6.41l-1.47-3.53-1.45 3.53h2.9zm4.86-.85a5.6 5.6 0 0 1 5.72-5.63 6 6 0 0 1 4.29 1.49l-1.51 1.82a4 4 0 0 0-2.85-1.1 3.27 3.27 0 0 0-3.13 3.39 3.27 3.27 0 0 0 3.31 3.46 3.84 3.84 0 0 0 2.26-.65V324H204v-2h4.74v4.73a7.09 7.09 0 0 1-4.66 1.73 5.46 5.46 0 0 1-5.75-5.63zm12.81-5.48h2.4v10.89h-2.4v-10.89zm4.64 5.48a5.54 5.54 0 0 1 5.69-5.63 5.64 5.64 0 0 1 4.3 1.68l-1.53 1.76a4 4 0 0 0-2.79-1.23 3.23 3.23 0 0 0-3.17 3.39 3.24 3.24 0 0 0 3.17 3.42 3.94 3.94 0 0 0 2.87-1.28l1.53 1.54a5.58 5.58 0 0 1-4.48 1.95 5.5 5.5 0 0 1-5.59-5.6z"/><path class="cls-18" d="M134.32 295.82a1.54 1.54 0 0 0 0-3.07 1.54 1.54 0 0 0 0 3.07zm0 38.99a1.54 1.54 0 0 0 0-3.07 1.54 1.54 0 0 0 0 3.07zm134.01-38.99a1.54 1.54 0 0 0 0-3.07 1.54 1.54 0 0 0 0 3.07zm0 38.99a1.54 1.54 0 0 0 0-3.07 1.54 1.54 0 0 0 0 3.07z"/><path class="cls-10" d="M128.24 288.31h147.01v51.02H128.24z"/><path class="cls-23" d="M183.49 116.33l4.05 4.05m0-4.05l-4.05 4.05"/><path class="cls-6" d="M5.47 357.49h559.89"/><circle class="cls-26" cx="434.03" cy="56.18" r="52.45"/><circle class="cls-26" cx="434.03" cy="56.18" r="45.18"/><path class="cls-26" d="M413.27 43.84l19.79 15.58 28.73-25.96"/><path class="cls-27" d="M470.7 56.18a36.73 36.73 0 0 1-.5 4.39 36.93 36.93 0 0 1-.56 4.38 36.21 36.21 0 0 1-1.54 4.14 36.65 36.65 0 0 1-1.6 4.12 36.69 36.69 0 0 1-2.5 3.66 37 37 0 0 1-2.54 3.62 36.92 36.92 0 0 1-3.29 3 36.71 36.71 0 0 1-3.33 2.91 36.73 36.73 0 0 1-3.9 2.08 36.38 36.38 0 0 1-3.93 2 36.65 36.65 0 0 1-4.28 1.09 36.18 36.18 0 0 1-4.3 1 363.81 363.81 0 0 1-8.84 0 36.21 36.21 0 0 1-4.3-1 36.58 36.58 0 0 1-4.29-1.1 36.39 36.39 0 0 1-3.93-2 36.82 36.82 0 0 1-3.9-2.08 36.87 36.87 0 0 1-3.33-2.91 37 37 0 0 1-3.29-3 36.86 36.86 0 0 1-2.54-3.62 36.55 36.55 0 0 1-2.49-3.65A36.64 36.64 0 0 1 400 69.1a36.21 36.21 0 0 1-1.57-4.1 36.9 36.9 0 0 1-.56-4.38 36.61 36.61 0 0 1-.5-4.39 36.63 36.63 0 0 1 .5-4.39 36.9 36.9 0 0 1 .56-4.38 36.27 36.27 0 0 1 1.57-4.2 36.75 36.75 0 0 1 1.6-4.12 36.63 36.63 0 0 1 2.49-3.65 37 37 0 0 1 2.54-3.62 36.92 36.92 0 0 1 3.29-3A36.86 36.86 0 0 1 413.2 26a36.82 36.82 0 0 1 3.9-2.08 36.34 36.34 0 0 1 3.93-2 36.64 36.64 0 0 1 4.28-1.09 36.3 36.3 0 0 1 4.3-1 363.81 363.81 0 0 1 8.84 0 36.3 36.3 0 0 1 4.3 1 36.77 36.77 0 0 1 4.25 1.06 36.48 36.48 0 0 1 3.93 2 36.88 36.88 0 0 1 3.9 2.08 36.86 36.86 0 0 1 3.33 2.91 36.92 36.92 0 0 1 3.29 3 36.89 36.89 0 0 1 2.55 3.61 36.67 36.67 0 0 1 2.49 3.65 36.69 36.69 0 0 1 1.6 4.12 36.2 36.2 0 0 1 1.54 4.14 36.93 36.93 0 0 1 .56 4.38 36.73 36.73 0 0 1 .51 4.4z"/><path id="_Path_" class="cls-28" d="M88.66 79.17V54.42H36.97v24.75"/><path id="_Path_2" class="cls-28" d="M63.94 53.91V29.16"/><path id="_Path_3" class="cls-28" d="M115.01 53.91V29.16H63.94v24.75"/><path id="_Path_4" class="cls-28" d="M88.66 79.17V54.42H36.97v24.75"/><path id="_Path_5" class="cls-28" d="M89.17 54.43h51.69v24.74H89.17z"/></svg>