<svg id="Layer_1" xmlns="http://www.w3.org/2000/svg" viewBox="7 -8 30 30"><style>.st0{fill:#b2b2b2}.st1{enable-background:new}.st2{fill:#7d7d7d}</style><circle class="st0" cx="22" cy="7" r="15"/><g class="st1"><path class="st2" d="M28.2 4.9v.4c0 3.6-2.7 7.7-7.7 7.7-1.5 0-3-.4-4.2-1.2h.7c1.3 0 2.4-.4 3.4-1.2-1.2 0-2.2-.8-2.5-1.9h.5c.2 0 .5 0 .7-.1-1.2-.3-2.2-1.3-2.2-2.7.4.2.8.3 1.2.3-.7-.3-1.1-1.1-1.1-2.1 0-.5.1-1 .4-1.4 1.3 1.6 3.3 2.7 5.6 2.8 0-.2-.1-.4-.1-.6 0-1.5 1.2-2.7 2.7-2.7.8 0 1.5.3 2 .9.6-.1 1.2-.3 1.7-.7-.3.7-.7 1.2-1.3 1.6.5-.1 1.1-.2 1.6-.4-.4.5-.8 1-1.4 1.3z"/></g></svg>