<svg xmlns="http://www.w3.org/2000/svg" viewBox="0 0 162.2 30" preserveAspectRatio="xMinYMax meet"><defs><clipPath id="a"><path fill="none" d="M0 0h162.2v30H0z"/></clipPath></defs><g clip-path="url(#a)"><path fill="#fff" d="M64.5 6.9a8.2 8.2 0 1 0 8 8.2 8.13 8.13 0 0 0-8-8.2m0 12.9a4.72 4.72 0 0 1-4.7-4.8 4.7 4.7 0 1 1 9.4 0 4.72 4.72 0 0 1-4.7 4.8M75 19V7h3v2.7A5.52 5.52 0 0 1 82.5 7H84v4h-1.8a4.14 4.14 0 0 0-4.2 4.1V23h-3v-4M47.6 7l2.6 10.7L53 7h3.4L52 23h-3.4l-2.7-10.7L43.3 23h-3.4L35.5 7h3.4l2.8 10.7L44.3 7h3.3m46.1 7.4a8.75 8.75 0 0 0 4-7.4h-3.4c0 3-2 5-4.6 5H89V0h-3v23h3v-8h.7a2.13 2.13 0 0 1 1 .9l4.8 7.1h4.1z"/><path fill="#6fda44" d="M27.4 6.9c-3.7 0-6.6 2.2-7.8 6.3A30.72 30.72 0 0 1 15.7 4H12v11.2a4 4 0 0 1-8 0V4H0v11.2a8 8 0 0 0 16 0v-1.8c0 1.7 1.6 3.3 2.7 4.8L16.1 30h4.1l1.8-8.5a9.88 9.88 0 0 0 5.4 1.7 8.15 8.15 0 0 0 0-16.3m0 12.2a7.34 7.34 0 0 1-4.5-1.8l.3-1.6v-.1c.3-1.7 1.2-4.6 4.2-4.6a4 4 0 0 1 4 4.1 4.15 4.15 0 0 1-4 4"/><path fill="#b2b2b2" d="M110 7.5h2.5v2.2h.1a8 8 0 0 1 2.3-1.9 5.92 5.92 0 0 1 2.9-.7 8.29 8.29 0 0 1 3.2.6 6.14 6.14 0 0 1 2.4 1.7 7.16 7.16 0 0 1 1.6 2.5 8.29 8.29 0 0 1 .6 3.2 8.66 8.66 0 0 1-.6 3.2 7.16 7.16 0 0 1-1.6 2.5 7.64 7.64 0 0 1-2.3 1.7 7.17 7.17 0 0 1-2.9.6 6.76 6.76 0 0 1-3.5-.9 5.8 5.8 0 0 1-2.2-2.2h-.1v10H110V7.5zm2.5 7.6a5.38 5.38 0 0 0 .4 2.2 4.18 4.18 0 0 0 1.1 1.8 5.23 5.23 0 0 0 1.7 1.2 5.09 5.09 0 0 0 2.2.4 5.38 5.38 0 0 0 2.2-.4 6.57 6.57 0 0 0 1.7-1.2 5.44 5.44 0 0 0 1.1-1.8 7.8 7.8 0 0 0 .4-2.2 5.38 5.38 0 0 0-.4-2.2 4.18 4.18 0 0 0-1.1-1.8 5.23 5.23 0 0 0-1.7-1.2 5.09 5.09 0 0 0-2.2-.4 5.38 5.38 0 0 0-2.2.4 6.57 6.57 0 0 0-1.7 1.2 5.44 5.44 0 0 0-1.1 1.8 5.38 5.38 0 0 0-.4 2.2m16.9-4a11.37 11.37 0 0 0-.1-1.9c0-.6-.1-1.2-.1-1.6h2.3v2.5h.1a6.79 6.79 0 0 1 .7-1.1 4.82 4.82 0 0 1 1.1-.9 3.5 3.5 0 0 1 1.4-.6 4.68 4.68 0 0 1 1.7-.2h.5c.2 0 .3.1.5.1l-.2 2.5a5.83 5.83 0 0 0-1.3-.2 3.75 3.75 0 0 0-3.3 1.5 7.12 7.12 0 0 0-1 4.1v7.4h-2.5m10.5-7.6a8 8 0 0 1 .6-3.2 6.93 6.93 0 0 1 4.1-4.1 8.29 8.29 0 0 1 3.2-.6 8.66 8.66 0 0 1 3.2.6 6.93 6.93 0 0 1 4.1 4.1 8.31 8.31 0 0 1 .6 3.2 8 8 0 0 1-.6 3.2 6.93 6.93 0 0 1-4.1 4.1 8.29 8.29 0 0 1-3.2.6 8.66 8.66 0 0 1-3.2-.6 6.93 6.93 0 0 1-4.1-4.1 8 8 0 0 1-.6-3.2m2.7 0a5.4 5.4 0 0 0 .4 2.2 4.2 4.2 0 0 0 1.1 1.8 5.24 5.24 0 0 0 1.7 1.2 5.09 5.09 0 0 0 2.2.4 5.39 5.39 0 0 0 2.2-.4 6.59 6.59 0 0 0 1.7-1.2 5.42 5.42 0 0 0 1.1-1.8 7.77 7.77 0 0 0 .4-2.2 5.38 5.38 0 0 0-.4-2.2 4.18 4.18 0 0 0-1.1-1.8 5.23 5.23 0 0 0-1.7-1.2 5.09 5.09 0 0 0-2.2-.4 5.38 5.38 0 0 0-2.2.4 6.58 6.58 0 0 0-1.7 1.2 5.45 5.45 0 0 0-1.1 1.8 5.4 5.4 0 0 0-.4 2.2m14.5-7.4h-1.1v-.4h2.6v.4h-1.1v3h-.4v-3m2.1-.4h.4l1.2 1.9 1.2-1.9h.4v3.4h-.4V8l-1.2 1.8-1.2-1.8v2.8h-.4V7.3"/></g></svg>