<svg xmlns="http://www.w3.org/2000/svg" viewBox="0 0 284.44 424.65"><defs><style>.cls-1,.cls-10,.cls-3{fill:none}.cls-1,.cls-3{stroke:#7d7d7d}.cls-1,.cls-10,.cls-2,.cls-3{stroke-linecap:round;stroke-linejoin:round}.cls-1,.cls-2{stroke-width:3.41px}.cls-2{fill:#f9f9f9;stroke:#e0e0e0}.cls-3{stroke-width:4px}.cls-4{fill:#b0e44f}.cls-5{fill:#d4f09e}.cls-6{fill:#73e6ff}.cls-7{fill:#b2f1ff}.cls-8{fill:#e7e7e7}.cls-9{fill:#fff}.cls-10{stroke:#b2b2b2;stroke-width:2.44px}.cls-11{fill:#b9f2ff}.cls-12{fill:#999}.cls-13{fill:#7d7d7d}</style></defs><title>16-0412_HIW</title><rect class="cls-1" x="39.46" y="5.2" width="206.81" height="416.2" rx="24.28" ry="24.28"/><path class="cls-2" d="M53.68 55.61h178.37v308.92H53.68z"/><circle class="cls-1" cx="141.71" cy="393.25" r="15.13"/><path class="cls-3" d="M127.73 31.4h47"/><circle class="cls-4" cx="188.76" cy="122.76" r="22.73"/><rect class="cls-5" x="179.97" y="110.52" width="17.57" height="20.46" rx="8.78" ry="8.78"/><path class="cls-5" d="M185.65 129.54h5.52v5.52h-5.52zm2.81 2.54a14.75 14.75 0 0 0-13.46 8.74 22.61 22.61 0 0 0 27.09.33 14.76 14.76 0 0 0-13.63-9.07z"/><circle class="cls-6" cx="94.4" cy="264.42" r="22.73"/><rect class="cls-7" x="85.62" y="252.19" width="17.57" height="20.46" rx="8.78" ry="8.78"/><path class="cls-7" d="M91.3 271.2h5.52v5.52H91.3zm2.81 2.54a14.75 14.75 0 0 0-13.47 8.74 22.61 22.61 0 0 0 27.09.33 14.76 14.76 0 0 0-13.62-9.07z"/><path class="cls-5" d="M150.62 78.61v60.67h-36.19v18.09L77.2 139.28H4.56V78.61h146.06z"/><path class="cls-7" d="M135.11 213.3v93.06h34.9v19.15l36.66-19.15h73.21V213.3H135.11z"/><path class="cls-8" d="M201.26 225.55l-24.11 26.42.06 4.12 62.09.15-.35-31.14-13.11-13.23-16.88 19.23-7.7-5.55z"/><path class="cls-9" d="M225.84 211.87l11.79 11.26.96-30.4-61.96.7-.89 58.96 25.52-26.84 7.24 6.42 17.34-20.1"/><path class="cls-10" d="M175.77 254.88l25.49-29.33 15.7 15.56m-8.55-8.47l17.43-20.77 13.11 13.23"/><circle class="cls-11" cx="192.09" cy="208.94" r="8.45" transform="rotate(-.64 193.096 210.57)"/><path class="cls-10" d="M177.576 191.118l63.506-.71.71 63.507-63.507.71z"/><path class="cls-12" d="M156.55 269.84h3a2.51 2.51 0 0 1 2.8 2.53c0 1.69-1.32 2.57-3 2.57h-1.22v2.2h-1.61v-7.32zm2.88 3.69a1.13 1.13 0 0 0 1.28-1.11 1.11 1.11 0 0 0-1.31-1.11h-1.24v2.24h1.28zm3.57.86a2.79 2.79 0 0 1 2.77-2.92c1.87 0 2.73 1.45 2.73 3v.42h-3.9A1.3 1.3 0 0 0 166 276a1.84 1.84 0 0 0 1.36-.57l.91.8a3 3 0 0 1-5.27-1.84zm4-.47a1.2 1.2 0 0 0-1.18-1.19 1.25 1.25 0 0 0-1.21 1.19H167zm2.72-2.37h1.59v1.13a1.73 1.73 0 0 1 1.79-1.23v1.66h-.1c-1.06 0-1.7.64-1.7 2v2.07h-1.59v-5.6zm4.64 1.36h-.66v-1.31h.66v-.36a1.85 1.85 0 0 1 .45-1.36 1.74 1.74 0 0 1 1.29-.44 3.52 3.52 0 0 1 1.13.16v1.32a2 2 0 0 0-.72-.14.52.52 0 0 0-.57.61v.22h1.29v1.3h-1.26v4.24h-1.59v-4.24zm3.34 1.48a2.79 2.79 0 0 1 2.77-2.92c1.87 0 2.73 1.45 2.73 3v.42h-3.9a1.3 1.3 0 0 0 1.37 1.1 1.84 1.84 0 0 0 1.36-.57l.91.8a3 3 0 0 1-5.24-1.83zm4-.47a1.2 1.2 0 0 0-1.18-1.19 1.25 1.25 0 0 0-1.21 1.19h2.39zm2.41.47a2.88 2.88 0 0 1 2.94-2.92 2.75 2.75 0 0 1 2.24.94l-1 1a1.64 1.64 0 0 0-1.28-.62 1.43 1.43 0 0 0-1.36 1.53 1.44 1.44 0 0 0 1.42 1.55 1.77 1.77 0 0 0 1.29-.6l.93.94a2.82 2.82 0 0 1-2.29 1 2.86 2.86 0 0 1-2.89-2.82zm6.5 1.18v-2.65h-.67v-1.36h.67v-1.43h1.59v1.43h1.32v1.36h-1.32v2.39a.46.46 0 0 0 .51.54 1.62 1.62 0 0 0 .78-.2v1.28a2.34 2.34 0 0 1-1.25.32 1.44 1.44 0 0 1-1.63-1.68zm3.63 2.62a.94.94 0 0 0 1-1h-.65v-1.67h1.69v1.41a1.71 1.71 0 0 1-1.93 2zm6.56-8.66h1.59v2.82a2 2 0 0 1 1.64-.9 1.84 1.84 0 0 1 1.9 2.08v3.63h-1.59V274a1 1 0 0 0-1-1.14 1 1 0 0 0-1 1.14v3.13h-1.54v-7.63zm6.2 4.86a2.79 2.79 0 0 1 2.77-2.92c1.87 0 2.73 1.45 2.73 3v.42h-3.9A1.3 1.3 0 0 0 210 276a1.84 1.84 0 0 0 1.36-.57l.91.8a3 3 0 0 1-5.27-1.84zm4-.47a1.2 1.2 0 0 0-1.18-1.19 1.25 1.25 0 0 0-1.21 1.19H211zm2.72-2.37h1.59v1.13a1.73 1.73 0 0 1 1.79-1.23v1.66h-.1c-1.06 0-1.7.64-1.7 2v2.07h-1.59v-5.6zm3.94 2.84a2.79 2.79 0 0 1 2.77-2.92c1.87 0 2.73 1.45 2.73 3v.42h-3.9a1.3 1.3 0 0 0 1.37 1.1 1.84 1.84 0 0 0 1.36-.57l.91.8a3 3 0 0 1-5.24-1.83zm4-.47a1.2 1.2 0 0 0-1.18-1.19 1.25 1.25 0 0 0-1.21 1.19h2.39zm2.34-1.37a.94.94 0 0 0 1-1h-.65v-1.67H226v1.41a1.71 1.71 0 0 1-1.93 2zm2.73 3.86l.68-1a3.17 3.17 0 0 0 1.77.67c.46 0 .67-.17.67-.42 0-.34-.54-.46-1.16-.65-.78-.23-1.67-.6-1.67-1.68a1.83 1.83 0 0 1 2-1.78 3.88 3.88 0 0 1 2.09.65l-.61 1.1a3.32 3.32 0 0 0-1.52-.52c-.39 0-.59.17-.59.39 0 .31.53.46 1.14.67.78.26 1.69.64 1.69 1.66 0 1.24-.93 1.81-2.14 1.81a3.92 3.92 0 0 1-2.35-.9zm9.08-.84v-2.65h-.67v-1.36h.67v-1.43h1.59v1.43h1.32v1.36h-1.32v2.39a.46.46 0 0 0 .51.54 1.62 1.62 0 0 0 .78-.2v1.28a2.34 2.34 0 0 1-1.25.32 1.44 1.44 0 0 1-1.63-1.68zm4.08-6.04h1.59v2.82a2 2 0 0 1 1.64-.9 1.84 1.84 0 0 1 1.9 2.08v3.63h-1.59V274a1 1 0 0 0-1-1.14 1 1 0 0 0-1 1.14v3.13h-1.59v-7.63zm6.24 4.86a2.79 2.79 0 0 1 2.77-2.92c1.87 0 2.73 1.45 2.73 3v.42h-3.9a1.3 1.3 0 0 0 1.37 1.1 1.84 1.84 0 0 0 1.36-.57l.91.8a3 3 0 0 1-5.24-1.83zm4-.47a1.2 1.2 0 0 0-1.18-1.19 1.25 1.25 0 0 0-1.21 1.19h2.39zm-93.48 12.93H156v-1.31h.66v-.36a1.85 1.85 0 0 1 .45-1.36 1.74 1.74 0 0 1 1.29-.44 3.52 3.52 0 0 1 1.13.16v1.32a2 2 0 0 0-.72-.14.52.52 0 0 0-.57.61v.22h1.29v1.3h-1.26v4.24h-1.59v-4.24zm3.76-3.39h1.67v1.41h-1.67v-1.41zm0 2H162v5.6h-1.59v-5.6zm3.12.03h1.59v.79a2 2 0 0 1 1.64-.9 1.84 1.84 0 0 1 1.9 2.08v3.63h-1.59V288a1 1 0 0 0-1-1.14 1 1 0 0 0-1 1.14v3.13h-1.59v-5.6zm6.18 3.99c0-1.22.93-1.79 2.26-1.79a4 4 0 0 1 1.37.23v-.09a1 1 0 0 0-1.2-1 4.12 4.12 0 0 0-1.55.3l-.4-1.21a4.94 4.94 0 0 1 2.17-.45 2.59 2.59 0 0 1 1.89.63 2.44 2.44 0 0 1 .61 1.79v3.25h-1.54v-.61a2.15 2.15 0 0 1-1.69.71 1.73 1.73 0 0 1-1.92-1.76zm3.65-.37v-.28a2.47 2.47 0 0 0-1-.21.89.89 0 0 0-1.1.77.74.74 0 0 0 .87.68 1.08 1.08 0 0 0 1.22-.96zm2.94-5.65h1.59v7.63h-1.59v-7.63zm6.49 3.39h-.66v-1.31h.66v-.36a1.85 1.85 0 0 1 .45-1.36 1.74 1.74 0 0 1 1.29-.44 3.52 3.52 0 0 1 1.13.16v1.32a2 2 0 0 0-.72-.14.52.52 0 0 0-.57.61v.22h1.29v1.3h-1.26v4.24h-1.59v-4.24zm3.75-3.39h1.67v1.41h-1.67v-1.41zm0 2h1.59v5.6h-1.59v-5.6zm3.2-2h1.59v7.63h-1.59v-7.63zm2.81 4.86a2.79 2.79 0 0 1 2.77-2.92c1.87 0 2.73 1.45 2.73 3v.42h-3.9a1.3 1.3 0 0 0 1.37 1.1 1.84 1.84 0 0 0 1.36-.57l.91.8a3 3 0 0 1-5.24-1.83zm4-.47a1.2 1.2 0 0 0-1.18-1.19 1.25 1.25 0 0 0-1.21 1.19h2.39zm2.73-3.85v-.21h1.86v.21l-.49 4.62h-.88zm.08 5.44h1.69v1.67h-1.69v-1.67zM24.87 100h-2.22v-1.52h6.06V100h-2.23v5.83h-1.61V100zm4.9-1.83h1.59V101a2 2 0 0 1 1.64-.9 1.84 1.84 0 0 1 1.9 2.08v3.63h-1.58v-3.13a1 1 0 0 0-1-1.14 1 1 0 0 0-1 1.14v3.13h-1.55v-7.64zm6.18 6.02c0-1.22.93-1.79 2.26-1.79a4 4 0 0 1 1.37.23v-.09a1 1 0 0 0-1.2-1 4.12 4.12 0 0 0-1.55.3l-.4-1.21a4.94 4.94 0 0 1 2.17-.45 2.59 2.59 0 0 1 1.89.63 2.44 2.44 0 0 1 .61 1.79v3.25h-1.53v-.61a2.15 2.15 0 0 1-1.69.71 1.73 1.73 0 0 1-1.93-1.76zm3.65-.37v-.28a2.46 2.46 0 0 0-1-.21.89.89 0 0 0-1.1.77.74.74 0 0 0 .87.68 1.08 1.08 0 0 0 1.23-.96zm2.87-3.62h1.59v.8a2 2 0 0 1 1.64-.9 1.84 1.84 0 0 1 1.9 2.08v3.63H46v-3.13a1 1 0 0 0-1-1.14 1 1 0 0 0-1 1.14v3.13h-1.53v-5.6zM49 98.17h1.59v4.07l1.86-2h1.9l-2.15 2.16 2.21 3.4h-1.82l-1.46-2.29-.55.59v1.7H49v-7.63zm5.73 6.89l.68-1a3.17 3.17 0 0 0 1.77.67c.46 0 .67-.17.67-.42 0-.34-.54-.46-1.16-.65-.79-.3-1.69-.66-1.69-1.75a1.83 1.83 0 0 1 2-1.78 3.88 3.88 0 0 1 2.09.65l-.61 1.1a3.32 3.32 0 0 0-1.52-.52c-.39 0-.59.17-.59.39 0 .31.53.46 1.14.67.78.26 1.69.64 1.69 1.66 0 1.24-.93 1.81-2.14 1.81a3.92 3.92 0 0 1-2.33-.83zm5.73-6.37v-.21h1.86v.21l-.49 4.62H61zm.08 5.44h1.69v1.67h-1.68v-1.67zM68.8 100h-2.22v-1.52h6.06V100h-2.23v5.83H68.8V100zm4.9-1.83h1.59V101a2 2 0 0 1 1.64-.9 1.84 1.84 0 0 1 1.9 2.08v3.63h-1.58v-3.13a1 1 0 0 0-1-1.14 1 1 0 0 0-1 1.14v3.13H73.7v-7.64zm6.54 0h1.67v1.41h-1.67v-1.41zm0 2h1.59v5.6h-1.54v-5.6zm2.69 4.89l.68-1a3.17 3.17 0 0 0 1.77.67c.46 0 .67-.17.67-.42 0-.34-.54-.46-1.16-.65-.78-.23-1.67-.6-1.67-1.68a1.83 1.83 0 0 1 2-1.78 3.88 3.88 0 0 1 2.09.65l-.61 1.1a3.32 3.32 0 0 0-1.52-.52c-.39 0-.59.17-.59.39 0 .31.53.46 1.14.67.78.26 1.69.64 1.69 1.66 0 1.24-.93 1.81-2.14 1.81a3.92 3.92 0 0 1-2.35-.9zm8.85-6.89h1.67v1.41h-1.67v-1.41zm0 2h1.59v5.6h-1.55v-5.6zm2.69 4.89l.68-1a3.17 3.17 0 0 0 1.77.67c.46 0 .67-.17.67-.42 0-.34-.54-.46-1.16-.65-.78-.23-1.67-.6-1.67-1.68a1.83 1.83 0 0 1 2-1.78 3.88 3.88 0 0 1 2.09.65l-.61 1.1a3.32 3.32 0 0 0-1.52-.52c-.39 0-.59.17-.59.39 0 .31.53.46 1.14.67.78.26 1.69.64 1.69 1.66 0 1.24-.93 1.81-2.14 1.81a3.92 3.92 0 0 1-2.35-.9zm8.85 1.85l.54-1.19a3.65 3.65 0 0 0 1.89.51 1.38 1.38 0 0 0 1.6-1.53v-.27a2.19 2.19 0 0 1-1.83.91 2.46 2.46 0 0 1-2.49-2.61 2.47 2.47 0 0 1 2.49-2.61 2.27 2.27 0 0 1 1.81.84v-.76h1.59v4.34a3 3 0 0 1-.71 2.21 3.28 3.28 0 0 1-2.41.75 5.32 5.32 0 0 1-2.48-.59zm4-4.18a1.37 1.37 0 0 0-2.73 0A1.28 1.28 0 0 0 106 104a1.29 1.29 0 0 0 1.35-1.28zm3.02-2.53h1.59v1.13a1.73 1.73 0 0 1 1.79-1.23v1.66h-.08c-1.06 0-1.7.64-1.7 2v2.07h-1.59v-5.6zm3.94 2.8a2.79 2.79 0 0 1 2.77-2.92c1.87 0 2.73 1.45 2.73 3v.42h-3.9a1.3 1.3 0 0 0 1.37 1.1 1.84 1.84 0 0 0 1.36-.57l.91.8a3 3 0 0 1-5.24-1.83zm4-.47a1.2 1.2 0 0 0-1.18-1.19 1.25 1.25 0 0 0-1.21 1.19h2.39zm2.34 1.66c0-1.22.93-1.79 2.26-1.79a4 4 0 0 1 1.37.23v-.09a1 1 0 0 0-1.2-1 4.12 4.12 0 0 0-1.55.3l-.4-1.21a4.94 4.94 0 0 1 2.17-.45 2.59 2.59 0 0 1 1.89.63 2.44 2.44 0 0 1 .61 1.79v3.25h-1.54v-.61a2.15 2.15 0 0 1-1.69.71 1.73 1.73 0 0 1-1.92-1.76zm3.65-.37v-.28a2.46 2.46 0 0 0-1-.21.89.89 0 0 0-1.1.77.74.74 0 0 0 .87.68 1.08 1.08 0 0 0 1.23-.96zm3.08.39v-2.66h-.67v-1.35h.67v-1.44h1.59v1.43h1.32v1.36h-1.32v2.39a.46.46 0 0 0 .51.54 1.62 1.62 0 0 0 .78-.2v1.28a2.34 2.34 0 0 1-1.25.32 1.44 1.44 0 0 1-1.63-1.67zM23.26 118.14v-2.66h-.67v-1.36h.67v-1.42h1.59v1.43h1.32v1.36h-1.32v2.39a.46.46 0 0 0 .51.54 1.62 1.62 0 0 0 .78-.2v1.28a2.34 2.34 0 0 1-1.25.32 1.44 1.44 0 0 1-1.63-1.68zm3.65-1.14a3 3 0 0 1 6.06 0 3 3 0 0 1-6.06 0zm4.49 0a1.49 1.49 0 0 0-1.47-1.55 1.44 1.44 0 0 0-1.45 1.53 1.49 1.49 0 0 0 1.52 1.51 1.44 1.44 0 0 0 1.41-1.49zm5.42 2l.68-1a3.17 3.17 0 0 0 1.77.67c.46 0 .67-.17.67-.42 0-.34-.54-.46-1.16-.65-.78-.23-1.67-.6-1.67-1.68a1.83 1.83 0 0 1 2-1.78 3.88 3.88 0 0 1 2.09.65l-.61 1.1a3.32 3.32 0 0 0-1.52-.52c-.39 0-.59.17-.59.39 0 .31.53.46 1.14.67.78.26 1.69.64 1.69 1.66 0 1.24-.93 1.81-2.14 1.81a3.92 3.92 0 0 1-2.35-.9zm5.41-2a2.79 2.79 0 0 1 2.77-3c1.87 0 2.73 1.45 2.73 3v.42h-3.9a1.3 1.3 0 0 0 1.37 1.1 1.84 1.84 0 0 0 1.36-.57l.91.8a3 3 0 0 1-5.24-1.75zm4-.47A1.2 1.2 0 0 0 45 115.3a1.25 1.25 0 0 0-1.21 1.19h2.39zm2.68-2.4h1.59v.79a2 2 0 0 1 1.64-.9A1.84 1.84 0 0 1 54 116.1v3.63h-1.55v-3.13a1 1 0 0 0-1-1.14 1 1 0 0 0-1 1.14v3.13h-1.54v-5.6zm6.26 2.81a2.63 2.63 0 0 1 2.55-2.9 2.15 2.15 0 0 1 1.75.84v-2.78h1.59v7.63h-1.6v-.8a2.06 2.06 0 0 1-1.75.91 2.64 2.64 0 0 1-2.54-2.9zm4.32 0a1.37 1.37 0 1 0-2.73 0 1.37 1.37 0 1 0 2.72 0zm5.84.06a3 3 0 0 1 6.06 0 3 3 0 0 1-6.06 0zm4.49 0a1.49 1.49 0 0 0-1.47-1.55 1.44 1.44 0 0 0-1.45 1.53 1.49 1.49 0 0 0 1.47 1.55 1.44 1.44 0 0 0 1.46-1.53zm3-1.51h-.66v-1.31h.66v-.36a1.85 1.85 0 0 1 .45-1.36 1.74 1.74 0 0 1 1.29-.44 3.52 3.52 0 0 1 1.13.16v1.32a2 2 0 0 0-.72-.14.52.52 0 0 0-.57.61v.22h1.29v1.3H74.4v4.24h-1.58v-4.24zm3.99 0h-.66v-1.31h.66v-.36a1.85 1.85 0 0 1 .45-1.36 1.74 1.74 0 0 1 1.29-.44 3.52 3.52 0 0 1 1.13.16v1.32a2 2 0 0 0-.72-.14.52.52 0 0 0-.57.61v.22h1.29v1.3H78.4v4.24h-1.59v-4.24zm3.19 2.57h1.69v1.67H80v-1.67z"/><circle class="cls-13" cx="111.8" cy="30.43" r="3.36"/></svg>