<?xml version="1.0" encoding="UTF-8" standalone="no"?>
<svg width="198px" height="165px" viewBox="0 0 198 165" version="1.1" xmlns="http://www.w3.org/2000/svg" xmlns:xlink="http://www.w3.org/1999/xlink">
    <!-- Generator: Sketch 42 (36781) - http://www.bohemiancoding.com/sketch -->
    <title>Group</title>
    <desc>Created with Sketch.</desc>
    <defs>
        <path d="M116.336681,30.8512579 C116.339292,30.0237103 117.007632,29.3528505 117.839644,29.3528505 L124.997021,29.3528505 C125.824473,29.3528505 126.495256,30.0317811 126.495256,30.8589722 L126.495256,166.154352 C126.495256,166.98616 125.849271,167.488266 125.046146,167.274167 L117.362983,165.225974 C116.562662,165.012622 115.915973,164.174583 115.918602,163.34126 L116.336681,30.8512579 Z" id="path-1"/>
        <mask id="mask-2" maskContentUnits="userSpaceOnUse" maskUnits="objectBoundingBox" x="0" y="0" width="10.5766612" height="137.970694" fill="white">
            <use xlink:href="#path-1"/>
        </mask>
        <path d="M76.4296844,33.5751723 C76.4308545,32.7470819 77.0980253,32.0757821 77.9300381,32.0757821 L85.0874143,32.0757821 C85.9148666,32.0757821 86.5856493,32.7447008 86.5856493,33.5828295 L86.5856493,166.836785 C86.5856493,167.669104 85.9386792,168.171362 85.1366781,167.957563 L77.6921146,165.972975 C76.8918699,165.759644 76.2440913,164.915848 76.2452621,164.087315 L76.4296844,33.5751723 Z" id="path-3"/>
        <mask id="mask-4" maskContentUnits="userSpaceOnUse" maskUnits="objectBoundingBox" x="0" y="0" width="10.3403888" height="135.931026" fill="white">
            <use xlink:href="#path-3"/>
        </mask>
        <path d="M52.6642223,151.498766 C52.6392468,150.668504 53.2588726,150.167305 54.0742653,150.386308 L73.3433284,155.561722 C74.1470491,155.777591 74.8662493,156.619736 74.9501424,157.446998 L75.8729445,166.546671 C75.9566427,167.372012 75.3839907,167.86946 74.5827108,167.654758 L54.4178444,162.251598 C53.6215698,162.038237 52.9558415,161.193091 52.9308397,160.361951 L52.6642223,151.498766 Z" id="path-5"/>
        <mask id="mask-6" maskContentUnits="userSpaceOnUse" maskUnits="objectBoundingBox" x="0" y="0" width="23.2175707" height="17.3698148" fill="white">
            <use xlink:href="#path-5"/>
        </mask>
        <path d="M127.664222,151.498766 C127.639247,150.668504 128.258873,150.167305 129.074265,150.386308 L148.343328,155.561722 C149.147049,155.777591 149.866249,156.619736 149.950142,157.446998 L150.872945,166.546671 C150.956643,167.372012 150.383991,167.86946 149.582711,167.654758 L129.417844,162.251598 C128.62157,162.038237 127.955842,161.193091 127.93084,160.361951 L127.664222,151.498766 Z" id="path-7"/>
        <mask id="mask-8" maskContentUnits="userSpaceOnUse" maskUnits="objectBoundingBox" x="0" y="0" width="23.2175707" height="17.3698148" fill="white">
            <use xlink:href="#path-7"/>
        </mask>
    </defs>
    <g id="Page-1" stroke="none" stroke-width="1" fill="none" fill-rule="evenodd">
        <g id="PSM-interstitial_v1_AIR2.0" transform="translate(-262.000000, -324.000000)">
            <g id="Illustration" transform="translate(264.000000, 276.000000)">
                <g id="Group" transform="translate(0.000000, 48.000000)">
                    <use id="Rectangle-5-Copy" stroke="#7D7D7D" mask="url(#mask-2)" stroke-width="6" fill="#F2F2F2" transform="translate(121.206925, 98.338197) rotate(-15.000000) translate(-121.206925, -98.338197) " xlink:href="#path-1"/>
                    <use id="Rectangle-5-Copy" stroke="#7D7D7D" mask="url(#mask-4)" stroke-width="6" fill="#F2F2F2" transform="translate(81.415455, 100.041295) scale(-1, 1) rotate(-15.000000) translate(-81.415455, -100.041295) " xlink:href="#path-3"/>
                    <use id="Rectangle-5-Copy" stroke="#7D7D7D" mask="url(#mask-6)" stroke-width="6" fill="#F2F2F2" transform="translate(64.272279, 159.019801) scale(-1, 1) rotate(-15.000000) translate(-64.272279, -159.019801) " xlink:href="#path-5"/>
                    <use id="Rectangle-5-Copy" stroke="#7D7D7D" mask="url(#mask-8)" stroke-width="6" fill="#F2F2F2" transform="translate(139.272279, 159.019801) rotate(-15.000000) translate(-139.272279, -159.019801) " xlink:href="#path-7"/>
                    <path d="M115.720382,77.5140256 L92.0572858,95.4141611" id="Line" stroke="#7D7D7D" stroke-width="3" stroke-linecap="square" transform="translate(103.888834, 86.464093) scale(-1, 1) translate(-103.888834, -86.464093) "/>
                    <path d="M17.7416759,79.6557237 C18.5820973,79.6557237 19.382726,79.8156903 20.1252574,80.0974224 C21.3930522,75.9868386 25.2203122,73 29.7471275,73 C35.3085524,73 39.8162672,77.5077148 39.8162672,83.0691398 C39.8162672,88.6297689 35.3085524,93.1382796 29.7471275,93.1382796 L17.7416759,93.1382796 C14.0178769,93.1382796 11,90.1196068 11,86.3973995 C11,82.6736005 14.0178769,79.6557237 17.7416759,79.6557237 Z" id="Page-1" stroke="#F0F0F0" stroke-width="3" stroke-linecap="round" stroke-linejoin="round"/>
                    <path d="M115.480139,115.738428 L81.8880942,95.6475354" id="Line" stroke="#7D7D7D" stroke-width="3" stroke-linecap="square" transform="translate(98.684116, 105.692981) scale(-1, 1) translate(-98.684116, -105.692981) "/>
                    <path d="M80.8511395,138.97442 L127.261493,117.117745" id="Line" stroke="#7D7D7D" stroke-width="3" stroke-linecap="square" transform="translate(104.056316, 128.046082) scale(-1, 1) translate(-104.056316, -128.046082) "/>
                    <ellipse id="Oval" fill="#6FDA44" cx="102.411765" cy="19.3127251" rx="19.4117647" ry="19.3127251"/>
                    <path d="M110.163989,22.9815968 C108.940787,22.9815968 107.795852,22.4661866 106.753782,21.6281814 L107.007218,20.4416255 L107.016163,20.3956464 C107.245001,19.1356723 107.956858,17.0221195 110.163989,17.0221195 C111.815797,17.0221195 113.159009,18.3592198 113.159009,20.0018582 C113.159009,21.6452382 111.815797,22.9815968 110.163989,22.9815968 M110.163989,14.0060426 C107.348612,14.0060426 105.165333,15.823698 104.279052,18.8204934 C102.92615,16.7974155 101.898243,14.3686838 101.300432,12.3233579 L98.2688876,12.3233579 L98.2688876,20.1664928 C98.2688876,21.7142068 97.0024521,22.9734393 95.4460558,22.9734393 C93.8904049,22.9734393 92.6247147,21.7142068 92.6247147,20.1664928 L92.6247147,12.3233579 L89.5924253,12.3233579 L89.5924253,20.1664928 C89.5924253,23.3776099 92.2184715,26.0132473 95.4460558,26.0132473 C98.6743855,26.0132473 101.300432,23.3776099 101.300432,20.1664928 L101.300432,18.8538653 C101.887807,20.0730515 102.610846,21.3100361 103.488928,22.4038924 L101.634371,31.0842909 L104.733747,31.0842909 L106.078449,24.7888699 C107.256182,25.5378833 108.610575,26.0132473 110.163989,26.0132473 C113.48773,26.0132473 116.191298,23.3078997 116.191298,20.0018582 C116.191298,16.6958166 113.48773,14.0060426 110.163989,14.0060426" id="Fill-15" fill="#FFFFFF"/>
                    <path d="M35.1745,163.4998 L193.994507,163.4998" id="Stroke-3" stroke="#7D7D7D" stroke-width="3" stroke-linecap="round"/>
                    <path d="M0.4362,163.4998 L22.6162003,163.4998" id="Stroke-5" stroke="#7D7D7D" stroke-width="3" stroke-linecap="round"/>
                </g>
            </g>
        </g>
    </g>
</svg>