<svg xmlns="http://www.w3.org/2000/svg" viewBox="0 0 100 28.465"><path fill="#4B4B4B" d="M61.096 6.458c-4.15.02-7.53 3.431-7.511 7.677.02 4.245 3.433 7.625 7.583 7.605s7.531-3.431 7.512-7.676c-.021-4.246-3.433-7.626-7.584-7.606zm.057 12.169a4.43 4.43 0 0 1-4.455-4.414 4.43 4.43 0 0 1 4.413-4.455 4.43 4.43 0 0 1 4.455 4.413c.012 2.361-2.053 4.445-4.413 4.456zm16.753-8.569c-2.17.01-3.86 1.811-3.85 3.981l.034 7.264-3.302.016-.067-14.435 3.302-.016.011 2.264s1.404-2.27 4.234-2.283l.943-.005.016 3.207-1.321.007zm-32.94-3.053l2.5 9.895 2.595-9.918 3.302-.015-4.084 14.453-3.207.015-2.594-10.082-2.5 10.105-3.208.015-4.312-14.414 3.207-.015 2.876 9.893 2.312-9.917 3.113-.015zM88.865 13.403c2.257-1.331 3.851-3.792 3.837-6.622l-3.302.016c.012 2.453-1.961 4.443-4.319 4.454l-.472.002-.052-11.415-3.302.016.101 21.415 3.301-.015-.031-6.792.377-.002c.378-.002.756.185.852.468l4.651 6.298 3.868-.018-5.509-7.805z"/><path fill="#6FDA44" d="M25.813 6.623c-3.584.017-6.309 2.388-7.329 6.166-1.711-2.633-3.046-5.646-3.812-8.189l-3.773.018.047 10a3.585 3.585 0 0 1-7.17.034l-.047-10-3.774.018.047 10c.02 4.15 3.336 7.438 7.393 7.418s7.344-3.337 7.325-7.487l-.008-1.698c.761 1.505 1.712 3.104 2.757 4.515l-2.307 11.048 3.867-.018 1.662-8.027c1.513.937 3.214 1.494 5.194 1.485 4.151-.02 7.532-3.431 7.511-7.771-.019-4.152-3.432-7.531-7.583-7.512zm.054 11.415c-1.509.007-3.021-.646-4.252-1.679l.37-1.51v-.095c.276-1.606 1.111-4.345 3.941-4.358a3.785 3.785 0 0 1 3.792 3.756c-.085 2.17-1.869 3.877-3.851 3.886z"/><path fill="#4B4B4B" d="M94.779 7.243l-1.038.005-.001-.378 2.548-.012.001.378-1.038.005.014 2.924-.377.002-.014-2.925-.095.001zm2.169-.388l.377-.001 1.141 1.788 1.123-1.798.377-.002.016 3.208-.377.002-.013-2.642-1.124 1.704-1.141-1.694.013 2.642-.377.001-.015-3.208z"/></svg>